<svg xmlns="http://www.w3.org/2000/svg" viewBox="0 0 461.555 461.555"><path d="M253.079 164.828c0-11.806-10.004-21.412-22.3-21.412-12.298 0-22.303 9.605-22.303 21.412 0 11.807 10.005 21.412 22.303 21.412 12.296 0 22.3-9.606 22.3-21.412zm-22.3 8.412c-5.13 0-9.303-3.774-9.303-8.412s4.173-8.412 9.303-8.412c5.128 0 9.3 3.773 9.3 8.412s-4.172 8.412-9.3 8.412zm164.825-8.412c0-11.688-12.568-21.322-31.66-25.875 16.206-11.45 24.047-25.01 19.659-35.87-5.091-12.605-22.707-15.191-41.981-11.613 3.252-4.915 5.876-9.843 7.737-14.594 4.824-12.308 4.104-22.465-2.031-28.599-8.265-8.262-23.965-6.187-40.682 4.091 3.362-19.555-.683-34.687-11.467-39.265-12.505-5.309-26.788 5.312-37.884 21.461C253.056 13.854 243.049 0 230.779 0c-11.688 0-21.322 12.569-25.876 31.658-11.45-16.207-25.01-24.042-35.871-19.656-12.599 5.09-15.187 22.7-11.613 41.965-17.643-11.645-34.518-14.365-43.191-5.691-6.135 6.133-6.855 16.29-2.031 28.599 1.545 3.942 3.615 8.007 6.133 12.084-19.563-3.364-34.697.68-39.275 11.465-5.309 12.506 5.313 26.788 21.461 37.884-20.709 4.24-34.564 14.249-34.564 26.519 0 11.687 12.569 21.321 31.658 25.875-16.206 11.45-24.044 25.008-19.656 35.872 5.094 12.602 22.711 15.188 41.983 11.608-3.253 4.916-5.877 9.845-7.739 14.597-4.824 12.309-4.104 22.465 2.03 28.6h.001c8.263 8.263 23.964 6.188 40.681-4.091-3.362 19.555.683 34.686 11.467 39.263 12.508 5.31 26.788-5.311 37.885-21.461 3.463 16.913 10.772 29.253 20.02 33.21v16.375a45.693 45.693 0 00-4.372-.648 49.32 49.32 0 00-4.749-.241c-4.77-9.643-14.107-15.551-26.309-16.44-6.1-.447-12.593.37-19.342 2.419-5.141-3.353-11.138-5.799-17.879-7.287-18.957-4.176-39.952.205-54.796 11.435a6.5 6.5 0 00-2.573 4.933c-.717 18.601 7.705 38.328 21.979 51.483 5.073 4.674 10.511 8.193 16.206 10.492 2.184 6.712 5.231 12.502 9.085 17.248 7.712 9.497 17.903 13.777 28.537 12.168a49.684 49.684 0 002.917 3.757c10.79 12.57 24.562 15.813 38.777 9.127 4.377-2.058 8.589-4.981 12.518-8.542v20.477a6.5 6.5 0 1013 0v-36.103c9.542-14.97 14.863-33.423 12.306-48.346-1.548-9.032-5.777-16.007-12.306-20.58V328.3c8.707-3.728 15.697-14.893 19.373-30.306 9.335 13.212 20.069 20.863 29.603 20.862 2.16 0 4.262-.394 6.269-1.205 12.6-5.089 15.188-22.696 11.614-41.962 17.642 11.645 34.511 14.365 43.191 5.689 6.134-6.135 6.854-16.291 2.03-28.599-1.545-3.943-3.614-8.008-6.132-12.086 19.56 3.364 34.696-.68 39.274-11.464 5.309-12.507-5.313-26.789-21.461-37.884 20.708-4.24 34.562-14.247 34.562-26.517zm-27.393-59.842l-22.61 9.135a4 4 0 102.996 7.417l22.579-9.123c-2.473 6.32-12.063 15.974-28.264 23.789a126.584 126.584 0 00-4.64-.084c-17.191 0-32.158 3.414-42.485 9.033-3.448-.87-5.754-2.282-6.444-3.989-.801-1.981.259-5.203 2.848-8.813.874-.293 1.76-.615 2.657-.967 10.569-4.143 22.019-12.052 32.237-22.271l.164-.164c18.874-7.07 34.288-7.077 40.962-3.963zm-68.32-31.268c13.679-12.303 26.944-17.827 33.987-17.646l-17.215 17.216a3.999 3.999 0 105.656 5.656l17.188-17.19c.071 2.75-.685 6.381-2.252 10.377-3.301 8.423-9.896 18.051-18.205 26.615a126.101 126.101 0 01-1.156 1.175c-8.852 8.851-18.98 15.908-27.79 19.361-6.782 2.659-12.538 3.003-14.661.88-4.421-4.422 1.396-23.609 20.239-42.452a111.742 111.742 0 013.961-3.77c.085-.071.168-.146.248-.222zM259.483 57.33v-.23c8.347-18.343 19.241-29.25 26.161-31.767l-9.529 22.448a4 4 0 107.364 3.126l9.516-22.417c2.722 6.217 2.768 19.824-3.16 36.804a128.772 128.772 0 00-3.343 3.224c-12.156 12.156-20.325 25.152-23.654 36.428-3.055 1.823-5.683 2.458-7.379 1.737-1.982-.841-3.52-3.908-4.233-8.344 5.155-10.253 8.257-24.621 8.257-41.009zm-44.275-5.51a6.59 6.59 0 00.013-.243c.966-18.398 6.445-31.699 11.559-36.554v24.348a4 4 0 008 0v-24.34c5.478 5.204 11.376 20.102 11.691 40.581a6.59 6.59 0 00.005.422c.005.43.008.862.008 1.296 0 26.65-9.452 44.331-15.704 44.331-6.254 0-15.708-17.681-15.708-44.331-.001-1.882.046-3.721.136-5.51zm-13.053.869a126.68 126.68 0 00-.084 4.641c0 17.192 3.415 32.161 9.034 42.488-.87 3.447-2.281 5.752-3.991 6.443-1.994.806-5.251-.275-8.895-2.908-3.604-10.896-11.568-23.247-23.156-34.834a12.372 12.372 0 00-.162-.162c-7.07-18.873-7.076-34.285-3.965-40.96l9.135 22.609a4.002 4.002 0 005.207 2.21 4 4 0 002.211-5.207l-9.122-22.579c6.321 2.471 15.975 12.058 23.788 28.259zm-37.459 23.864a175.473 175.473 0 011.176 1.158c18.844 18.843 24.661 38.03 20.239 42.452-2.123 2.123-7.877 1.778-14.661-.88-8.809-3.453-18.938-10.51-27.789-19.361-8.852-8.852-15.908-18.98-19.361-27.79-1.566-3.996-2.323-7.627-2.252-10.377l17.192 17.191c.781.781 1.805 1.171 2.828 1.171s2.048-.391 2.828-1.172a3.999 3.999 0 000-5.657l-17.214-17.213c.112-.003.219-.01.333-.01 7.658-.001 22.177 6.405 36.681 20.488zm-73.41 33.41l22.444 9.527a4.002 4.002 0 005.245-2.119 4 4 0 00-2.119-5.245l-22.415-9.514c6.217-2.722 19.827-2.768 36.812 3.163a122.803 122.803 0 003.218 3.34c10.219 10.22 21.668 18.129 32.236 22.272a54.034 54.034 0 004.241 1.469c1.784 3.018 2.397 5.614 1.686 7.292-.842 1.982-3.908 3.52-8.346 4.233-10.253-5.157-24.619-8.259-41.007-8.259h-.23c-18.343-8.348-29.245-19.24-31.765-26.159zm-10.312 58.865h24.349a4 4 0 000-8H80.98c5.203-5.479 20.102-11.378 40.583-11.693.141.004.282.001.421-.006.43-.005.862-.007 1.297-.007 26.65 0 44.331 9.454 44.331 15.707s-17.681 15.706-44.331 15.706a109.355 109.355 0 01-5.793-.152c-18.378-.973-31.663-6.446-36.514-11.555zm12.371 55.839l22.609-9.134a4.001 4.001 0 00-2.996-7.418l-22.58 9.122c2.473-6.32 12.063-15.974 28.26-23.788 1.527.056 3.075.084 4.642.084 17.191 0 32.16-3.415 42.487-9.033 3.449.87 5.754 2.281 6.443 3.99.801 1.98-.259 5.203-2.849 8.813a56.39 56.39 0 00-2.656.967c-10.568 4.142-22.018 12.052-32.236 22.271l-.159.159c-18.874 7.074-34.289 7.08-40.965 3.967zm68.318 31.271c-13.678 12.303-26.941 17.828-33.984 17.646l17.217-17.217a4 4 0 10-5.656-5.657l-17.191 17.191c-.071-2.75.686-6.382 2.252-10.378 3.453-8.81 10.51-18.938 19.362-27.79 8.851-8.851 18.979-15.908 27.788-19.36 6.782-2.658 12.538-3.005 14.661-.88 4.422 4.422-1.396 23.609-20.239 42.453a109.942 109.942 0 01-3.96 3.769 5.927 5.927 0 00-.25.223zm40.408 16.386v.233c-8.347 18.339-19.242 29.243-26.159 31.763l9.527-22.446a4 4 0 10-7.363-3.126l-9.515 22.417c-2.722-6.217-2.769-19.824 3.159-36.803a127.133 127.133 0 003.343-3.224c12.157-12.156 20.326-25.153 23.656-36.429 3.056-1.824 5.684-2.456 7.376-1.739 1.984.842 3.521 3.91 4.235 8.347-5.156 10.253-8.259 24.62-8.259 41.007zm27.628 133.444a115.266 115.266 0 00-9.027-10.234 4.18 4.18 0 00-.016-.248c-1.295-13.772-9.205-26.27-21.16-33.432a4 4 0 10-4.111 6.862 36.09 36.09 0 0114.97 17.614 117.977 117.977 0 00-45.944-22.216c-7.193-11.38-19.449-18.892-32.985-20.163-2.202-.216-4.15 1.409-4.356 3.609a4 4 0 003.608 4.356 36.092 36.092 0 0121.715 10.005 117.13 117.13 0 00-13.13-.951h-.065a4 4 0 00-.063 8 109.825 109.825 0 0149.413 12.67c-9.105 4.507-19.895 4.928-29.457 1.031a3.998 3.998 0 00-5.214 2.195 3.998 3.998 0 002.194 5.213c12.905 5.26 27.648 4.081 39.439-3.157.334-.205.627-.45.877-.727a108.009 108.009 0 0128.929 27.059c-5.375 8.102-12.08 14.807-19.084 18.101-8.811 4.144-16.459 2.236-23.38-5.828-1.504-1.754-2.899-3.741-4.147-5.906a6.5 6.5 0 00-7.625-2.941c-7.223 2.327-13.951-.026-19.456-6.807-3.321-4.091-5.884-9.394-7.615-15.762a6.5 6.5 0 00-4.32-4.494c-5.003-1.575-10.064-4.635-14.637-8.849-10.574-9.745-17.355-24.476-17.808-38.289 11.587-7.533 27.547-10.401 41.587-7.308 6.078 1.342 11.484 3.742 15.636 6.941a6.495 6.495 0 006.159.971c6.206-2.223 12.022-3.154 17.282-2.773 8.71.635 14.489 4.806 16.714 12.062a6.5 6.5 0 006.779 4.57c2.492-.217 4.918-.211 7.211.019 3.428.344 6.369 1.121 8.835 2.34.219.131.446.25.681.355 4.732 2.595 7.584 6.949 8.646 13.145 1.645 9.614-1.412 21.935-7.075 32.967zm16.648-127.942c-.006.085-.011.17-.013.256-.967 18.394-6.443 31.693-11.555 36.549v-24.347a4 4 0 00-8 0v24.342c-5.478-5.201-11.374-20.089-11.694-40.556a6.29 6.29 0 00-.007-.476c-.005-.422-.007-.844-.007-1.271 0-26.649 9.454-44.329 15.708-44.329 6.252 0 15.704 17.68 15.704 44.329 0 1.881-.046 3.715-.136 5.503zm-5.18-59.243c-3.192-2.329-6.688-3.589-10.388-3.589-3.936 0-7.64 1.426-10.994 4.045-2.113-3.769-5.021-6.513-8.611-8.037a16.934 16.934 0 00-6.65-1.332c-1.36 0-2.832.153-4.411.514-.611-3.905-2.191-7.268-4.808-9.885-2.773-2.773-6.369-4.44-10.613-4.988 1.148-4.132 1.024-8.1-.426-11.688-1.09-2.703-3.194-5.866-7.243-8.408 2.329-3.193 3.589-6.688 3.589-10.388 0-3.936-1.426-7.639-4.046-10.994 3.769-2.113 6.512-5.021 8.034-8.609 1.132-2.668 1.877-6.367.836-10.991 3.922-.64 7.26-2.271 9.869-4.88 2.782-2.783 4.393-6.41 4.912-10.635 4.16 1.171 8.154 1.056 11.767-.405 2.703-1.091 5.866-3.196 8.407-7.242 3.193 2.329 6.688 3.589 10.389 3.589 3.936 0 7.638-1.425 10.991-4.045 2.113 3.768 5.021 6.511 8.608 8.033 2.684 1.14 6.409 1.885 11.063.82.611 3.905 2.191 7.268 4.808 9.885 2.773 2.773 6.368 4.44 10.613 4.988-1.147 4.133-1.023 8.103.428 11.694 1.093 2.701 3.198 5.862 7.242 8.401-2.328 3.193-3.589 6.688-3.589 10.389 0 3.936 1.425 7.638 4.045 10.993-3.769 2.114-6.512 5.022-8.034 8.61-1.132 2.668-1.877 6.367-.836 10.991-3.921.64-7.26 2.27-9.869 4.879-2.782 2.783-4.393 6.409-4.912 10.634-4.158-1.17-8.154-1.053-11.768.406-2.701 1.094-5.862 3.199-8.403 7.245zm18.232 58.38c.056-1.527.084-3.073.084-4.639 0-17.191-3.414-32.159-9.032-42.485.871-3.449 2.282-5.754 3.989-6.444 1.992-.807 5.252.275 8.895 2.906 3.604 10.896 11.568 23.25 23.156 34.837l.164.164c7.069 18.871 7.075 34.282 3.963 40.957l-9.135-22.608a4 4 0 10-7.418 2.997l9.121 22.573c-6.317-2.478-15.973-12.061-23.787-28.258zm37.494-23.826a6.649 6.649 0 00-.269-.262c-.314-.307-.627-.616-.94-.93-18.844-18.844-24.662-38.031-20.24-42.453 2.122-2.124 7.879-1.779 14.661.88 8.81 3.453 18.938 10.509 27.79 19.361 8.852 8.851 15.909 18.979 19.361 27.79 1.566 3.995 2.323 7.626 2.252 10.376L322.32 250.71a4 4 0 00-5.657 0 3.999 3.999 0 000 5.657l17.21 17.212c-7.557.195-22.272-6.173-36.98-20.442zm73.377-33.444l-22.446-9.528a4 4 0 00-3.125 7.364l22.414 9.514c-6.219 2.721-19.829 2.765-36.808-3.162a126.044 126.044 0 00-3.219-3.341c-10.22-10.22-21.669-18.129-32.238-22.271a53.873 53.873 0 00-4.24-1.469c-1.784-3.019-2.398-5.614-1.687-7.292.842-1.983 3.908-3.521 8.343-4.235 10.253 5.157 24.621 8.26 41.009 8.26h.231c18.344 8.347 29.247 19.24 31.766 26.16zm-30.279-39.172a5.282 5.282 0 00-.419.006c-.431.005-.863.007-1.299.007-26.648 0-44.329-9.453-44.329-15.706s17.681-15.707 44.329-15.707a109.506 109.506 0 015.726.148c18.412.962 31.723 6.443 36.581 11.559h-24.346a4 4 0 000 8h24.34c-5.203 5.479-20.102 11.378-40.583 11.693zm-75.102-29.279a4 4 0 012.211-5.207l1.129-.456a4.001 4.001 0 012.996 7.418l-1.129.456a4 4 0 01-5.207-2.211zm8.243 31.355a4 4 0 01-5.246 2.118l-1.123-.477a4.001 4.001 0 013.127-7.364l1.123.477a4.001 4.001 0 012.119 5.246zm-53.909 20.849l-.477 1.122a4.001 4.001 0 11-7.364-3.126l.477-1.122a3.999 3.999 0 015.245-2.118 3.998 3.998 0 012.119 5.244zm-8.203-12.713l-.698.699a3.986 3.986 0 01-2.831 1.175 4 4 0 01-2.831-6.825l.698-.699a4 4 0 115.662 5.65zm-8.391-25.906a4 4 0 01-4 4h-.987a4 4 0 010-8h.987a4 4 0 014 4zm-4.974 13.582a4 4 0 01-2.212 5.207l-1.13.456a4 4 0 01-2.994-7.419l1.13-.456a4.003 4.003 0 015.206 2.212zm60.229 13.023a3.986 3.986 0 01-2.832 1.176 3.988 3.988 0 01-2.824-1.167l-.699-.697a4 4 0 015.648-5.665l.699.697a4 4 0 01.008 5.656zm-22.613 6.039v.988a4 4 0 01-8 0v-.988a4 4 0 018 0zm15.246 4.313a4.001 4.001 0 01-7.418 2.996l-.456-1.129a4.001 4.001 0 017.418-2.996l.456 1.129zm-38.491-73.914a4 4 0 017.418-2.996l.456 1.129a4 4 0 01-7.418 2.997l-.456-1.13zm15.245 4.314v-.988a4 4 0 018 0v.988a4 4 0 01-8 0zm16.046-5.975l.475-1.121a4 4 0 017.367 3.12l-.475 1.121a4.002 4.002 0 01-5.244 2.123 4.001 4.001 0 01-2.123-5.243zm8.21 12.703l.699-.698a4 4 0 015.65 5.663l-.699.698a3.986 3.986 0 01-2.825 1.168 4 4 0 01-2.825-6.831zm-62.118 8.15a4 4 0 015.243-2.124l1.121.475a4 4 0 11-3.12 7.367l-1.121-.475a4 4 0 01-2.123-5.243zm70.507 17.765a4 4 0 014-4h.987a4 4 0 010 8h-.987a4 4 0 01-4-4zm-55.253-20.952a4 4 0 015.654-5.659l.698.698a4 4 0 01-5.654 5.659l-.698-.698z"/></svg>