<svg xmlns="http://www.w3.org/2000/svg" viewBox="0 0 512 512"><path d="M320.9 98.8c2.3 7.9 4.5 16.1 6.6 24.4 4.4 17 2.5 31.6-5.6 43.6-6.6 9.8-16.6 16.9-26.7 22 7.8-12.6 13.6-31.9 9.5-60.3-3.9-27.5-13.8-53.9-22.7-73.2L302.9 45c2 5.1 5 13 8.6 23.6l9.4 30.2zm4.8-35c-5.3-15.8-9.3-25.7-11.3-30.2-2.2-5-8.1-7.1-12.9-4.7l-26 12.9c-3.3-6.5-6.2-11.5-7.9-14.6-1.7-2.9-4.8-4.7-8.2-4.7-3.4 0-6.5 1.8-8.2 4.7-1.8 3-4.6 8.1-7.9 14.6l-26-12.9c-4.9-2.4-10.7-.3-12.9 4.8-3.2 7.5-14.8 35.9-27.6 85.8-5.5 21.3-2.9 40.1 7.7 55.8 17.8 26.3 52.9 36 67.5 39v171.3c-10.8-32-31.2-74.7-68.1-107.1-6.3-5.6-16.3-.7-15.8 7.7.6 10.3 3.3 37.7 15.3 70.5 14.6 39.9 37.7 74.1 68.6 101.8v35h15v-92.1c30.9-27.7 54-61.9 68.6-101.8 12.1-32.9 14.7-60.3 15.3-70.5.5-8.4-9.4-13.2-15.8-7.7-37 32.5-57.3 75.1-68.1 107.1V214.3c14.6-3 49.7-12.7 67.5-39 10.6-15.7 13.2-34.5 7.7-55.8-2.2-8.5-4.5-16.8-6.8-24.8l-9.7-30.9zm-46.4 274.8c8.7-27.5 25.2-65.3 55.1-96-4 29.8-17.7 86.3-64.7 135.3 1.8-10.5 4.8-24.1 9.6-39.3zm-95-38.9c29.9 30.7 46.3 68.5 55.1 96 4.8 15.2 7.8 28.8 9.7 39.3-47.1-49-60.8-105.5-64.8-135.3zm105.6-169.1c7.5 52.6-22.6 66.7-30.5 69.5-3.2-1.2-10.5-4.3-17.2-11.4-12.5-13.1-17-32.7-13.4-58.1 4.3-29.7 16.6-61.3 30.5-87.4 14 26.1 26.3 57.7 30.6 87.4zm-93.1 36.2c-8.1-12-10-26.7-5.6-43.6 10.5-40.7 20-66.6 24.6-78.3l20.9 10.3C227.9 74.6 218 101 214 128.5c-4.1 28.5 1.7 47.7 9.5 60.3-10.1-5-20.1-12.1-26.7-22zm-56.2 180.3"/></svg>