<svg height="511pt" viewBox="-4 1 511 512" width="511pt" xmlns="http://www.w3.org/2000/svg"><path d="M503 125.746a10.015 10.015 0 00-7.164-8.312l-64.688-18.508c-34.66-9.914-70.082-5.074-99.468 10.933-12.356-39.16-37.43-85.414-74.637-108.37a10.01 10.01 0 00-10.504 0c-37.207 22.956-62.281 69.21-74.637 108.366-29.386-16.003-64.804-20.843-99.465-10.925L7.75 117.437a10 10 0 00-2.395 18.188l28.747 17.242A88.041 88.041 0 0172.21 200.23c9.008 26.766 25.828 48.73 47.05 64.258a140.575 140.575 0 00-62.187 38.848c-22.52 24.258-35.762 55.844-37.281 88.941l-3.3 71.766a10 10 0 0016.476 8.07l27.238-23.218a94.667 94.667 0 0161.348-22.598c19.226 0 38.336-3.996 55.867-11.598 11.555 38.149 36.031 73.008 68.691 95.531a9.994 9.994 0 0011.355 0c32.66-22.523 57.134-57.382 68.688-95.53a140.814 140.814 0 0055.867 11.597 94.66 94.66 0 0161.348 22.598l27.238 23.218a9.998 9.998 0 0016.477-8.07l-3.3-71.766a140.217 140.217 0 00-38.22-89.941 140.466 140.466 0 00-61.25-37.848c21.227-15.527 38.047-37.492 47.055-64.258a88.024 88.024 0 0138.11-47.363l28.742-17.242a9.995 9.995 0 004.777-9.879zM251.79 21.996c31.35 22.305 52.44 64.524 62.44 99.238-20.011 15.422-35.804 36.754-44.46 62.477l-7.98 23.71v-76.35c10.51-4.036 17.991-14.227 17.991-26.137V94.105c0-15.437-12.558-27.992-27.992-27.992-15.434 0-27.992 12.555-27.992 27.992v10.829c0 11.91 7.484 22.101 17.992 26.136v76.34l-7.973-23.7c-8.66-25.726-24.453-47.054-44.464-62.48 10.003-34.714 31.085-76.93 62.437-99.234zm7.991 82.938c0 4.406-3.582 7.992-7.992 7.992-4.406 0-7.992-3.586-7.992-7.992V94.105c0-4.406 3.586-7.992 7.992-7.992 4.41 0 7.992 3.586 7.992 7.992zM91.168 193.848a108.056 108.056 0 00-46.777-58.133l-8.985-5.39 42.535-12.169c57.649-16.496 117.793 15.102 136.918 71.934l19.977 59.36c-24.73-16.114-45.531-37.81-60.57-63.188 6.648-10.79 5.308-25.137-4.032-34.48l-7.656-7.657c-10.914-10.914-28.672-10.91-39.586 0-10.914 10.914-10.914 28.672 0 39.586l7.656 7.66c5.457 5.457 12.625 8.184 19.793 8.184 2.641 0 5.278-.375 7.832-1.114 16.66 27.418 39.43 50.844 66.415 68.262-56.11 14.207-114.758-17.101-133.52-72.855zm63.742-15.653c-3.11 2.102-7.375 1.778-10.12-.968l-7.657-7.657c-3.117-3.117-3.117-8.187 0-11.304 1.558-1.559 3.601-2.336 5.648-2.336s4.094.777 5.653 2.336l7.656 7.656c3.055 3.055 3.105 7.98.176 11.11-.493.35-.95.741-1.356 1.163zm-33.35 228.102c-27.22 0-53.61 9.723-74.325 27.375l-9.703 8.273 2.242-48.75C42.461 334.7 86.503 286.867 144.5 279.457c.258-.031.508-.082.758-.133 11.808 5.078 24.363 8.465 37.281 9.938l-5.8 2.66c-28.923 13.273-54.54 31.86-76.13 55.234-3.746 4.059-3.496 10.383.559 14.133a9.963 9.963 0 006.785 2.652 9.98 9.98 0 007.348-3.214c19.789-21.426 43.27-38.461 69.777-50.625l1.25-.575c-10.277 14.239-16.277 31.735-16.277 56.649 0 9.597.906 19.215 2.613 28.734a120.673 120.673 0 01-51.105 11.387zm130.23 83.344c-37.707-28.829-61.742-76.52-61.742-123.465 0-40.813 18.312-55.754 51.742-78.727v79.043c0 5.524 4.48 10 10 10 5.524 0 10-4.476 10-10V287.45c33.434 22.973 51.742 37.914 51.742 78.727 0 46.945-24.031 94.637-61.742 123.465zm212.02-96.446l2.242 48.75-9.703-8.273a114.694 114.694 0 00-74.325-27.375 120.673 120.673 0 01-51.105-11.387c1.707-9.52 2.617-19.137 2.617-28.734 0-24.914-6.004-42.41-16.281-56.649l1.25.575c26.512 12.164 49.988 29.199 69.777 50.625a9.983 9.983 0 007.352 3.214c2.426 0 4.86-.878 6.781-2.652 4.055-3.75 4.309-10.074.559-14.133-21.59-23.375-47.203-41.96-76.13-55.234l-5.796-2.66c12.883-1.469 25.406-4.844 37.191-9.899 57.637 6.965 102.895 55.614 105.57 113.832zm-4.614-257.48a108.016 108.016 0 00-46.777 58.137c-18.766 55.75-77.414 87.054-133.52 72.851 26.985-17.418 49.754-40.844 66.41-68.262a28.234 28.234 0 007.833 1.114c7.168 0 14.34-2.73 19.796-8.188l7.657-7.656c10.91-10.914 10.914-28.672 0-39.586s-28.672-10.914-39.59 0l-7.656 7.656c-9.34 9.34-10.68 23.692-4.032 34.477-15.039 25.379-35.832 47.07-60.566 63.187l19.977-59.355c19.125-56.832 79.27-88.43 136.921-71.934l42.532 12.168zm-110.527 42.48a10.13 10.13 0 00-1.348-1.16c-2.937-3.129-2.883-8.058.172-11.113l7.656-7.656c1.559-1.559 3.602-2.336 5.649-2.336s4.094.777 5.652 2.336c3.117 3.117 3.117 8.187 0 11.304l-7.656 7.657c-2.75 2.75-7.02 3.07-10.125.968zm0 0"/><path d="M251.79 396.492c-5.52 0-10 4.477-10 10v.38c0 5.519 4.48 10 10 10 5.523 0 10-4.481 10-10v-.38c0-5.523-4.478-10-10-10zm0 0"/></svg>