<svg height="511pt" viewBox="-18 0 511 511.998" width="511pt" xmlns="http://www.w3.org/2000/svg"><path d="M84.957 281.367c23.027 10.117 48.93 12.067 74.227 4.938 1.296 1.64 2.64 3.246 4.035 4.808.746 32.14 7.437 62.465 19.047 85.946 10.746 21.746 24.914 35.988 40.851 41.457v93.48h29.988v-93.48c15.938-5.47 30.106-19.711 40.856-41.457 11.605-23.48 18.3-53.809 19.043-85.954a109.542 109.542 0 004.05-4.796c25.239 7.105 51.141 5.195 74.212-4.946 26.308-11.558 46.675-32.617 57.359-59.328l26.926-67.87h-49.524v-41.981h-26.636l5.625-47.157-47.871 12.828-10.977-40.96-40.961 10.976L292.379 0l-54.27 40.598L183.844 0l-12.828 47.871-40.961-10.976-10.977 40.96-47.871-12.824 5.625 47.153H50.195v42.98H.5l27.113 66.91c10.668 26.672 31.032 47.73 57.344 59.293zm183.14-95.004l24.93-24.93 11.196 26.13c12.004 28 6.96 59.765-12.664 82.546H184.668c-20.133-23.43-24.14-55.777-12.672-82.546l11.2-26.13 24.929 24.93 29.984-29.988zm-1.019 177.41c-8.445 17.082-19.273 27.282-28.965 27.282-9.695 0-20.523-10.2-28.968-27.282-8.434-17.066-13.875-39.699-15.493-63.687h88.922c-1.62 23.988-7.062 46.621-15.496 63.687zm164.317-179.62l-10.625 26.785c-14.34 35.843-51.012 55.011-87.989 48.261a109.185 109.185 0 007.809-39.332c29.137-15.992 49.61-44.719 55.094-77.695h.355v41.98zM284.004 84.597l40.96-10.977 10.974 40.961 34.054-9.125-3.367 28.23c-2.559 21.458-13.855 40.72-30.664 53.52a109.945 109.945 0 00-4.176-11.457l-28.644-66.84-17.47 17.469a108.848 108.848 0 00-5.917-31.23 108.63 108.63 0 00-19.125-33.946l14.25-10.66zM140.28 114.582l10.977-40.96 40.96 10.976 9.126-34.055 22.761 17.031c20.606 15.414 32.012 39.239 31.68 64.074l-17.676-17.68-29.984 29.989-35.047-35.047-28.644 66.84a108.126 108.126 0 00-4.157 11.48c-16.886-12.859-28.144-32.265-30.683-53.542l-3.367-28.231zm-60.097 70.566v-42.98h.351c5.453 32.691 25.809 61.68 55.168 77.738.16 13.399 2.758 26.746 7.762 39.29-36.985 6.761-73.672-12.415-88.035-48.321l-10.426-25.727zm0 0"/></svg>