<svg version="1.1" id="Layer_1" xmlns="http://www.w3.org/2000/svg" xmlns:xlink="http://www.w3.org/1999/xlink" x="0" y="0" viewBox="0 0 712.3 689.2" xml:space="preserve"><style>.st0{fill:none;stroke:#000;stroke-width:11.2397;stroke-miterlimit:10}.st2{fill:#fff}.st3{stroke:#000;stroke-width:.2371;stroke-miterlimit:10}</style><path class="st0" d="M242.2 326.9c1.3 13.6 1.2 27.1-9.8 35.2-5.3 3.9-12.3 4.9-18.9 4.9-35.3.1-68.9-26.8-76.5-61.3-1.6-7.4-2.2-15.3 0-22.6 2.2-7.3 7.5-13.9 14.8-16.3 3.3-1.1 6.9-1.3 10.4-2 7.3-1.5 14.1-5.4 19.1-10.9 2.8-3.2 5.2-6.9 9-8.9 3.1-1.6 6.8-1.8 10.2-1.5 11.8 1.1 23 7.7 29.8 17.5 1.7 2.6 3.2 5.4 3.4 8.5.3 6.1-4.4 11.1-7 16.6-6.2 13 1.6 32 15.3 36.5l.2 4.3z"/><path class="st0" d="M204.5 239.9c-6-8.7-6.6-20.3-3.1-30.3 3.5-9.9 10.7-18.2 19-24.7 4.3-3.3 9-6.3 14.3-7.7 6.3-1.7 13.1-1 19.5.7 12.9 3.5 24.4 11.4 32.9 21.7 6 7.4 10.7 16.9 8.6 26.2-3.5 16-21.8 22.1-23.5 38.4-10.5-6.8-28.3-4-38 4-6.8-11.9-17-21.9-29.2-28.3"/><path d="M300.2 233.5c2.6-2.9 7.4-2.9 11-2.5 5.5.5 8.9 3.6 13.2 6.8 4.9 3.6 10.3 5.2 16.4 5.4 6.6.2 13-1 19 2.6 11.3 6.8 13.6 21.1 13.1 33.2-.5 13.5-2.7 27.9-10.1 39.4-6.6 10.4-16.8 18-27.4 23.9-9.3 5.2-23.9 11.9-33.7 4.2-8.2-6.4-8-21.5-7.3-30.8 1-12.2 4.6-24.8-3.4-35.4-3.3-4.4-7.7-7.8-10.9-12.2-2.9-4.1-2.7-6.8-.2-11.1 5.2-9 13.7-15.5 20.3-23.5 4.6-5.5-3.3-13.5-7.9-7.9-7.2 8.7-16.3 15.9-22.1 25.6-6.4 10.8-2.6 20.2 5.6 28.8 3.8 4 8.4 7.8 9.1 13.5 1.1 8.5-1.7 17.2-1.9 25.8-.2 12.5 1.4 27.9 12 36 11.8 9.1 27.4 5.6 39.8-.2 13-6 25.4-14.9 34.2-26.2 10.1-12.9 13.5-28.7 14.8-44.7 1.3-15-.4-31-11.1-42.4-5.2-5.6-12.1-9.2-19.8-9.9-4.6-.5-9.2.3-13.8-.1-4.4-.4-7.5-2.6-10.9-5.3-9.5-7.3-26.6-11-35.9-1-5 5.4 2.9 13.4 7.9 8z"/><path d="M266.2 328.1c-2 16.5 7.9 34.5 18.2 46.6 10.8 12.6 26.6 22.9 43.1 25.9 15.2 2.8 32.6-2.1 38.8-17.6 6-15 2-35.5-3-50.3-1.2-3.4-5-5.3-8.3-3.4-5.5 3.2-10.1 7.6-15.7 10.6-5.8 3.2-11.8 6.3-18.2 8.1-5.7 1.6-11.9 2.4-17.3-.4-5.5-2.8-8.6-8.8-9.1-14.9-.6-7.3 2.1-16.4-5.8-20.7-10.2-5.6-20.6 5.3-22.5 14.5-1.5 7.1 9.4 10.1 10.8 3 .5-2.3 1.2-4.4 2.9-6 .5-.4 2.6-2.1 3.5-1.6.2.1-.6-.4-.3 0 1.4 1.8 0 7.2 0 9.3.1 10.3 5.1 20.6 14.1 25.8 9.8 5.7 21.5 4 31.6.2 5.5-2.1 10.7-4.7 15.9-7.6 5.6-3.1 10.2-7.4 15.7-10.6-2.8-1.1-5.5-2.2-8.3-3.4 4.1 12.2 7.4 27.6 4.3 40.4-3.5 14.2-19.5 16-31.5 12.4-12.8-3.8-24.3-11.7-32.9-21.8-8.6-10.1-16.6-25-14.9-38.6 1.1-7.1-10.2-7-11.1.1zm-21.9.7c1.3 1.1 1.7 1 1.2-.3.2.7.5 1.4 1 1.9 1 1.6 2.2 3 3.1 4.7 1.6 3.3 1.7 6.6 1.9 10.2.5 7.8 1.1 15.9-1.5 23.5-4.5 13.1-18 23.3-29.2 30.5-8.7 5.6-29 15.8-35.2 2.1-2.7-5.8-2.8-12.8-3.1-19-.4-8.1-.4-16.3.1-24.4-2.8 1.6-5.6 3.2-8.5 4.9 9.5 4.5 19.5 7.7 30 9.2 9.7 1.4 20.9 2.2 29.5-3.3 6.8-4.3 10.9-11.5 12.6-19.3.8-3.9 1.2-7.9 1.1-11.9 0-1.9-.4-3.9-.3-5.9 0-.6.3-1.3.4-1.9.1-.7.3-1.4.4-2.1.5-1.8-.7-1.4-3.5 1.1 6.6 2.9 12.3-6.8 5.7-9.7-3.4-1.5-6.9-2.3-10.1.4-2.7 2.3-3.3 6.3-3.9 9.7-1.3 7.8 1 15.2-2.4 22.8-4 9.1-13 10.3-22 9.7-11.1-.8-22-3.8-32-8.5-3.9-1.9-8.2.4-8.5 4.9-.4 8.1-.5 16.3-.1 24.4.3 6.7.7 13.9 2.8 20.3 4.6 13.8 16.4 18.3 30.1 15.8 14.2-2.5 26.6-11.7 37.3-20.8 11.3-9.6 19.9-21 21.4-36.1.8-8 .9-18.3-1.2-26.1-1-3.7-2.9-6.9-4.9-10-1.4-2.1-3.2-4.6-6.7-6.3-6.4-3.3-12.1 6.4-5.5 9.5zm146-157.6c-1.2 8.3-2 14.5-9.3 19.8-8.7 6.4-20.1 6-29.8 2.5-18.2-6.6-32.5-23-39.6-40.7-6.4-16-8.9-37-.5-52.8 4.7-8.9 11.2-12.2 21.2-11.8 5.3.2 10.3.3 15.5-1.2 4.6-1.3 9-3.4 13.4-5.4 9-4 18.1-6.6 24.3 3 5.3 8.4 10.1 16.8 16.1 24.7 1.1-2.8 2.2-5.5 3.4-8.3-13.7 4.5-23.3 17.8-21.8 32.3.8 8 4.5 15.2 6.4 22.9 1.4 5.5 1.1 10.7.8 16.3-.4 7.2 10.9 7.2 11.2 0 .2-4.2.6-8.2.1-12.3-.8-6.4-2.9-12.4-5-18.5-2.1-6-4.1-13.1-1-19.1 2.2-4.5 7.5-9.1 12.3-10.7 3.1-1 5.7-5.2 3.4-8.3-2.5-3.4-5.1-6.7-7.4-10.2-3.3-5.1-5.9-10.6-9.3-15.6-6.2-9.1-15.7-13-26.5-10.6-5.3 1.2-10.3 3.7-15.2 5.9-6.2 2.7-11.8 4.1-18.6 3.8-12.1-.5-21.9 2-29.4 12.1-13.1 17.7-12 44.1-4.9 63.9 7.7 21.7 23.8 41.1 45.3 50 12.9 5.4 28.1 6.1 40.3-1.5 5.1-3.2 9.7-7.8 12.5-13.2 2.3-4.4 2.6-9.3 3.3-14.2.6-6.9-10.2-10-11.2-2.8z"/><path d="M313.7 177.6c-5.4 14-8.1 29.7-1.7 43.9 5.5 12.1 17.2 18.9 30.2 19.9 29.5 2.4 48.6-23 62.1-45.5 3.5-5.9 8.9-14 4.8-20.9-1-1.7-2.6-3.1-3.8-4.6-2-2.6-3.2-5.6-4-8.8-1.7-6.4-10.5-4.6-11 1.5-.4 5.4-.5 11.7-3.2 16.5-2.8 4.9-7.2 9.8-12.5 11.6-17.5 6-36.6-5-49.3-16.3-5.4-4.8-13.4 3.1-7.9 7.9 16 14.2 39.9 27 61.6 18.7 7.5-2.9 13.3-8.9 17.5-15.7 4.2-6.7 4.5-15.2 5.1-22.8-3.7.5-7.4 1-11 1.5 1.6 5.8 4.2 10.4 8 15 .6.7 1 .9 1.1 1.3-.2-1.1-1.5 3.4-1.5 3.5-1.7 3.4-3.9 6.7-5.9 9.9-7.5 12.2-16.2 24.8-29.2 31.6-10.5 5.5-25.6 6.7-35.1-1.5-12.7-11.1-8.6-30.2-3.3-43.8 2.4-6.6-8.4-9.5-11-2.9zm85.2-95c-8.4-16.8-2.1-35.3 13.2-45.7 13.6-9.3 33.5-9.9 47 .3 7.9 6 9.9 16.2 11.8 25.4 1.8 8.4 2.8 17.4.3 25.8-2.7 8.6-9.7 14.1-17.7 17.5-3.4 1.5-7.8 3.6-11.4 4.2 2.8-.5-.7-1.2-2-1.9-1.4-.8-2.7-1.6-4.1-2.5-4.5-2.9-9-4.8-14.4-5.4-2.3-.3-4.6-.2-7 0-.9.1-5.1 1.2-5.7 1-1-.4-2.7-4.6-3.4-5.7-.9-1.4-1.7-2.9-2.6-4.3-1.5-2.5-2.5-4.6-3.4-7.4-2.4-6.8-13.2-3.9-10.8 3 2.5 7.2 6.4 13.7 10.6 20 3.3 5 7 6 12.7 5 6-1 11.6-.9 16.9 2.4 3.7 2.3 7.3 5 11.6 6.2 4.6 1.3 10.2-1.6 14.5-3.3 10.3-4 20-10.2 25-20.5 4.9-10.2 4.6-21.7 2.8-32.6-1.9-11.3-4.5-24.4-13-32.7-15.4-15.2-41.1-16.6-59.5-6.6-10.4 5.7-19.2 15.5-23.6 26.5-4.9 12.3-3.2 25.2 2.6 36.9 3.2 6.6 12.9.9 9.6-5.6z"/><path d="M435.1 118.4c9.1 2.7 21.6-1.3 29.2-6.5 5-3.4 9.5-8 15.3-9.9 5.6-1.9 11.9-1.4 17.3 1.1 5.9 2.7 8.8 7.3 12.3 12.4 3.8 5.5 8.2 9.1 14.2 11.8 5.6 2.6 11 4.7 14.1 10.3 2.7 4.9 3.3 10.8 2.5 16.3-2.1 13.5-12 26.5-20.5 36.7-8.7 10.4-19 18.2-32.6 20.5-13.5 2.3-26.5 1.2-38.6-5.5-5.4-3-10.4-7.8-11-14.2-.5-6.1 2.6-11.4 5.7-16.3 8.1-12.9 15.1-25.5 13.2-41.2-.7-5.8-1.4-11.9-4.7-16.8-3-4.6-7.4-6.4-12-8.9-6.3-3.5-12 6.2-5.7 9.7 4.1 2.2 7.9 3.3 9.6 8 2.1 5.9 2.6 13.4 1.4 19.5-2.7 14.3-14.8 24-18 37.9-3.3 14.2 5 27 17.8 33 6.1 2.9 12.3 5.8 19 6.6 7.5.9 15.5.5 23-.5 15-2 27.5-9.2 37.7-20.3 9.8-10.6 19.2-23.5 24.3-37 4.6-12.2 4.3-26.7-4.1-37.2-4.5-5.6-10.6-8-16.8-11-7.3-3.5-9.7-9.7-14.6-15.6-9-10.7-25.3-14.5-38.3-9.4-7.4 2.9-12.5 9-19.5 12.4-4.6 2.2-11.9 4.8-17 3.3-7.1-2.1-10.1 8.8-3.2 10.8z"/><path d="M405 178.1c-2.8 22.7 3.2 45.8 16.7 64.3 12.3 16.8 34.6 38.4 57.3 29.7 11.6-4.5 14.6-14.3 17.4-25.5 1.4-5.6 2.8-11.4 2.7-17.2-.1-5.2-1.5-13.5-6.3-16.6-4.8-3.1-14-1.8-19.4-1.1-2.2.3-4.4.7-6.6.7-3.4 0-6.2-1.4-9.4-2.6-4.7-1.8-10.1-2.7-14.2-5.7-9.9-7.3-1.8-22.4-9.9-30.9-4-4.2-8.9-3.2-14-2.5-1.9.3-4 .1-5.9.4-2.1.3-3.9 1.3-5.8 2.1-6.6 3-.9 12.7 5.7 9.7.5-.2 1-.5 1.5-.7 1-.3 1.9 0 .4 0 1.4-.1 2.8-.1 4.2-.3 1.5-.2 3.4-.8 4.9-.8 1.5 0 .6-1 1.4.9 1.5 3.7.8 8.4 1.2 12.4.4 4.7 1.7 9.3 4.5 13.2 5.2 7.5 13.6 9.5 21.7 12.4 4.6 1.7 8.8 3.5 13.8 3.5 3.5 0 7-.9 10.5-1.1 3-.1 6.3.5 9.2.1 18-2.6.5.2.9 0 .2 0 .4.1.5.1-1.8-1.4-2.3-1.4-1.5-.2 0 .9 1 2.7 1.2 3.7.3 1.5.3 3.1.3 4.6-.1 4.6-1.4 9-2.5 13.4-1.2 4.6-1.7 10.3-5.2 13.9-6.9 7.3-18.2 4.6-25.8.2-8.6-5-16.2-12.6-22.2-20.5-13.2-17.2-18.7-38.4-16.1-59.8.9-7-10.3-6.9-11.2.2zm-152.6 178c-1.6 42.5-1.6 85-1.7 127.5-.1 47.6.2 95.3 1.3 142.9.2 8.7.5 17.4.8 26.2.3 8 2.8 19.1 12.2 20.7 4.6.8 9.5-.7 12.9-4 3.9-3.7 4.5-8.8 4.5-13.9 0-7.5-.1-15-.1-22.5-.3-44.9-.9-89.7-1.2-134.6-.3-43.7-.7-87.5.3-131.2.1-3.7.2-7.4.3-11 .3-7.2-11-7.2-11.2 0-1.4 38.9-1 77.9-.8 116.9.2 45.6.7 91.2 1.2 136.8.1 15.7.9 31.6.3 47.3-.1 2.3-1.6 6.7-4.6 5.1.1.1-1.3-2.8-1.6-3.6-1-2.5-.7-1.4-.8-3.6-.2-8.1-.6-16.3-.8-24.4-1.1-45.1-1.4-90.2-1.4-135.3 0-42.7.1-85.4 1.3-128.1.1-3.7.2-7.4.4-11 .3-7.4-11-7.4-11.3-.2z"/><path d="M279.4 367l-3.8 14.2 1.2 203.6c-.4 18.7 2.3 18.7 6.3 18.7 10 0 10.4-16.9 10.4-16.9-2.8-64.9-5.3-145.6-2.8-210.5l-11.3-9.1z"/><path d="M422.9 336.5c-15.7 6.1-30.6 15.3-43.5 26.1-4.9 4.2-8.7 9.8-12.7 14.8-14.3 18.3-28.5 37.2-46.1 52.6-7.4 6.5-17.1 14.2-27.1 15.1-7.8.7-7.9 13 0 12.3 22.1-2 40.1-21.5 54-37.1 7.9-8.8 15.2-18 22.5-27.3 5.1-6.5 9.9-13.4 15.6-19.4 4.2-4.4 9.7-7.8 14.7-11.2 8.1-5.6 16.6-10.5 25.8-14.1 7.4-2.8 4.2-14.7-3.2-11.8z"/><path d="M413.6 343.1c18.4-17.9 38.9-27.1 64.3-30.2 1-6.7 5.6-12.4 12-14.8s13.5-1.2 18.8 3.1l7.2 6.1c4 3.3 4.5 9.3 1.2 13.3l-6.1 7.2c-4.3 5.2-11.1 7.7-17.7 6.5-6.6-1.2-12.2-5.8-14.5-12.1-16.4 2.1-32.1 7.9-45.9 17 22.3-1.7 41.5 13.3 62.4 30.8 5.6-4 13-4.6 19.2-1.7 6.2 2.9 10.4 9 11 15.8l.7 9.4c.3 2.5-.5 5-2.1 7-1.6 1.9-4 3.2-6.5 3.4-9.4 1-16.3 2.8-23.6-3.3-7.1-5.6-9.1-15.5-5-23.5-25.3-21.2-44.5-35.9-69.1-24.9l-6.3-9.1z" stroke="#000" stroke-width=".277" stroke-miterlimit="10"/><path class="st2" d="M489.2 321.8c1.8 2.2 4.5 3.5 7.3 3.4 2.8 0 5.5-1.3 7.3-3.5 1.3-1.6 4-4.7 6.1-7.2l-7.2-6.1c-2.1-1.9-5-2.6-7.8-2.2-2.8.5-5.2 2.2-6.6 4.7-2.1 3.5-1.7 7.9.9 10.9zm7.3 63c-.3 2.9.7 5.8 2.8 7.9 2.1 2.1 4.9 3.1 7.8 2.9 2.1-.2 6.4-.8 9.7-1.1l-.9-9.5c-.2-2.9-1.8-5.5-4.2-7.2-2.4-1.7-5.4-2.2-8.2-1.4-3.7 1.1-6.5 4.4-7 8.4z"/><path class="st3" d="M555.6 80.9c5.3-2.6 8.8-7.9 9.1-13.8.4-5.9-2.5-11.5-7.4-14.8l-6.8-4.4c-1.8-1.2-4-1.7-6.2-1.2s-4 1.7-5.2 3.5c-4.6 6.7-8.8 11.1-7.1 19.2 1.4 7.6 8 13.2 15.7 13.3"/><path class="st2" d="M545 73.9c-2.3-1-4.1-2.9-4.8-5.3-.7-2.4-.3-5 1-7.1 1-1.5 3.2-4.5 4.8-6.9l6.8 4.5c2.1 1.4 3.5 3.6 3.7 6.1s-.6 5-2.3 6.8c-2.4 2.5-6.1 3.2-9.2 1.9z"/><path class="st3" d="M597.8 73.7c2.9 5.1 8.3 8.4 14.2 8.4 5.9 0 11.4-3.1 14.4-8.2l4-7c1.1-1.9 1.5-4.1.9-6.2-.5-2.1-1.9-3.9-3.8-5-6.9-4.2-11.6-8.2-19.5-6.1-7.6 1.8-12.8 8.6-12.5 16.4"/><path class="st2" d="M604.2 62.7c.8-2.4 2.7-4.2 5-5.1s5-.6 7.1.7c1.6.9 4.7 3 7.1 4.4l-4.2 7c-1.3 2.2-3.4 3.6-5.9 4s-5-.3-6.9-2c-2.4-2.1-3.3-5.8-2.2-9z"/><path d="M524.1 120.3c14.9-8 30.5-24.5 31.8-42.1.4-5.4-8.1-5.4-8.4 0-1 14.5-15.6 28.4-27.6 34.8-4.8 2.5-.6 9.8 4.2 7.3z"/><defs><ellipse id="SVGID_1_" cx="449" cy="370.9" rx="30.6" ry="29.1"/></defs><clipPath id="SVGID_2_"><use xlink:href="#SVGID_1_" overflow="visible"/></clipPath><g clip-path="url(#SVGID_2_)"><path d="M414.1 330.3l3.2-8.4c17 10.2 30.2 25.6 37.5 43.9 5.2-.5 10.4 1.8 13.4 6 3.1 4.3 3.6 9.8 1.3 14.5l-3.1 6.5c-1.7 3.6-6.1 5.2-9.7 3.5l-6.6-3.1c-4.7-2.2-7.9-6.7-8.4-11.9-.4-5.2 1.9-10.1 6.2-13.1-4.8-11.8-12.2-22.3-21.7-30.8l-12.1-7.1z" stroke="#000" stroke-width=".213" stroke-miterlimit="10"/><path class="st2" d="M450.4 375.8c-1.3 1.8-1.7 4-1.1 6.1s2.1 3.8 4.1 4.7c1.5.7 4.3 2 6.6 3.1l3.1-6.5c1-2 1-4.2.1-6.2s-2.7-3.4-4.8-4c-3.1-.8-6.3.3-8 2.8z"/></g><path d="M532.3 124.3c12.6-6.5 23.5-15.8 31.9-27.2 4.4-6 7.9-12 14.6-15.8 6.6-3.8 14.3-5.4 21.7-6.8 5.3-1 3.1-9.1-2.2-8.1-14.7 2.7-27.7 7.4-36.7 19.8-9.3 12.9-19.2 23.4-33.5 30.8-4.8 2.5-.6 9.8 4.2 7.3z"/><path d="M530.2 127.1c11.3.9 22.1-3.1 33.3-3.4 12.1-.3 22.6 6.7 33 11.9 4.8 2.4 9.1-4.8 4.3-7.3-10.7-5.4-21.5-12.4-33.8-13.1-12.4-.7-24.3 4.3-36.8 3.4-5.4-.3-5.4 8.1 0 8.5z"/><path d="M593.1 133.4c-1.1 4.4.1 8.6 3.9 11.9 3.4 3 8.1 3.9 12.4 2.4l5.9-2.1c3.3-1.1 5-4.7 3.8-8l-2.1-5.9c-1.5-4.2-5.1-7.3-9.5-8.1-5.7-1.1-10.6 1.7-13.2 6.8-.6 1-.9 2-1.2 3z" stroke="#000" stroke-width=".183" stroke-miterlimit="10"/><path class="st2" d="M602 130.4c1.6-.9 3.6-1.1 5.3-.4 1.8.7 3.1 2.1 3.7 3.9.5 1.3 1.4 3.9 2.1 5.9l-5.9 2.1c-1.8.7-3.7.5-5.3-.5-1.6-1-2.7-2.6-3-4.4-.4-2.7.8-5.3 3.1-6.6zM251.4 371.1c-3.4-.5-6.5-2.2-8.8-4.8-3 1.8-6.4 2.5-9.8 2l-7.9-1.1c-4.9-.7-9.2-4-11.5-8.7-2.3-4.7-2.3-10.5 0-15.3l4-9 3.9-9c.5-1.2 1-2.3 1.5-3.5 1.4-3.4 2.9-6.8 4.7-10.2.3-.6.6-1.1 1-1.7-1.3-2.9-2.1-6.1-2.4-9.4-1-9.6 3.1-16.5 6.3-20.8 5.2-7.1 11.3-10.7 18.6-10.9 2.5-.1 4.9.1 7.1.4 4.1.6 7.6 1.9 10.3 3.8 6.5 4.6 11.1 14.5 11 23.5-.1 7.7-2.7 14.9-7.2 19.8 0 .4.1.8.2 1 .7 4.1 1.2 8.1 1.7 12.1l.4 3.5 1.3 9.8 1.3 10.1c.7 5.3-1 10.7-4.5 14.5-3.5 3.8-8.5 5.7-13.4 5l-7.8-1.1z"/><path id="Shape_1_" d="M253.9 354.3c-2.6-6-2.7-7-4.5-8.5l1.8-12.3c.3-2.2-1.1-4.2-3.1-4.5-2-.3-3.9 1.2-4.3 3.5l-1.8 12.3c-2.2.9-2.7 2-6.8 6.8l-7.8-1.1 16.5-37c1.7-2.8 1.6-6.4-.2-9.1-2.7-3.9-2.9-9.2-.5-13.4 2.4-4.2 6.8-6.6 11.3-5.9 4.5.7 8.1 4.2 9.1 8.9s-.7 9.8-4.4 12.7c-2.2 1.8-3.3 4.8-2.9 7.7l5.2 41.3-7.6-1.4zm12.1-43.7c3.6-3.5 5.2-9.1 5.3-14.1.1-5.7-3-13-7.4-16.1-3.5-2.5-8.7-2.9-12.8-2.8-5.3.2-9 3-12.3 7.4-3.2 4.3-5.1 8.6-4.5 14.2.3 2.5 1 5.1 2 7.3.5 1.1.8 2.5.8 3.8-.1 2.1-1.5 3.7-2.4 5.4-2.2 4.2-4 8.7-5.9 13.1l-4 9-4 9.2c-1.1 2.3-1.1 5 0 7.3s3.1 3.8 5.5 4.2l7.8 1.1c2.5.4 4.9-.6 6.6-2.7l4-4.8 2.4 5.7c1 2.4 3.1 4.1 5.6 4.4l7.8 1.1c2.3.3 4.7-.5 6.4-2.4s2.5-4.4 2.2-6.9l-1.3-10.1-1.3-9.9c-.7-5.1-1.3-10.2-2.1-15.3-.2-1.3-.4-2.7-.3-4 0-1.3.8-3 1.9-4.1z"/><path class="st2" d="M404.9 213.4c-3.4-1-6.2-3.2-8.2-6.1-3.3 1.4-6.8 1.6-10.2.6l-7.8-2.3c-4.9-1.5-8.7-5.4-10.3-10.5-1.6-5.1-.7-10.9 2.2-15.5l5.4-8.5 5.3-8.5c.7-1.1 1.4-2.2 2-3.3 1.9-3.2 3.9-6.5 6.3-9.6l1.2-1.5c-.8-3.1-1.2-6.5-1.1-9.8.4-9.8 5.6-16.2 9.5-20.1 6.3-6.4 13-9.1 20.4-8.2 2.5.3 4.9.8 7.1 1.4 4 1.2 7.4 3 9.8 5.4 5.9 5.6 9.1 16.3 7.6 25.4-1.3 7.8-5 14.6-10.2 18.9v1c.1 4.2 0 8.4-.1 12.4l-.1 3.6-.1 10.1-.2 10.4c-.1 5.4-2.6 10.6-6.7 14-4.1 3.3-9.4 4.5-14.3 3l-7.5-2.3z"/><path id="Shape_2_" d="M409.9 196.9c-1.7-6.5-1.7-7.5-3.3-9.2l3.6-12.1c.7-2.2-.4-4.4-2.4-5-2-.6-4.2.7-4.8 2.8l-3.6 12.1c-2.3.6-3 1.6-7.8 5.9l-7.7-2.3 22.1-34.9c2.1-2.6 2.6-6.2 1.2-9.2-2.1-4.3-1.6-9.7 1.5-13.6 3-3.9 7.9-5.6 12.3-4.3s7.5 5.4 7.9 10.4c.3 4.9-2.1 9.7-6.3 12.2-2.5 1.5-4.1 4.3-4.1 7.4l-.9 42.4-7.7-2.6zm18.7-42.3c4.1-3 6.6-8.4 7.4-13.5.9-5.8-1.1-13.5-5.1-17.4-3.1-3-8.3-4.2-12.5-4.7-5.4-.6-9.6 1.7-13.5 5.7-3.8 3.9-6.4 8-6.7 13.7-.1 2.6.2 5.3 1 7.7.4 1.2.5 2.7.2 3.9-.4 2.1-2 3.5-3.2 5.1-2.9 3.9-5.3 8.2-7.9 12.3l-5.3 8.5-5.4 8.6c-1.4 2.2-1.8 4.9-1.1 7.4s2.6 4.3 4.9 5l7.7 2.3c2.4.7 5.1.1 7.1-1.7l4.7-4.2 1.6 6.1c.7 2.6 2.6 4.6 5 5.3l7.7 2.3c2.3.7 4.8.2 6.8-1.4 2-1.6 3.2-4.1 3.2-6.6l.2-10.3.1-10.1c.1-5.2.2-10.5.2-15.7 0-1.4 0-2.8.3-4.1.4-1.7 1.3-3.2 2.6-4.2z"/><path d="M381.7 294.3c17.7-15.2 35.6-30.1 53.9-44.5 1.8-1.4 2.2-5 .9-6.8-5-6.9-10-13.7-14.9-20.6-2.9-4-11.1-3.3-10.5 2.8-.4-3.7.8-1.9.3-1.7-.3.1-1.5 1.7-1.7 1.9-1.3 1.4-2.6 2.7-4 4-2.1 2-4.2 4-6.4 5.9-8.3 7.2-17.9 12.7-25.5 20.7-5 5.2 2.9 13.2 7.9 7.9 7.9-8.2 17.9-13.9 26.4-21.5 3-2.7 6-5.5 8.8-8.4 2.1-2.2 5.8-5.4 5.4-8.8-3.5.9-7 1.9-10.5 2.8 5 6.9 10 13.7 14.9 20.6.3-2.3.6-4.5.9-6.8-18.3 14.4-36.2 29.3-53.9 44.5-5.4 4.8 2.6 12.7 8 8zM289.8 522c26.8-27 41.2-66.4 77.4-83.5 7.4-3.5 20.2-8.6 24.1 1.9 3.3 9-2.7 17.1-9.4 22.5-9.2 7.5-20.4 13.1-30.5 19.2-11.1 6.7-22.1 13.4-33.2 20.1-10.4 6.3-20.4 12.3-27.8 22.1-5.9 7.7-13 18.4-9.1 28.5 2.6 6.7 13.5 3.8 10.8-3-1.8-4.5.7-8.9 3.1-12.8 2.8-4.6 6.1-9.1 10.2-12.7 9.5-8.6 22-14.5 33-21.2 11.9-7.2 23.8-14.4 35.8-21.7 9.3-5.6 18.9-11.4 24.9-20.8 5-7.8 5.9-18 2-26.4-4.8-10.2-15.5-13-25.9-10.6-21.2 4.9-39.5 21.3-52.8 37.7-14 17-24.8 36.9-40.4 52.5-5.3 5.3 2.7 13.3 7.8 8.2zm-26.9 82.6c-.2-9.1-2.2-17.9-2.9-27-.9-10.9-2.3-21.9-3.9-32.7-1.5-10.3-2.6-21.3-6.8-30.9-3.9-9-11.2-15.7-19.2-21-8-5.3-17.7-11.6-27.2-13.4-9-1.7-19.6 1.7-22.7 11.2-3.1 9.6 2.1 18.9 9.7 24.6 8.8 6.6 19.8 8.9 29.5 13.8 8.5 4.3 14.3 11.7 19 19.9 4.8 8.2 9 17.6 9.8 27.1.6 7.1 11.9 7.2 11.2 0-1.3-14.9-8.3-29.7-17.3-41.6-4.5-5.9-9.7-11.2-16.4-14.6-8.6-4.5-18.2-6.7-26.5-11.7-3.4-2-7-4.7-8.3-8.6-1.5-4.6.7-8.5 5.5-9.2 8-1.2 17.5 5.9 24 9.8 7.2 4.3 14.3 9.6 18.1 17.3 4.2 8.4 4.9 18.8 6.3 27.9 1.6 10.7 3 21.5 3.9 32.3.7 9 2.7 17.9 2.9 27 .2 7 11.5 7 11.3-.2z"/></svg>