<svg xmlns="http://www.w3.org/2000/svg" viewBox="0 0 454.469 454.469"><path d="M57.118 240.927a6.5 6.5 0 014.806-5.963c6.311-1.695 11.636-7.38 18.378-14.577 5.767-6.155 12.302-13.132 21.328-19.721a6.501 6.501 0 017.666 10.5c-8.039 5.869-14.131 12.372-19.506 18.109-4.485 4.788-8.62 9.201-13.191 12.599 3.283 2.964 6.121 6.396 8.802 9.798a6.499 6.499 0 01-5.101 10.524 6.488 6.488 0 01-5.109-2.477c-5.094-6.464-8.996-10.564-13.865-12.392a6.5 6.5 0 01-4.208-6.4zm346.258 123.825a6.5 6.5 0 01-7.566 1.186c-7.437-3.821-17.07-3.04-29.262-2.049-20.719 1.683-49.088 3.984-85.505-16.163-15.914-8.803-28.038-20.338-35.541-33.714-4.418 4.842-7.882 9.759-10.067 15.199 13.661 25.741 32.2 37.107 47.185 46.294 6.134 3.76 11.781 7.223 16.379 11.215 2.746-4.973 6.548-9.656 10.672-14.734l.453-.558a6.502 6.502 0 0110.094 8.194l-.455.56c-6.218 7.657-11.13 13.706-11.954 20.189a6.498 6.498 0 01-5.257 5.57 6.504 6.504 0 01-6.911-3.302c-3.149-5.834-10.504-10.343-19.814-16.051-12.062-7.395-27.489-16.854-40.965-34.303v95.685a6.5 6.5 0 11-13 0v-74.994c-8.589 12.187-21.066 23.161-36.508 31.704-40.028 22.144-71.235 19.612-94.022 17.762-13.571-1.102-24.289-1.972-32.671 2.335a6.5 6.5 0 01-8.752-8.752c4.306-8.381 3.437-19.101 2.335-32.671-1.849-22.787-4.381-53.995 17.763-94.022 13.642-24.66 33.481-41.143 55.863-46.414a6.5 6.5 0 112.98 12.654c-18.766 4.419-35.624 18.644-47.468 40.053-20.244 36.594-17.991 64.364-16.181 86.678.792 9.767 1.514 18.668.271 26.91 8.244-1.244 17.144-.52 26.91.272 22.313 1.811 50.083 4.065 86.678-16.18 24.94-13.796 40.919-34.285 42.801-54.854v-7.714c-4.513-12.848-16.064-22.665-30.599-35.017-24.197-20.565-57.337-48.73-74.867-109.677-16.172-56.215.015-107.314 41.237-130.182 17.979-9.972 34.591-13.126 52.875-9.87l.503-27.071-.026-1.454a17.029 17.029 0 014.906-12.333 17.022 17.022 0 0112.343-5.13l.106.001.146-.001c4.697-.067 9.074 1.797 12.347 5.131 3.25 3.31 4.992 7.691 4.906 12.337l-.027 1.452.504 27.068c18.281-3.257 34.896-.103 52.874 9.869 41.224 22.868 57.411 73.968 41.24 130.182-17.532 60.947-50.672 89.111-74.869 109.676-3.617 3.074-7.05 5.991-10.235 8.837 6.075 12.559 17.092 23.487 32.111 31.795 32.981 18.247 58.03 16.216 78.16 14.581 8.566-.696 16.403-1.332 23.7-.359-.973-7.296-.336-15.133.359-23.702 1.635-20.128 3.668-45.179-14.577-78.161-7.586-13.714-17.61-24.31-28.99-30.642a6.5 6.5 0 01-2.519-8.84 6.501 6.501 0 018.841-2.519c13.507 7.516 25.278 19.864 34.043 35.708 20.145 36.416 17.842 64.789 16.16 85.506-.99 12.195-1.772 21.828 2.048 29.264a6.497 6.497 0 01-1.185 7.566zM221.66 145.404c-.019 1.023.191 2.204 1.893 3.2 2.651 1.553 6.963 1.553 9.616 0 1.702-.997 1.912-2.177 1.893-3.2l-1.695-91.148-.002-.12-.653-35.093a9.76 9.76 0 010-.242l.029-1.572a4.121 4.121 0 00-1.185-2.989 4.123 4.123 0 00-2.922-1.239l-.117.002-.105.001-.205-.001-.118-.002a4.117 4.117 0 00-2.921 1.239 4.126 4.126 0 00-1.185 2.99l.028 1.577v.236l-.651 34.994c0 .106-.001.212-.006.318l-1.694 91.049zm35.381 140.408c24.213-20.578 54.348-46.188 70.794-103.364 14.435-50.174.676-95.4-35.053-115.22-16.026-8.889-30.146-11.394-46.322-8.047l1.6 85.981c.114 6.152-2.919 11.496-8.321 14.66-6.698 3.923-16.056 3.923-22.754 0-5.403-3.164-8.436-8.507-8.322-14.66l1.599-85.982c-4.567-.945-8.97-1.424-13.298-1.424-11.002 0-21.522 3.091-33.025 9.471-35.726 19.818-49.484 65.045-35.05 115.22 16.446 57.176 46.58 82.786 70.793 103.365 11.47 9.748 21.805 18.532 28.68 29.05 3.876-5.93 8.851-11.308 14.51-16.619.065-.064.133-.127.202-.189 4.322-4.045 9.041-8.055 13.967-12.242zm-49.827-99.796a4.002 4.002 0 00-5.242 2.127l-17.122 40.509a4 4 0 107.369 3.114l17.122-40.509a4 4 0 00-2.127-5.241zm-19.157-47.268a4 4 0 00-5.58-.931c-18.516 13.219-28.008 35.333-24.773 57.713a4 4 0 107.918-1.145c-2.805-19.405 5.435-38.585 21.503-50.058a3.998 3.998 0 00.932-5.579zm40.304 53.432a4 4 0 00-4 4v74.022a4 4 0 008 0V196.18a4 4 0 00-4-4zM193.766 91.104a4 4 0 003.441-4.49 4.005 4.005 0 00-4.49-3.441c-29.844 3.947-52.35 29.621-52.35 59.721a4 4 0 008 0c.001-26.102 19.518-48.367 45.399-51.79zm134.715 145.574a4 4 0 00-1.025 7.933c8.718 1.126 16.596 4.992 22.782 11.177.781.781 1.805 1.171 2.828 1.171s2.048-.391 2.829-1.172a4 4 0 00-.001-5.657c-7.448-7.445-16.928-12.097-27.413-13.452zM171.205 371.347a4 4 0 005.657 0c9.783-9.783 15.17-22.839 15.17-36.765 0-13.918-5.383-26.97-15.157-36.751a.179.179 0 01-.013-.014l-.014-.014c-20.274-20.254-53.249-20.25-73.515.014a3.999 3.999 0 000 5.657 3.999 3.999 0 005.657 0c16.199-16.196 41.992-17.097 59.259-2.701l-35.071 35.072c-6.089-4.832-13.602-7.455-21.536-7.455-9.289 0-17.999 3.595-24.526 10.122a4 4 0 005.657 5.657c5.016-5.016 11.717-7.778 18.869-7.778 5.791 0 11.286 1.811 15.83 5.162L88.63 380.395a4 4 0 005.657 5.657l38.84-38.842c7.697 10.437 6.825 25.255-2.617 34.698a4 4 0 105.657 5.656c12.564-12.566 13.453-32.457 2.666-46.061l35.072-35.073c6.557 7.863 10.126 17.717 10.126 28.152 0 11.789-4.555 22.836-12.827 31.108a4.001 4.001 0 00.001 5.657zm103.04-233.53a4 4 0 10-4.648 6.511c16.068 11.472 24.308 30.653 21.504 50.058a4 4 0 007.918 1.145c3.233-22.382-6.259-44.496-24.774-57.714zm5.362 154.671a4 4 0 00-2.68 4.981 47.374 47.374 0 0011.832 19.796c.78.781 1.805 1.172 2.828 1.172s2.047-.391 2.828-1.171a3.999 3.999 0 000-5.657 39.347 39.347 0 01-9.826-16.442 4 4 0 00-4.982-2.679zm85.319.161a4 4 0 105.656-5.657c-11.438-11.438-29.497-12.321-41.958-2.652l-16.371-16.371a4 4 0 10-5.656 5.657l16.37 16.371c-9.669 12.46-8.786 30.518 2.65 41.958.781.781 1.806 1.172 2.829 1.172s2.047-.39 2.828-1.171a4 4 0 00.001-5.657c-8.313-8.315-9.176-21.301-2.591-30.584l34.87 34.87a4 4 0 105.656-5.657l-34.869-34.87c9.284-6.587 22.271-5.722 30.585 2.591zm-96.736-58.438a4.001 4.001 0 003.683-5.558l-17.122-40.509a4.001 4.001 0 00-7.369 3.115l17.122 40.509a4 4 0 003.686 2.443zm-5.233-143.107c25.881 3.423 45.398 25.688 45.398 51.791a4 4 0 008 0c0-30.1-22.506-55.774-52.35-59.721a4 4 0 00-1.048 7.93z"/></svg>