<svg height="512" width="512" xmlns="http://www.w3.org/2000/svg"><path d="M327.438 166.464c-12.196-11.787-26.176-21.44-41.438-28.775V60h-30V30h101.459l56.833 28.417 13.416-26.833L364.541 0H121v30h45v30h-30v77.688c-15.262 7.336-29.242 16.989-41.438 28.775C63.246 196.728 46 239.18 46 286c0 90.788 29.198 209.596 30.441 214.61L79.265 512h263.471l2.824-11.39C346.802 495.596 376 376.788 376 286c0-46.82-17.246-89.272-48.562-119.536zM196 30h30v30h-30zm-30 60h90v36.702c-14.38-3.758-29.485-5.702-45-5.702s-30.62 1.945-45 5.702zm153.113 392H102.887C95.611 450.042 76 357.287 76 286c0-78.224 56.776-135 135-135s135 56.776 135 135c0 71.287-19.611 164.042-26.887 196z"/><path d="M226 271h-30v30h-30v30h30v30h30v-30h30v-30h-30z"/><path d="M211 211c-57.897 0-105 47.103-105 105s47.103 105 105 105 105-47.103 105-105-47.103-105-105-105zm0 180c-41.355 0-75-33.645-75-75s33.645-75 75-75 75 33.645 75 75-33.645 75-75 75zm237.975-268.74c-9.588-16.527-17.133-26.944-27.975-42.653-10.842 15.709-18.387 26.125-27.975 42.653C377.765 148.566 376 159.822 376 166c0 24.813 20.187 45 45 45s45-20.187 45-45c0-6.178-1.765-17.434-17.025-43.74zM421 181c-8.267 0-14.994-6.723-15-14.988.128-4.591 6.366-17.659 15.003-32.211 8.637 14.548 14.874 27.615 14.997 32.2 0 8.27-6.729 14.999-15 14.999z"/></svg>