<svg height="512pt" viewBox="-66 0 512 512.001" width="512pt" xmlns="http://www.w3.org/2000/svg"><path d="M190 59.996c5.523 0 10-4.48 10-10s-4.477-10-10-10c-5.52 0-10 4.48-10 10s4.48 10 10 10zm0 0"/><path d="M4 250c39.133 29.348 45.313 71.574 48.21 112.36C52.364 459.311 118.626 512 190 512c71.613 0 130.523-46.996 137.77-149.293 2.886-40.894 8.992-83.277 48.234-112.707a9.996 9.996 0 00-.004-16c-22.543-16.906-44.687-25.965-65.996-27.031V84.996c0-24.812-20.188-45-45-45a44.748 44.748 0 00-25.188 7.727C237.891 24.153 220.703 4.32 198.328.676c-30.125-4.899-56.879 17.422-58.262 46.969A44.754 44.754 0 00115 39.996c-24.812 0-45 20.188-45 45v122.016c-21.324 1.054-43.477 10.097-66 26.984-2.516 1.89-4 4.856-4 8 0 3.149 1.484 6.113 4 8.004zM265.004 59.996c13.785 0 25 11.215 25 25v123.36c-21.527 4.156-38.188 16.32-50 29.48V84.996c0-13.785 11.215-25 25-25zm-150.004 0c13.785 0 25 11.215 25 25V237.86c-11.813-13.144-28.473-25.3-50-29.453V84.996c0-13.785 11.215-25 25-25zM79.21 227.098h.005c32.39 2.554 54.496 30.394 61.453 48.488A9.998 9.998 0 00160 272V49.996c0-17.957 15.95-32.7 35.113-29.578C209.305 22.727 220 36.363 220 52.137V272c0 4.816 3.441 8.953 8.18 9.832a9.998 9.998 0 0011.156-6.246c4.816-12.535 25.246-45.691 61.453-48.54 16.492-1.304 34.176 3.974 52.707 15.688-36.613 33.762-42.855 78.606-45.68 118.559C301.371 452.289 251.844 492 190 492c-40.738 0-117.79-27.172-117.79-130 0-.234-.007-.473-.023-.707-2.824-39.953-9.066-84.793-45.675-118.559 18.508-11.687 36.187-16.945 52.699-15.636zm0 0"/><path d="M190 392c16.543 0 30-13.457 30-30s-13.457-30-30-30c-16.54 0-30 13.457-30 30s13.46 30 30 30zm0-40c5.516 0 10 4.484 10 10 0 5.512-4.484 10-10 10-5.512 0-10-4.488-10-10 0-5.516 4.488-10 10-10zm0 0"/><path d="M190 432c54.418 0 96.54-61.793 98.305-64.426a9.993 9.993 0 000-11.148C286.539 353.793 244.418 292 190 292c-54.414 0-96.535 61.793-98.3 64.426a9.993 9.993 0 000 11.148C93.464 370.207 135.585 432 190 432zm0-120c35.324 0 66.656 35.918 77.59 50.008C256.684 376.105 225.437 412 190 412c-35.324 0-66.66-35.926-77.586-50.008C123.32 347.891 154.566 312 190 312zm0-140c5.523 0 10-4.48 10-10V89.996c0-5.52-4.477-10-10-10-5.52 0-10 4.48-10 10V162c0 5.52 4.48 10 10 10zm0 0"/></svg>