<svg height="512" width="512" xmlns="http://www.w3.org/2000/svg" data-name="Layer 1"><path d="M415.41 313.431a45.078 45.078 0 10-81.018-39.552L293.718 357.2a45.078 45.078 0 0020.733 60.285 45.09 45.09 0 0060.285-20.735zm-70.235-34.287a33.079 33.079 0 1159.452 29.023l-17.7 36.268-59.457-29.023zm18.778 112.342a33.118 33.118 0 01-44.238 15.214 33.079 33.079 0 01-15.215-44.237l17.706-36.263 59.452 29.023z"/><path d="M366.674 267.7a33.418 33.418 0 00-19.29 17.053l-7.457 15.276a6 6 0 1010.783 5.271l7.457-15.275a21.5 21.5 0 0112.409-10.971 6 6 0 10-3.9-11.347zm109.497 42.73a45.079 45.079 0 00-60.285 20.735l-40.675 83.319a45.079 45.079 0 0081.019 39.552l40.674-83.32a45.079 45.079 0 00-20.733-60.286zm-30.724 138.341a33.079 33.079 0 01-59.453-29.023l17.7-36.268 59.458 29.02zm40.674-83.319l-17.7 36.268-59.457-29.02 17.7-36.268a33.079 33.079 0 1159.452 29.023z"/><path d="M448.168 324.986a33.413 33.413 0 00-19.29 17.055l-7.457 15.274a6 6 0 1010.779 5.265l7.458-15.276a21.493 21.493 0 0112.408-10.97 6 6 0 10-3.9-11.348zm-223.25-190.543a24.84 24.84 0 0022.092-24.655V51.315a24.834 24.834 0 00-24.81-24.806H51.5a24.834 24.834 0 00-24.8 24.806v58.473a24.834 24.834 0 0024.8 24.806h3.529a113 113 0 00-15.209 11.385c-18.127 16.123-28.807 35.9-29.3 54.25v251.962c0 16.5 16.3 33.3 32.292 33.3h192.13c7.854 0 15.2-3.99 20.7-11.234a37.317 37.317 0 007.55-22.069v-251.8c-.003-25.578-17.792-51.422-38.274-65.945zM213.64 38.509h8.56a12.82 12.82 0 0112.81 12.806v58.473a12.82 12.82 0 01-12.81 12.806h-8.56zm-35.394 0h23.394v84.085h-23.394zm-36.4 0h24.4v84.085h-24.4zm-34.382 0h22.382v84.085H107.46zm-36.4 0h24.4v84.085h-24.4zM51.5 122.594a12.82 12.82 0 01-12.8-12.806V51.315a12.82 12.82 0 0112.8-12.806h7.554v84.085zm199.689 269.774H84.528V238.526h166.661zm0-165.842H78.528a6 6 0 00-6 6v165.842a6 6 0 006 6h172.661v47.82c0 9.648-7.247 21.3-16.247 21.3H42.809c-9.293 0-20.292-11.548-20.292-21.3V200.476c.436-15.035 9.646-31.625 25.28-45.531 13.685-12.173 30.419-20.351 41.64-20.351h104.14c21.159 0 57.612 32.513 57.612 65.8z"/><path d="M118.28 338.638h30.405v30.4a8.03 8.03 0 008.022 8.022h25.281a8.031 8.031 0 008.023-8.022v-30.4h30.4a8.032 8.032 0 008.023-8.023v-25.281a8.032 8.032 0 00-8.023-8.022h-30.4v-30.4a8.032 8.032 0 00-8.023-8.023h-25.281a8.031 8.031 0 00-8.022 8.023v30.4h-30.4a8.031 8.031 0 00-8.022 8.022v25.281a8.031 8.031 0 008.017 8.023zm3.978-29.326h30.4a8.032 8.032 0 008.023-8.022v-30.405h17.326v30.405a8.031 8.031 0 008.022 8.022h30.405v17.326h-30.4a8.03 8.03 0 00-8.022 8.022v30.4h-17.327v-30.4a8.031 8.031 0 00-8.023-8.022h-30.4zm-75.653-59.249a6 6 0 00-6 6v144.348a6 6 0 0012 0V256.063a6 6 0 00-6-6zM46 242.252a6 6 0 006-6v-4.289a6 6 0 10-12 0v4.289a6 6 0 006 6z"/></svg>