<svg version="1.1" id="Layer_1" xmlns="http://www.w3.org/2000/svg" x="0" y="0" viewBox="0 0 130 130" xml:space="preserve"><style>.st0,.st1{fill:none;stroke:gray;stroke-width:3;stroke-miterlimit:10}.st1{stroke-width:2}</style><path class="st0" d="M54.5 81.5c-2.97-.82-7.31-2.39-11.84-5.5-9.47-6.51-13.54-15.53-15.14-20-1-2.8-4.82-14.45 0-28 1.31-3.68 4.91-13.34 15.14-20 8.57-5.58 17.08-5.99 20.18-6 3.01-.01 13.89.33 23.21 8 6.55 5.39 9.13 11.85 10.43 15.17 5.17 13.11 2.01 24.82 1.01 28.33-2.85 10-8.35 16.23-10 18-4.4 4.72-8.61 7.01-9.52 7.5-5.07 2.69-9.46 3.36-10.48 3.5-5.73.8-10.4-.22-12.99-1zm5.31 2.5c-1.01 2.67-2.02 5.33-3.03 8h11.1c-1.01-2.67-2.02-5.33-3.03-8h-5.04zm3.03 9c-.58 3.68-1.33 11.5 2.75 14.41 1.3.93 3.35 1.44 7.46 2.46 2.91.73 4 .75 6.45 1.62 1.27.45 3.15 1.11 5.2 2.41 1.5.95 5.3 3.36 7.3 8.16 1.13 2.71 1.31 5.28 1.2 7.24"/><path class="st0" d="M40.5 27h42v31.5h-42z"/><path class="st1" d="M44.76 53.39l11.06-9.36 4.01 3.55 3.66 3.26m-4.26-4.26l5.96-6.81 8.51 6.81"/><circle class="st1" cx="50.72" cy="38.07" r="3.41"/></svg>