<svg xmlns="http://www.w3.org/2000/svg" viewBox="0 0 60.4 72.5"><path d="M42.6 24.8c1.1 1.1 1.7 1.9 2.3 2.8l6-6c-.4-.6-.7-.9-1.1-1.4h1.1l1.9-1.9v-2.1h-7.3c-1.8-1.3-3.3-2.1-5-2.8l-2 1.6c-3.1-1.2-5.5-1.3-6.8-1.5v6.3l.7.1c3.9.4 7.5 2.2 10.2 4.9zm2.5.5c-.3-.3-.5-.7-.8-1l3.8-3.8c.3.3.6.6.9 1l-3.9 3.8zm-6.3-8.7l1.9-1.5c1.6.8 2.9 1.6 4.2 2.6h6.2l-.9.9h-3.6l.4.7-3.9 3.9c-2.7-2.5-6.2-4.2-9.9-4.8v-.9c1.4.2 2.7.6 4 1l.5-1.4c-1.5-.5-3-.9-4.5-1.2v-.8c2.2.3 3.8.8 5.6 1.5z"/><path d="M51.8 22.7l-1.3.8c2.7 4 4.1 8.7 4.1 13.6 0 1.9-.2 3.7-.6 5.5-2.1 1.8-4.6 3.2-7.3 3.9.9-1.5 1.5-3.2 1.9-4.9 1.3-.8 2.4-1.7 3.4-2.8l-1.1-1c-.6.7-1.2 1.2-1.9 1.8.1-.8.1-1.6.1-2.4 0-1-.1-2-.2-2.9.8-1.1 1.5-2.3 2-3.6l-1.3-.7c-.3.7-.7 1.5-1.1 2.1-.4-1.5-1-3-1.8-4.4l-1.3.8c1.5 2.6 2.3 5.6 2.3 8.6 0 9.7-7.9 17.5-17.5 17.5s-17.5-7.9-17.5-17.5c0-3 .8-6 2.3-8.6l-1.3-.8c-.9 1.6-1.6 3.3-2 5-2.3 1.5-4.3 3.4-5.9 5.8-.1-2.3 0-4.7.6-7.1.5-.4.9-.8 1.4-1.1 2.2-1.6 4.8-2.7 7.5-3.1l.2.2c.6-.8 1.2-1.7 2.3-2.8 2.7-2.8 6.4-4.5 10.2-5l.7-.1v-6.3c-1.2.1-3.6.3-6.8 1.5l-2-1.6c-1.6.7-3.1 1.5-5 2.8H7.6V18l1.9 1.9h1.1c-.4.5-.7.8-1.1 1.4l4.5 4.5c-2.5.5-4.8 1.5-6.9 3 .7-1.9 1.6-3.8 2.8-5.5l-1.3-.8C5.8 27 4.2 32 4.2 37.2c0 14.4 11.6 26 26 26s26-11.6 26-26c0-5.2-1.6-10.2-4.4-14.5zm-42.6-5h6.2c1.3-1 2.6-1.8 4.2-2.6l1.9 1.5c1.8-.7 3.4-1.2 5.5-1.5v.8c-1.5.2-3.1.6-4.5 1.2l.5 1.4c1.3-.5 2.6-.8 4-1v.9c-3.7.6-7.1 2.3-9.9 4.8l-3.8-3.8.8-.8h-4l-.9-.9zm3.2 2.8l3.8 3.8c-.3.3-.6.6-.8 1l-3.8-3.8c.2-.4.5-.7.8-1zm33.2 27.9c2.8-.5 5.4-1.7 7.8-3.3-.8 2.3-1.9 4.4-3.2 6.3-2.8.9-5.6 1.2-8.2.8 1.3-1.1 2.5-2.4 3.6-3.8zM33.2 56c2.3 1.6 4.9 2.7 7.6 3.2-2.1 1-4.3 1.7-6.6 2.1-2.5-1.3-4.6-3.1-6.2-5.2 1.7.2 3.4.2 5.2-.1zM19 52.5c.5 2.8 1.7 5.4 3.3 7.8-2.3-.8-4.4-1.9-6.3-3.3-.9-2.8-1.2-5.6-.8-8.2 1 1.4 2.3 2.7 3.8 3.7zm-7.7-17.6c-.2 1.7-.2 3.5.1 5.2-1.6 2.2-2.7 4.8-3.2 7.6-1-2-1.7-4.2-2.1-6.6 1.3-2.5 3-4.6 5.2-6.2zM9.4 50c.2-2.8 1.1-5.5 2.4-7.8.5 1.7 1.2 3.4 2.1 4.9-.6 2.7-.6 5.5 0 8.3-1.7-1.6-3.3-3.4-4.5-5.4zm15.3 11c-1.7-2.1-3.2-4.6-3.9-7.3 1.6.9 3.3 1.6 5.1 2 1.5 2.3 3.4 4.3 5.8 5.9-2.3.1-4.6-.1-7-.6zM43 58c-2.7-.3-5.3-1.1-7.6-2.5 1.7-.5 3.3-1.2 4.8-2.1 2.5.6 5.4.7 8.3 0-1.6 1.8-3.5 3.3-5.5 4.6z"/><path d="M53.8 40.9l-1.5-.2c.2-1.1.3-2.3.3-3.5 0-2.7-.5-5.3-1.4-7.8l1.4-.5c1 2.6 1.5 5.4 1.5 8.3 0 1.2-.1 2.5-.3 3.7zm-2.9-12.4c-.2-.4-.4-.9-.6-1.3l1.4-.7c.2.5.5.9.7 1.4l-1.5.6zm-1.1-2.2c-.2-.4-.5-.8-.8-1.3l1.3-.8c.3.4.6.9.8 1.3l-1.3.8zm-7.2-4.9c-1.1-.9-2.3-1.6-3.6-2.2l.7-1.4c1.4.7 2.6 1.5 3.8 2.4l-.9 1.2z"/></svg>