<svg height="512" viewBox="0 0 64 64" width="512" xmlns="http://www.w3.org/2000/svg"><path d="M23 45h4v2h-4zm14 0h4v2h-4z"/><path d="M38.512 23.161C39.321 24.834 41.021 26 43 26c.483 0 .967-.074 1.434-.218A4.007 4.007 0 0048 28c1.45 0 2.77-.802 3.468-2.033.179.022.355.033.532.033 2.757 0 5-2.243 5-5 0-.932-.26-1.824-.756-2.615A7.991 7.991 0 0057 15c0-4.411-3.589-8-8-8a7.952 7.952 0 00-5.103 1.852C43.347 5.537 40.467 3 37 3a6.92 6.92 0 00-3.404.888A8.904 8.904 0 0027 1c-4.769 0-8.684 3.729-8.981 8.423A4.989 4.989 0 0015 14c0 .141.027.274.039.412a5.037 5.037 0 00-2.95 3.657A6.009 6.009 0 007 24c0 3.309 2.691 6 6 6 .988 0 1.947-.246 2.816-.718a5.914 5.914 0 003.297 1.646 15.402 15.402 0 01-3.674 6.209l-4.057.987L9.465 41H9c-1.103 0-2 .897-2 2v.566c0 6.065 2.983 11.614 8 14.968V61c0 1.103.897 2 2 2h30c1.103 0 2-.897 2-2v-2.466c5.017-3.354 8-8.903 8-14.968V43c0-1.103-.897-2-2-2h-.586l-2.942-2.943-6.973-.995a9.262 9.262 0 01-2.227-4.098 3.175 3.175 0 00-2.344-2.323l-1.38-.333a5.903 5.903 0 01-4.333-4.261l.185-.247a7.033 7.033 0 014.112-2.639zM34 23.299V21.31a7.007 7.007 0 001.948-1.367c.605.475 1.31.79 2.059.944-.001.038-.007.075-.007.113 0 .077.019.149.023.225A9.05 9.05 0 0034 23.299zM49 9c3.309 0 6 2.691 6 6a5.987 5.987 0 01-.794 2.973l-.343.6.439.533c.319.386.698 1.028.698 1.894 0 1.654-1.346 3-3 3-.253 0-.521-.044-.845-.14l-.969-.286-.276.971A2 2 0 0148 26a2.002 2.002 0 01-1.967-1.718l-.211-1.492-1.293.774A2.949 2.949 0 0143 24c-1.654 0-3-1.346-3-3 0-.035.012-.069.013-.104A5.008 5.008 0 0044 16a4.95 4.95 0 00-.817-2.715c.083-.157.149-.321.22-.483l.01.004A5.97 5.97 0 0149 9zm-29.744 2.107l.768-.197L20 10c0-3.86 3.141-7 7-7a6.941 6.941 0 015.597 2.811l.601.802.801-.603A4.947 4.947 0 0137 5c2.757 0 5 2.243 5 5a4.965 4.965 0 01-.853 2.792l-.435.644.517.581c.352.394.771 1.058.771 1.983 0 1.654-1.346 3-3 3a2.977 2.977 0 01-2.335-1.145l-.826-1.037-.771 1.079A5.01 5.01 0 0131 20a4.998 4.998 0 01-3.271-1.225l-.774-.672-.652.791A2.985 2.985 0 0124 20a2.993 2.993 0 01-2.895-2.261l-.198-.777-.803.025c-.058.002-.116.008-.104.013-1.654 0-3-1.346-3-3 0-1.361.928-2.551 2.256-2.893zm-2.452 16.27l-.603-.807-.803.607c-.71.539-1.54.823-2.398.823-2.206 0-4-1.794-4-4s1.794-4 4-4h1v-1c0-1.127.647-2.136 1.61-2.646.757 1.406 2.152 2.419 3.806 2.612A4.984 4.984 0 0024 22c.694 0 1.363-.162 1.984-.437a4.891 4.891 0 01-2.022 3.757 10.362 10.362 0 00-5.218-3.165l-.502-.125-.484 1.94.502.125a8.346 8.346 0 013.961 2.296 7.93 7.93 0 00-2.328 2.605 4.031 4.031 0 01-3.089-1.619zM9 43h6v6H9.947a16.003 16.003 0 01-.573-2H13v-2H9.071A16.216 16.216 0 019 43.566zm36 6v-6h2v6zm-2 0h-8v-6h8zm-10 0h-2v-6h2zm-4 0h-8v-6h8zm-10 0h-2v-6h2zm-2 12v-2h30l.001 2zm30.696-4H16.304a15.971 15.971 0 01-5.481-6h42.354a15.963 15.963 0 01-5.481 6zM55 43.566c0 .483-.029.96-.071 1.434H51v2h3.626c-.148.682-.34 1.349-.573 2H49v-6h6zM51.586 41H11.868l.749-1.124 3.51-.877a8.186 8.186 0 005.701-2.413l.466-.465c.234-.237.706-.044.706.293V39h1.214a4.366 4.366 0 003.618-1.945c.415-.622 1.107-1 1.856-1.013l.528-.009h.042c.77 0 1.48.38 1.909 1.023a4.36 4.36 0 003.633 1.945H37v-2.586c0-.337.468-.532.707-.293l.465.465a8.19 8.19 0 005.751 2.414l6.605.943zm-13.507-8.748l1.38.333c.432.104.766.435.886.917a11.184 11.184 0 001.272 3.028 6.24 6.24 0 01-2.031-1.358l-.464-.464A2.428 2.428 0 0037.414 34 2.417 2.417 0 0035 36.414v.446a2.362 2.362 0 01-1.168-.915c-.816-1.224-2.177-1.932-3.679-1.913l-.502.009a4.276 4.276 0 00-3.483 1.904 2.367 2.367 0 01-1.168.914v-.445A2.417 2.417 0 0022.586 34c-.637 0-1.259.258-1.707.707l-.465.465a6.22 6.22 0 01-1.792 1.246 17.397 17.397 0 002.506-5.223 5.92 5.92 0 013.036-3.659A6.901 6.901 0 0028 21.329v-.013A6.962 6.962 0 0031 22c.337 0 .67-.033 1-.081v2.616c0 3.681 2.5 6.855 6.079 7.717z"/></svg>