<svg xmlns="http://www.w3.org/2000/svg" viewBox="0 0 67.9 217"><path d="M49.6 42.2V25.7c0-5-4-9-9-9H29.3c-5 0-9 4-9 9v16.5c-4.4 2.7-6.9 12.5-6.9 16v146.4h43.1V58.2c0-3.4-2.5-13.2-6.9-16zM29.3 19.4h11.3c3.5 0 6.3 2.8 6.3 6.3v15.8h-24V25.7c0-3.5 2.9-6.3 6.4-6.3zm24 182H16.6v-134h36.7v134zm0-137.2H16.6v-6c0-4.2 3.4-13.5 6-13.5h24.7c2.6 0 6 9.3 6 13.5v6z"/><path d="M34.9 38.3c3.8 0 7-3.1 7-7s-3.1-7-7-7c-3.8 0-7 3.1-7 7s3.2 7 7 7zm0-11.8c2.7 0 4.8 2.2 4.8 4.8s-2.2 4.8-4.8 4.8-4.8-2.2-4.8-4.8 2.2-4.8 4.8-4.8z"/><path d="M34.9 33.3c1.1 0 1.9-.9 1.9-1.9 0-1.1-.9-1.9-1.9-1.9s-1.9.8-1.9 1.8c0 1.1.9 2 1.9 2zm0-2.8c.5 0 .9.4.9.9s-.4.9-.9.9-.9-.5-.9-1c0-.4.4-.8.9-.8zm0 111.4c8.2 0 14.7-11.5 14.7-26.2s-6.4-26.2-14.7-26.2-14.7 11.5-14.7 26.2 6.5 26.2 14.7 26.2zm0-49.8c6.5 0 12 10.8 12 23.6s-5.5 23.6-12 23.6-12-10.8-12-23.6 5.5-23.6 12-23.6zM19.4 194.3h28.8v2.1H19.4z"/></svg>