<svg xmlns="http://www.w3.org/2000/svg" viewBox="0 0 71.9 72.5"><path d="M32.5 63.7c-.2 0-.4-.2-.4-.4V53.2c0-.2.2-.4.4-.4s.4.2.4.4v10.1c0 .2-.2.4-.4.4zM35.1 49c-.2 0-.4-.2-.4-.4 0-.4-.4-.8-.8-.8s-.8.4-.8.8c0 .2-.2.4-.4.4s-.4-.2-.4-.4c0-.9.7-1.6 1.6-1.6.9 0 1.6.7 1.6 1.6 0 .2-.2.4-.4.4z"/><path d="M34 47.7c-.2 0-.4-.2-.4-.4v-2c0-.1 0-.2.1-.3l.8-.8c0-.1.1-.4-.4-.7-.3-.2-.9 0-.9 0L30.8 45c-.2.1-.4 0-.5-.1-.1-.2 0-.4.1-.5l2.5-1.5c.1 0 1.1-.5 1.8 0 .9.6.8 1.4.6 1.8 0 0 0 .1-.1.1l-.7.8v1.8c-.1.1-.3.3-.5.3zm1.6 16c-.2 0-.4-.2-.4-.4V53.2c0-.2.2-.4.4-.4s.4.2.4.4v10.1c0 .2-.2.4-.4.4zM34 67.3c-.2 0-.4-.2-.4-.4V53.2c0-.2.2-.4.4-.4s.4.2.4.4V67c0 .2-.2.3-.4.3z"/><path d="M36.8 53.2h-5.5c-.2 0-.4-.2-.4-.4v-3.9c0-.2.2-.4.4-.4h5.5c.2 0 .4.2.4.4v3.9c0 .2-.2.4-.4.4zm-5.1-.8h4.7v-3.1h-4.7v3.1z"/><path d="M35.6 52h-3.1c-.2 0-.4-.2-.4-.4V50c0-.2.2-.4.4-.4h3.1c.2 0 .4.2.4.4v1.6c0 .2-.2.4-.4.4zm-2.7-.8h2.4v-.8h-2.4v.8zm11.6-22.3c-2.1 1.5-4.6 4.3-4.8 7-.1 1.4.3 2.8 1.1 4 .4.7 1 1.3 1.5 1.9 1.3 1.4 1.2 1 1.3 3.3-.1-1.2-1.9-1.2-1.8 0 .1 2.8 3.4 4.5 4.5 1.2.4-1.4-.2-3-1-4.1-1.2-1.6-2.8-2.4-3.3-4.5-.7-2.7 1.3-5.6 3.5-7.2.9-.7-.1-2.3-1-1.6zm-30-2.9c-1.5.1-2.5-1.3-2.5-2.7 0-.8.4-1.5 1.3-1.5.8 0 1.5.6 2 1.2.8.9 2-.4 1.3-1.3-.9-1.1-2.2-1.8-3.6-1.7-1.3.1-2.4 1.1-2.7 2.4-.6 2.6 1.5 5.6 4.2 5.4 1.1 0 1.1-1.9 0-1.8z"/><path d="M14.2 21c.1-.8.6-1.8 1.5-2 .8-.2 1.6.3 1.7 1.1.2 1.2 2 .7 1.8-.5-.3-1.7-2.1-2.8-3.7-2.4-1.8.4-2.9 2.1-3.1 3.8-.1 1.1 1.7 1.1 1.8 0z"/><path d="M16.8 18.1c.2-1.1.7-2.2 1.7-2.8 1.5-.8 2.4.3 2.9 1.5.4 1.1 2.2.6 1.8-.5-.8-1.9-2.1-3.5-4.3-3.1-2.1.4-3.4 2.3-3.8 4.3-.3 1.2 1.5 1.7 1.7.6z"/><path d="M20.3 14.1c.8-1.8 3.4-1.4 3.3.7-.1 1.2 1.8 1.2 1.8 0 .1-1.7-1-3.2-2.6-3.7-1.6-.4-3.4.5-4 2.1-.5 1 1 1.9 1.5.9zm-9.5 11.5c-1.5 2.4.4 5.7 3.3 5.3.5-.1.9-.4.9-.9 0-.4-.4-1-.9-.9-1.5.2-2.6-1.2-1.7-2.5.6-1.1-1-2-1.6-1z"/><path d="M10.7 28.3c-1.2 1-1.3 2.7-.8 4 .5 1.4 1.8 3 3.4 2.4 1.1-.4.6-2.2-.5-1.8-.7.3-1.2-1-1.3-1.6-.2-.7-.1-1.3.5-1.8 1-.6-.4-1.9-1.3-1.2z"/><path d="M8.5 18.7c-12.7 3-3.4 24.3 6.8 17.6 1-.6.1-2.2-.9-1.6C6.5 40-1.1 22.9 9 20.5c1.1-.3.7-2.1-.5-1.8z"/><path d="M6.3 34.6c-2.7 1.9-1.6 6.5.2 8.7 2.5 3.1 6.8 3.6 10.3 2.1 1.1-.4.6-2.2-.5-1.8-2.5 1-5.5 1.1-7.6-.7-.9-.7-1.5-1.8-1.9-2.8-.3-1-.6-3.2.4-3.9 1-.7.1-2.2-.9-1.6z"/><path d="M12.5 33c-4.1 1-.9 8.9 3.3 6.5 1-.6.1-2.2-.9-1.6-1.9 1.1-3.3-2.8-1.9-3.1 1.1-.3.7-2.1-.5-1.8z"/><path d="M12.6 37.5c-1.5 1.2-1.8 3.4-.7 5s3.3 2 4.9 1.1c1-.6.1-2.1-.9-1.6-.8.5-2 .3-2.5-.6-.5-.9-.2-2 .6-2.6.8-.7-.5-2-1.4-1.3z"/><path d="M23.5 70.5zM62.8 42c-.9-1.4-1.9-2.6-2.3-3.2-.3-3.2-1.4-7.8-3.2-11.6 1.4-1.3.7-3.1-.5-4.5C48 11.8 37.2 8.6 25.7 13.6c-1.6.7-3 1.5-4.3 2.5-2.9-4.8-10.1-5.5-12.7-1-2.4 4.1.8 9.5 6 10.4-3.2 9.5.9 20.2 6.7 23.6.7.4 2.1 1 3.6 1.2 1.1 1 2 1.8 2.6 2.3.5.4.9 1.1.9 1.7.1 2-.1 3.9-.4 5.5.7-.3 1.7.1 1.9.9.4-2 .6-4.1.6-6.5-.1-2.3-1.7-3.3-2.6-4.1 1.5-.4 2.7-1.4 3.4-3 1.9-4.5-3.7-9.8-.5-12.7 2.2-2 5.3.9 6.8 3.4.4.6.8 1.1 1.6 1.1 1-.1 1.4-1.1 2-2.5.9-2.2 2.3-5.5 5.6-6.3 3.4-.8 6.9-1.1 9.1-1.9 2.4 5.3 2.9 10.7 2.9 11 0 .2.1.4.2.6 2.2 2.7 4 5.5 4.2 6.4-1.1 1.3-2.4 1.4-3.7 1.3-.6 0-1.1.5-1 1.2.1.5.2 1.3.2 2.2v2.5c-.1 2.8-.8 6-3.6 5.8-2.5-.1-4.3-.6-5.4-1-1.5-.6-3.2.4-3.4 2-.2 1.2-.3 2.6-.5 4.1l-.3 2.4c-.2 1.4-.3 2.7-.4 3.7h2c.1-.6.1-1.2.2-2l.3-2.5c.2-1.6.4-3.4.7-5.4 0-.3.4-.5.7-.4 1.2.4 3.2 1 6 1.1 3.9.2 5.4-3.3 5.7-7.3.1-1.1.1-1.1.1-1.7 0-1.1-.1-2-.1-2.7 2.3-.2 3.5-1.2 4.3-2.3.3-.8-.2-2.2-2.3-5.2zM10.4 16.1c1.9-3.3 7.5-2.4 9.4 1.3-1.9 1.7-3.4 3.8-4.5 6.2-3.8-.4-6.6-4.5-4.9-7.5zm45.7 9.5c-.4 1-4.8 1.6-5.8 1.8-5.9 1-8.3 1.2-11.2 8.3-.1.2-.2.5-.3.7-2.3-3.6-6.4-6.2-9.6-3.3-4.4 4 1.6 9.9 0 13.4-.7 1.7-2.1 2.1-3.9 1.9-10.6-1.2-16.1-25.6 1.1-33 11.3-4.9 21-1 28.8 8.6 1 1.1.9 1.5.9 1.6z"/><path d="M13.7 41.4c-1.6 1.3-2 3.8-.7 5.5 1.3 1.7 3.9 2 5.7.9 1-.6.1-2.2-.9-1.6-1 .6-2.5.6-3.3-.4-.8-1-.3-2.3.6-3.1.8-.7-.5-2-1.4-1.3zm36.4-4.8c.6-.8 1.3-1.6 2.4-1.1.5.2 1 .5 1.6.7.4.1 1.2-.4.6-.6-1.2-.3-2.1-1.2-3.4-.9-1 .2-1.7 1-2.3 1.8-.2.4.9.4 1.1.1z"/></svg>