<svg xmlns="http://www.w3.org/2000/svg" width="512" height="512"><g data-name="23-fragrance"><path d="M479.664 182.063c-2.672-40.136-21.4-60.3-37.3-70.239A79.14 79.14 0 00404 100H288V80a12 12 0 00-12-12h-64a12 12 0 00-12 12v62.052l-15.384 46.153c-7.334 22-23.084 43.383-39.759 66.021C118.207 290.406 88 331.413 88 384c0 49.269 20.417 92.4 57.489 121.446a12 12 0 007.4 2.554H335.11a12 12 0 007.4-2.554C379.584 476.4 400 433.269 400 384c0-52.586-30.206-93.594-56.856-129.774-16.676-22.638-32.426-44.02-39.76-66.021L288 142.054V124h115.923a55.513 55.513 0 0126.524 8.691c14.954 9.743 23.4 26.423 25.184 49.64C437.166 189.454 424 212.237 424 240c0 33.645 19.327 60 44 60s44-26.355 44-60c0-28.116-13.5-51.128-32.336-57.937zM264 92v40h-40v-8h4a12 12 0 000-24h-4v-8zm59.819 176.46C349.473 303.286 376 339.3 376 384c0 50.953-23.83 82.228-45.132 100H157.132C135.83 466.229 112 434.953 112 384c0-44.7 26.527-80.714 52.181-115.541 17.83-24.206 34.672-47.07 43.2-72.664L220.649 156h46.7l13.265 39.794c8.533 25.595 25.375 48.459 43.205 72.666zM468 276c-9.46 0-20-14.785-20-36s10.54-36 20-36 20 14.785 20 36-10.54 36-20 36z"/><path d="M253.127 320.637a12 12 0 00-18.254 0 212.442 212.442 0 00-20.506 29.115 221.188 221.188 0 00-34.839-7.181 12 12 0 00-13.294 12.509c.266 5.491 3.189 54.282 23.794 76.181a39.248 39.248 0 0029.536 12.685A58.347 58.347 0 00244 438.132a58.326 58.326 0 0024.438 5.815 39.261 39.261 0 0029.532-12.684c20.608-21.9 23.531-70.692 23.8-76.183a12 12 0 00-13.294-12.509 221.189 221.189 0 00-34.84 7.181 212.536 212.536 0 00-20.509-29.115zm-9.151 27.477C253.014 360.94 264 379.563 264 392.427c0 13.208-14.515 18.266-19.994 19.7-5.533-1.453-20.006-6.515-20.006-19.7 0-12.08 10.154-30.374 19.976-44.313zm-52.283 20.748c3.741.756 7.943 1.716 12.29 2.895a63.567 63.567 0 00-3.983 20.67 39.421 39.421 0 004.077 17.83c-6.29-10.107-10.337-26.985-12.384-41.395zm104.615 0c-2.048 14.411-6.095 31.288-12.385 41.395a39.417 39.417 0 004.077-17.83 63.581 63.581 0 00-3.982-20.669c4.346-1.18 8.548-2.14 12.29-2.896z"/><circle cx="152" cy="112" r="12"/><circle cx="60" cy="112" r="12"/><circle cx="60" cy="156" r="12"/><circle cx="60" cy="68" r="12"/><circle cx="108" cy="132" r="12"/><circle cx="108" cy="92" r="12"/><circle cx="12" cy="132" r="12"/><circle cx="12" cy="180" r="12"/><circle cx="12" cy="44" r="12"/><circle cx="12" cy="92" r="12"/></g></svg>