<svg height="512" viewBox="0 0 64 64" width="512" xmlns="http://www.w3.org/2000/svg"><path d="M46 23h-5v-4a1 1 0 00-1-1h-.646l3.602-11.706a.997.997 0 00-.249-1.001l-4-4A.997.997 0 0038 1H26a.997.997 0 00-.707.293l-4 4a1 1 0 00-.249 1.001L24.646 18H24a1 1 0 00-1 1v4h-5c-1.654 0-3 1.346-3 3v34c0 1.654 1.346 3 3 3h28c1.654 0 3-1.346 3-3V26c0-1.654-1.346-3-3-3zM20.888 41h.386c4.331 0 8.471-1.771 11.49-4.852.259.574.535 1.14.849 1.689l.24.42A8.732 8.732 0 0135 42.579c0 4.307-3.215 8.013-7.478 8.622l-5.663.809.282 1.98 5.664-.809C33.047 52.433 37 47.874 37 42.578c0-1.86-.488-3.697-1.411-5.313l-.24-.42a17.736 17.736 0 01-1.065-2.215A14.123 14.123 0 0143.727 31h.207A125.234 125.234 0 0043 46.181V54c0 .552-.449 1-1 1H22c-.551 0-1-.448-1-1v-7.819c0-1.726-.04-3.453-.112-5.181zM31 27v-2h2v2zm-1 2h1.033c.088 1.742.405 3.462.941 5.115-.07.075-.148.14-.217.217A14.13 14.13 0 0121.273 39h-.489a125.583 125.583 0 00-1.6-14H29v3a1 1 0 001 1zm14.191 0h-.464c-3.707 0-7.272 1.303-10.119 3.606A17.835 17.835 0 0133.033 29H34a1 1 0 001-1v-3h9.816c-.229 1.329-.44 2.662-.625 4zm-8.934-11l2.538-11h2.85l-3.384 11zm-4.461 0L28.257 7h7.485l-2.538 11zM28.618 5l1-2h4.764l1 2zm10.968 0h-1.968l-1-2h.968zM26.414 3h.968l-1 2h-1.968zm-3.06 4h2.85l2.538 11h-2.004zM25 20h14v3H25zm22 40c0 .552-.449 1-1 1H18c-.551 0-1-.448-1-1V26c0-.231.092-.434.223-.603A123.263 123.263 0 0119 46.181V54c0 1.654 1.346 3 3 3h20c1.654 0 3-1.346 3-3v-7.819c0-6.947.602-13.932 1.777-20.784A.981.981 0 0147 26z"/></svg>