<svg version="1.1" id="Capa_1" xmlns="http://www.w3.org/2000/svg" xmlns:xlink="http://www.w3.org/1999/xlink" x="0" y="0" viewBox="0 0 512 626" xml:space="preserve"><style>.st3{stroke:#000;stroke-miterlimit:10}</style><path d="M476.8 362.8v12c-4.8-2.8-8.2-3-8.2-6 0-1.1.6-2.2 1.7-2.7l6.5-3.3zm-31.1-227.1C422.1 67.8 357.4 19 281.6 19h-51c-52.4 0-101.5 23.4-134.7 64.1-2.6 3.2-2.1 8 1.1 10.6 3.2 2.6 8 2.1 10.6-1.1 30.3-37.2 75.2-58.6 123-58.6h51c87.4 0 158.6 71.1 158.6 158.6v134.5h-16.5V192.6c0-78.4-63.8-142.1-142.1-142.1h-51c-78.3 0-142.1 63.7-142.1 142.1v134.5H72v-41.4c.9-8.5-5-124.7 19.5-169.3 2-3.7.7-8.2-3-10.2s-8.2-.7-10.2 3c-25.8 46.9-20.7 165.1-21.4 171-10.8 13.5-17.7 30.3-18.9 48.6-10.6 3.9-17.6 14-17.6 25.3.1 50.1-5.2 95.6 27.5 151.6 35.8 61.7 102.1 102 176.3 102 48.3-2.3 88.4 7.6 144.4-16.7 72.6-31.5 123.3-103.9 123.3-187.2-.1-52 .3-50.4-.4-54.4-1.7-9.4-8.1-17-16.5-20.3l-16.5-1.9h-3.1c-.9-48 2.7-144.1-4.8-175.1m15.7 190.3c3.3.4 6.2 2.2 8.1 4.7l-24.9 12.6c-.9.4-1.9.4-2.7 0l-34.7-17.4c36.4 0 53.9 0 54.2.1zm-232.4 55.8c1 .5 1.7 1.6 1.7 2.7s-.6 2.2-1.7 2.7l-40.4 20.3c-.9.4-1.9.4-2.7 0l-40.4-20.3c-1-.5-1.7-1.6-1.7-2.7s.6-2.2 1.7-2.7l40.4-20.3c.9-.4 1.9-.4 2.7 0l40.4 20.3zm-21.3-29.4c0-1.1.6-2.2 1.7-2.7l40.4-20.3c.9-.4 1.9-.4 2.7 0l40.4 20.3c1 .5 1.7 1.6 1.7 2.7s-.6 2.2-1.7 2.7l-40.4 20.3c-.8.4-1.9.4-2.7 0l-40.4-20.3c-1-.5-1.7-1.6-1.7-2.7zm-19.2 73.3l40.4 20.3c1 .5 1.7 1.6 1.7 2.7s-.6 2.2-1.7 2.7L193.5 488c-.9.4-1.9.4-2.7 0l-40.4-20.3c-1-.5-1.7-1.5-1.7-2.7 0-1.1.6-2.2 1.7-2.7l40.4-20.3c.8-.4 1.8-.4 2.6.1zm20.9-6.5c-1-.5-1.7-1.6-1.7-2.7s.6-2.2 1.7-2.7l40.4-20.3c.8-.4 1.9-.4 2.7 0l40.4 20.3c1 .5 1.7 1.6 1.7 2.7s-.6 2.2-1.7 2.7l-40.4 20.3c-.8.4-1.9.4-2.7 0l-40.4-20.3zm64 26.7l40.4-20.3c.8-.4 1.9-.4 2.7 0l40.4 20.3c1 .5 1.7 1.6 1.7 2.7s-.6 2.2-1.7 2.7L321.4 488c-.8.4-1.9.4-2.7 0l-40.4-20.3c-1-.5-1.7-1.5-1.7-2.7 0-1.1.7-2.2 1.7-2.7zm40.4-38.5l-40.4-20.3c-1-.5-1.7-1.5-1.7-2.7 0-1.1.6-2.2 1.7-2.7l40.4-20.3c.9-.4 1.9-.4 2.7 0l40.4 20.3c1 .5 1.7 1.5 1.7 2.7 0 1.1-.6 2.2-1.7 2.7l-40.4 20.3c-.8.5-1.8.5-2.7 0zm0-64.1L284 342.3h72.1l-34.7 17.4c-.8.4-1.8.4-2.7 0zm-90.6-17.4l-34.7 17.4c-.9.4-1.9.4-2.7 0L156 342.3h72.1zm-58.2 23.8c1 .5 1.7 1.6 1.7 2.7s-.6 2.2-1.7 2.7l-40.4 20.3c-.8.4-1.9.4-2.7 0l-40.4-20.3c-1-.5-1.7-1.5-1.7-2.7 0-1.1.6-2.2 1.7-2.7l40.4-20.3c.9-.4 1.9-.4 2.7 0l40.4 20.3zM129.4 410l40.4 20.3c1 .5 1.7 1.6 1.7 2.7s-.6 2.2-1.7 2.7L129.4 456c-.9.4-1.9.4-2.7 0l-40.4-20.3c-1-.5-1.7-1.6-1.7-2.7s.6-2.2 1.7-2.7l40.4-20.3c.9-.4 1.9-.4 2.7 0zm-2.7 64.1c.8-.4 1.9-.4 2.7 0l40.4 20.3c1 .5 1.7 1.5 1.7 2.7 0 1.1-.6 2.2-1.7 2.7l-40.4 20.3c-.8.4-1.9.4-2.7 0L91 502.2l-4.8-2.4c-1-.5-1.7-1.6-1.7-2.7s.6-2.2 1.7-2.7l.4-.2 40.1-20.1zm23.6 52.4l40.4-20.3c.8-.4 1.9-.4 2.7 0l40.4 20.3c1 .5 1.7 1.6 1.7 2.7s-.6 2.2-1.7 2.7l-40.4 20.3c-.9.4-1.9.4-2.7 0l-40.4-20.3c-1-.5-1.7-1.6-1.7-2.7s.7-2.2 1.7-2.7zm64-26.7c-1-.5-1.7-1.6-1.7-2.7s.6-2.2 1.7-2.7l40.4-20.3c.8-.4 1.9-.4 2.7 0l40.4 20.3c1 .5 1.7 1.5 1.7 2.7 0 1.1-.6 2.2-1.7 2.7l-40.4 20.3c-.8.4-1.9.4-2.7 0l-40.4-20.3zm64 26.7l40.4-20.3c.9-.4 1.9-.4 2.7 0l40.4 20.3c1 .5 1.7 1.6 1.7 2.7s-.6 2.2-1.7 2.7l-40.4 20.3c-.9.4-1.9.4-2.7 0l-40.4-20.3c-1-.5-1.7-1.5-1.7-2.7 0-1.1.7-2.2 1.7-2.7zm64-26.7c-1-.5-1.7-1.6-1.7-2.7s.6-2.2 1.7-2.7l40.4-20.3c.9-.4 1.9-.4 2.7 0 40.9 21.2 42.1 19.6 42.1 23 0 1.1-.6 2.2-1.7 2.7l-40.4 20.3c-.9.4-1.9.4-2.7 0l-40.4-20.3zm40.4-43.9l-40.4-20.3c-1-.5-1.7-1.6-1.7-2.7s.6-2.2 1.7-2.7l40.4-20.3c.8-.4 1.9-.4 2.7 0 40.8 21.2 42.1 19.6 42.1 23 0 1.1-.6 2.2-1.7 2.7l-40.4 20.3c-.8.4-1.8.4-2.7 0zm2.7-64.2c-.8.4-1.9.4-2.7 0l-40.4-20.3c-1-.5-1.7-1.6-1.7-2.7s.6-2.2 1.7-2.7l40.4-20.3c.9-.4 1.9-.4 2.7 0l40.4 20.3c1 .5 1.7 1.6 1.7 2.7s-.6 2.2-1.7 2.7l-40.4 20.3zm19-231.4c6.6 25 3.3 116.2 4.2 166.9H103.5c0-60.4 0-134.4.1-138.1l1.5-16c9.5-60.7 62.1-107.3 125.5-107.3h51c53.4 0 99.3 33.2 118 80l4.8 14.5zM56.9 310.8v16.3h-3.7c.6-5.6 1.9-11.1 3.7-16.3zm-9.6 31.5h52.8l-34.7 17.4c-.3.2-.7.3-1 .3-.6.1-1.2 0-1.7-.3l-25-12.5c2.3-3 5.8-4.9 9.6-4.9zm-11.9 20.5l6.4 3.2c2.2 1.1 2.2 4.3 0 5.4l-6.4 3.2v-11.8zm0 28.6l27.4-13.5c.5-.3 1.1-.4 1.7-.3.3 0 .7.1 1 .3l40.4 20.3c1 .5 1.7 1.5 1.7 2.7 0 1.1-.6 2.2-1.7 2.7l-40.4 20.3c-.9.4-1.9.4-2.7 0L35.6 410c-.2-4.6-.2-11.4-.2-18.6zm1.5 36.3l5 2.6c1 .5 1.7 1.6 1.6 2.7 0 1.1-.6 2.2-1.7 2.7l-3.5 1.8c-.5-3.3-1-6.6-1.4-9.8zM62.7 488l-9.7-4.8c-4.6-9.8-8.4-20.1-11.2-30.7L62.7 442c.9-.4 1.9-.4 2.7 0l3.1 1.5 37.3 18.7c1 .5 1.7 1.6 1.7 2.7s-.6 2.2-1.7 2.7l-25.7 12.9-14.7 7.5c-.8.4-1.8.4-2.7 0zm3.3 18.5l39.9 20c1 .5 1.7 1.6 1.7 2.7s-.6 2.2-1.7 2.7l-13.5 6.7c-9.9-9.7-18.8-20.4-26.4-32.1zm80.7 69.4c-15.3-6.9-29.5-15.8-42.3-26.4l16.5-8.2 5.8-2.9c.9-.4 1.9-.4 2.7 0l40.5 20.3c1 .5 1.7 1.5 1.7 2.7 0 1.1-.6 2.2-1.6 2.7l-12.7 6.5-10.6 5.3zm18.9 7.3l7.6-3.8 17.6-9c.9-.4 1.9-.4 2.7 0l43.6 21.9c-11 .1-36.7 2.4-71.5-9.1zm89.1 1.1L214.3 564c-1-.5-1.7-1.5-1.7-2.7 0-1.1.6-2.2 1.7-2.7l40.4-20.3c.8-.4 1.9-.4 2.7 0l40.4 20.3c1 .5 1.7 1.6 1.7 2.7s-.6 2.2-1.7 2.7l-40.4 20.3c-.8.4-1.8.4-2.7 0zm19.6 8.4l44.5-22.3c.8-.4 1.8-.4 2.7 0l25.7 12.7c-26.4 8.8-49.5 9.8-72.9 9.6zm91.8-17.1L342.4 564c-1-.5-1.7-1.6-1.7-2.7s.6-2.2 1.7-2.7l40.4-20.2c.8-.4 1.8-.4 2.7 0l22.5 11c-12.8 10.4-26.8 19.3-41.9 26.2zm53.9-37.1l-13.5-6.6c-1-.5-1.7-1.5-1.7-2.7 0-1.2.6-2.2 1.7-2.7l39.8-20c-7.7 11.6-16.5 22.3-26.3 32zm39.1-55.3l-9.7 4.8c-.8.4-1.8.4-2.7 0l-40.5-20.3c-1-.5-1.7-1.5-1.7-2.7 0-1.1.6-2.2 1.7-2.7l40.4-20.3c.8-.4 1.9-.4 2.7 0l20.9 10.5c-2.7 10.7-6.5 20.9-11.1 30.7zm14.7-45.8c-2-1.3-5.1-1.6-5.1-4.4 0-1.1.7-2.2 1.7-2.7l4.9-2.4c-.5 3.1-1 6.3-1.5 9.5zm2.9-27.1c-28 13.4-27.5 14.7-29.9 13.5l-40.4-20.3c-1-.5-1.7-1.6-1.7-2.7s.6-2.2 1.7-2.7c41.7-20.4 40.6-21.6 43.1-20.3l27.3 13.8c-.1 10.9 0 13.2-.1 18.7z"/><path d="M346.8 285.6c1.2 0 2.2-1 2.2-2.2 0-1.2-1-2.2-2.2-2.2h-.5c-.2-4.1-.7-8-1.7-11.8l.9-.1c1.2-.2 2-1.3 1.8-2.5-.2-1.2-1.3-2-2.5-1.8l-1.4.2c-1.3-3.8-3-7.4-5.1-10.8l1.4-.6c1.1-.5 1.6-1.8 1.1-2.9-.5-1.1-1.8-1.6-2.9-1.1l-2.1 1c-.2-.3-.5-.6-.7-.9-2.5-3.1-5.2-5.7-8.2-7.8l-.2.2c.9-.9.9-2.2 0-3.1-.9-.9-2.2-.9-3.1 0l-.6.6c-.5-.3-1.1-.6-1.6-.8h0c-3.8-1.8-7.7-2.8-11.7-3.1v-4.2c0-1.2-1-2.2-2.2-2.2h-.2c-1.2 0-2.2 1-2.2 2.2v4.2c-4 .3-8 1.3-11.7 3.1h0c-.6.3-1.1.5-1.6.8l-1.9-1.9c-.9-.9-2.2-.9-3.1 0-.9.9-.9 2.2 0 3.1l1.2 1.2c-2.9 2.1-5.7 4.7-8.2 7.8-.2.3-.5.6-.7.9l-2.1-1c-1.1-.5-2.4 0-2.9 1.1s0 2.4 1.1 2.9l1.4.6c-2.1 3.3-3.8 6.9-5.1 10.8l-1.4-.2c-1.2-.2-2.3.6-2.5 1.8-.2 1.2.6 2.3 1.8 2.5l.9.1c-.9 3.8-1.5 7.8-1.7 11.8h-.5c-1.2 0-2.2 1-2.2 2.2 0 1.2 1 2.2 2.2 2.2h.5c.1 4.1.7 8.1 1.7 11.9l-.9.1c-1.2.2-2 1.3-1.8 2.5.2 1.1 1.1 1.8 2.1 1.8h.3l1.4-.2c1.3 3.8 3 7.4 5.1 10.8l-1.4.6c-1.1.5-1.6 1.8-1.1 2.9.4.8 1.2 1.3 2 1.3.3 0 .6-.1.9-.2l2.1-1c.2.3.5.6.7.9 2.5 3.1 5.2 5.7 8.2 7.8l-1.2 1.2c-.9.9-.9 2.2 0 3.1.4.4 1 .6 1.5.6.6 0 1.1-.2 1.5-.6l1.9-1.9 1.2.6h0c3.9 1.9 8 3 12.2 3.3v4.2c0 1.2 1 2.2 2.2 2.2h.2c1.2 0 2.2-1 2.2-2.2v-4.2c4.2-.3 8.3-1.4 12.2-3.3h0l1.2-.6 1.9 1.9c.4.4 1 .6 1.5.6.6 0 1.1-.2 1.5-.6.9-.9.9-2.2 0-3.1l-1.2-1.2c2.9-2.1 5.7-4.7 8.2-7.8.2-.3.5-.6.7-.9l2.1 1c.3.1.6.2.9.2.8 0 1.6-.5 2-1.3.5-1.1 0-2.4-1.1-2.9l-1.4-.6c2.1-3.3 3.8-6.9 5.1-10.8l1.4.2h.3c1.1 0 2-.8 2.1-1.8.2-1.2-.6-2.3-1.8-2.5l-.9-.1c1-3.8 1.5-7.8 1.7-11.9h.8zm-6.5 11.2l-3.4-.5c-1.2-.2-2.3.6-2.5 1.8-.2 1.2.6 2.3 1.8 2.5l2.8.4c-1.2 3.5-2.8 6.7-4.7 9.6l-2.6-1.2c-1.1-.5-2.4 0-2.9 1.1s0 2.4 1.1 2.9l1.8.8c-2.3 2.9-5 5.4-7.9 7.4l-2.1-2.1c-.9-.9-2.2-.9-3.1 0-.9.9-.9 2.2 0 3.1l1.3 1.3c-.8.4-1.7.8-2.5 1.1l-.4-.2-.5.5c-2.2.7-4.5 1.2-6.8 1.4-.3-.8-1.1-1.4-2-1.4h-.2c-.9 0-1.7.6-2 1.4-2.3-.2-4.6-.7-6.8-1.4l-.5-.5-.4.2c-.9-.3-1.7-.7-2.5-1.1l1.3-1.3c.9-.9.9-2.2 0-3.1-.9-.9-2.2-.9-3.1 0l-2.1 2.1c-2.9-2-5.6-4.5-7.9-7.4l1.8-.8c1.1-.5 1.6-1.8 1.1-2.9-.5-1.1-1.8-1.6-2.9-1.1l-2.6 1.2c-1.9-2.9-3.5-6.2-4.7-9.6l2.8-.4c1.2-.2 2-1.3 1.8-2.5-.2-1.2-1.3-2-2.5-1.8l-3.4.5c-.9-3.6-1.5-7.3-1.6-11.2h3.2c1.2 0 2.2-1 2.2-2.2 0-1.2-1-2.2-2.2-2.2h-3.2c.2-3.9.7-7.6 1.6-11.1l3.4.5h.3c1.1 0 2-.8 2.1-1.8.2-1.2-.6-2.3-1.8-2.5l-2.8-.4c1.2-3.5 2.8-6.7 4.7-9.6l2.6 1.2c.3.1.6.2.9.2.8 0 1.6-.5 2-1.3.5-1.1 0-2.4-1.1-2.9l-1.8-.8c2.3-2.9 5-5.4 7.9-7.4l2.1 2.1c.4.4 1 .6 1.5.6.6 0 1.1-.2 1.5-.6.9-.9.9-2.2 0-3.1l-1.3-1.3c2.8-1.4 5.8-2.3 9-2.7h.1c.4 0 .8-.1 1.2-.1.3.8 1.1 1.4 2 1.4h.2c.9 0 1.7-.6 2-1.4.4 0 .8.1 1.2.1h.1c3.1.4 6.1 1.3 9 2.7l-1.3 1.3c-.9.9-.9 2.2 0 3.1.4.4 1 .6 1.5.6.6 0 1.1-.2 1.5-.6l2.1-2.1c2.9 2 5.6 4.5 7.9 7.4l-1.8.8c-1.1.5-1.6 1.8-1.1 2.9.4.8 1.2 1.3 2 1.3.3 0 .6-.1.9-.2l2.6-1.2c1.9 2.9 3.5 6.2 4.7 9.6l-2.8.4c-1.2.2-2 1.3-1.8 2.5.2 1.1 1.1 1.8 2.1 1.8h.3l3.4-.5c.9 3.5 1.5 7.3 1.6 11.1h-3.2c-1.2 0-2.2 1-2.2 2.2 0 1.2 1 2.2 2.2 2.2h3.2c0 3.9-.5 7.7-1.4 11.2z" stroke="#000" stroke-width=".5" stroke-miterlimit="10"/><path d="M290.9 301.6c-1.2 0-2.2-1-2.2-2.2V295c0-1.2 1-2.2 2.2-2.2s2.2 1 2.2 2.2v4.4c0 1.2-1 2.2-2.2 2.2zm16.7 0c-1.2 0-2.2-1-2.2-2.2V295c0-1.2 1-2.2 2.2-2.2s2.2 1 2.2 2.2v4.4c0 1.2-1 2.2-2.2 2.2zm16.7 0c-1.2 0-2.2-1-2.2-2.2V295c0-1.2 1-2.2 2.2-2.2 1.2 0 2.2 1 2.2 2.2v4.4c0 1.2-1 2.2-2.2 2.2zm-25 11.9c-1.2 0-2.2-1-2.2-2.2v-4.4c0-1.2 1-2.2 2.2-2.2s2.2 1 2.2 2.2v4.4c-.1 1.2-1 2.2-2.2 2.2zm16.6 0c-1.2 0-2.2-1-2.2-2.2v-4.4c0-1.2 1-2.2 2.2-2.2 1.2 0 2.2 1 2.2 2.2v4.4c0 1.2-.9 2.2-2.2 2.2zm-8.5 8.7c-1.1 0-2-1-2-2.2v-4.4c0-1.2.9-2.2 2-2.2s2 1 2 2.2v4.4c-.1 1.2-.9 2.2-2 2.2zm-16.5-44.6c-1.2 0-2.2-1-2.2-2.2V271c0-1.2 1-2.2 2.2-2.2s2.2 1 2.2 2.2v4.4c0 1.2-1 2.2-2.2 2.2zm16.7 0c-1.2 0-2.2-1-2.2-2.2V271c0-1.2 1-2.2 2.2-2.2s2.2 1 2.2 2.2v4.4c0 1.2-1 2.2-2.2 2.2zm16.7 0c-1.2 0-2.2-1-2.2-2.2V271c0-1.2 1-2.2 2.2-2.2 1.2 0 2.2 1 2.2 2.2v4.4c0 1.2-1 2.2-2.2 2.2zm-25 11.8c-1.2 0-2.2-1-2.2-2.2v-4.4c0-1.2 1-2.2 2.2-2.2s2.2 1 2.2 2.2v4.4c-.1 1.2-1 2.2-2.2 2.2zm16.6 0c-1.2 0-2.2-1-2.2-2.2v-4.4c0-1.2 1-2.2 2.2-2.2 1.2 0 2.2 1 2.2 2.2v4.4c0 1.2-.9 2.2-2.2 2.2zm-31.1 0c-1.2 0-2.2-1-2.2-2.2v-4.4c0-1.2 1-2.2 2.2-2.2 1.2 0 2.2 1 2.2 2.2v4.4c-.1 1.2-1 2.2-2.2 2.2zm44.3 0c-1.2 0-2.2-1-2.2-2.2v-4.4c0-1.2 1-2.2 2.2-2.2 1.2 0 2.2 1 2.2 2.2v4.4c0 1.2-1 2.2-2.2 2.2zm-38.2-32c-1.2 0-2.2-1-2.2-2.2v-4.4c0-1.2 1-2.2 2.2-2.2s2.2 1 2.2 2.2v4.4c0 1.2-1 2.2-2.2 2.2zm16.7 0c-1.2 0-2.2-1-2.2-2.2v-4.4c0-1.2 1-2.2 2.2-2.2s2.2 1 2.2 2.2v4.4c0 1.2-1 2.2-2.2 2.2zm16.7 0c-1.2 0-2.2-1-2.2-2.2v-4.4c0-1.2 1-2.2 2.2-2.2 1.2 0 2.2 1 2.2 2.2v4.4c0 1.2-1 2.2-2.2 2.2zm-25 11.8c-1.2 0-2.2-1-2.2-2.2v-4.4c0-1.2 1-2.2 2.2-2.2s2.2 1 2.2 2.2v4.4c-.1 1.2-1 2.2-2.2 2.2zm16.6 0c-1.2 0-2.2-1-2.2-2.2v-4.4c0-1.2 1-2.2 2.2-2.2 1.2 0 2.2 1 2.2 2.2v4.4c0 1.2-.9 2.2-2.2 2.2z"/><defs><path id="SVGID_1_" d="M103.3 327.2h213.8s-26.2 12.6-46-37.8c-9.3-23.7 51.3-136.6 51.3-136.6l-5.3-23.5H103.3v197.9z"/></defs><clipPath id="SVGID_2_"><use xlink:href="#SVGID_1_" overflow="visible"/></clipPath><g clip-path="url(#SVGID_2_)"><path d="M253 257.7c-1.8-48-41.3-86.5-89.8-86.5-49.6 0-89.9 40.3-89.9 89.9s40.3 89.9 89.9 89.9c5.1 0 10.2-.5 15.2-1.3 4.8.9 9.7 1.3 14.7 1.3 47.7 0 86.5-40.3 86.5-89.9v-3.3H253zm-63.4-75.6c32 10.7 55.4 40.4 56.8 75.6h-20c-.1-2.3-.2-4.6-.4-6.9l-6.6.6c.2 2.1.3 4.1.4 6.2h-26.6c-.7-34.3-11.5-64.2-17-77.5 10.1 6.8 36.4 27.9 42.4 64.8l6.6-1.1c-5.1-30.4-22.5-50.5-35.6-61.7zm-23-4.2h1.3c3.8 8.3 17.9 41.6 18.6 79.7h-19.9v-79.7zm104.6 86.5c-6.8 13.6-30.7 53.3-78 53.3s-71.2-39.6-78-53.3h156zm-111.3-86.5v79.8H140c.8-38.1 14.9-71.5 18.6-79.7.4-.1.9-.1 1.3-.1zM80 261c0-36.1 23.1-66.9 55.3-78.4-16.2 13.3-38.7 38.8-38.7 78.4 0 41.4 19 64.8 35.6 77.2C101.7 325.9 80 296 80 261zm76.2 82.9c-9.8-3.5-52.8-22.5-52.8-82.9 0-47.5 34.6-73.3 47.1-81.1-5.5 13.1-16.5 43.2-17.2 77.8h-26.7v3.3c0 37.5 22.2 69.7 53.7 83.1-1.3 0-2.7-.1-4.1-.2zm37 .3c-38.7 0-71.1-28.9-78.3-67 11.6 18.4 36.3 47 78.3 47s66.8-28.7 78.3-47c-7.2 38.2-39.6 67-78.3 67z"/><path d="M193.2 301c4.8 0 8.3-5.6 8.3-13.3s-3.5-13.3-8.3-13.3c-4.8 0-8.3 5.6-8.3 13.3s3.5 13.3 8.3 13.3zm0-19.8c.6.8 1.7 3 1.7 6.5s-1 5.7-1.7 6.5c-.6-.8-1.7-3-1.7-6.5s1-5.7 1.7-6.5zm38.3 13.1c4.8 0 8.3-5.6 8.3-13.3s-3.5-13.3-8.3-13.3c-4.8 0-8.3 5.6-8.3 13.3s3.4 13.3 8.3 13.3zm0-19.8c.6.8 1.7 3 1.7 6.5s-1 5.7-1.7 6.5c-.6-.8-1.7-3-1.7-6.5s1-5.7 1.7-6.5zm-76.6 19.8c4.8 0 8.3-5.6 8.3-13.3s-3.5-13.3-8.3-13.3-8.3 5.6-8.3 13.3 3.5 13.3 8.3 13.3zm0-19.8c.6.8 1.7 3 1.7 6.5s-1 5.7-1.7 6.5c-.6-.8-1.7-3-1.7-6.5s1.1-5.7 1.7-6.5zm-37.3-29.8l-6.5-1.3c-.5 2.4-.9 4.9-1.1 7.3l6.6.7c.2-2.2.6-4.5 1-6.7zm18.3-38.2l-5.3-4c-8.8 11.6-14.7 22.9-18 34.5l6.4 1.8c3.1-10.8 8.6-21.4 16.9-32.3z"/></g><defs><path id="SVGID_3_" d="M332 216.4h83.7v110.1H332z"/></defs><clipPath id="SVGID_4_"><use xlink:href="#SVGID_3_" overflow="visible"/></clipPath><g clip-path="url(#SVGID_4_)"><path class="st3" d="M426.7 276.9c-2.3-4.2-5.5-7.8-9.4-10.8 1.5-1.4 2.5-3.2 2.8-5.3.8-6.2-5.3-11.9-14-13-4.9-.7-9.5.3-12.7 2.5 2.3-9 6.5-14.2 9.8-17 3.4-2.9 3.3-8.1-.2-10.8-2.3-1.8-5.5-1.9-8-.3-10.8 6.9-12.4 22.2-12.6 28.7-9.4-7.5-28.9-1.2-27.5 10 .3 2 1.3 3.8 2.8 5.3-1.9 1.5-3.7 3.1-5.3 4.9-.7.9-.7 2.2.2 2.9s2.2.7 2.9-.2c1.7-1.9 3.7-3.7 5.9-5.2 3.9 1.7 8.5 1.8 12.5.9 2.9 8.1 10.1 15.3 17.9 11.5 4.3-2.1 7.6-7 9.2-11.5 4.1.9 8.7.8 12.5-.9 3.7 2.6 6.7 5.7 9 9.4m-20 49.9c-.4-1-1.7-1.5-2.7-1.1-1 .4-1.5 1.7-1.1 2.7.5 1.2 1.2 2.5 1.8 3.6-25.7 8.9-52.8-10.3-52.8-37.6 0-4.6.8-9 2.4-12.9.4-1.1-.1-2.2-1.1-2.7-1.1-.4-2.2.1-2.7 1.1-1.8 4.4-2.7 9.3-2.7 14.5 0 30.6 30.6 51.7 59.1 41.1m2.8-84.7c6.2.8 11 4.7 10.5 8.4-.2 1.6-1.4 3-3.2 4h-.1c-3.1 1.7-7.2 1.9-10.7 1.1.6-5-1.9-9.3-6.2-11.8 2.4-1.5 6-2.2 9.7-1.7zm-13 23.6c-3.5 3.2-6.6 3.2-10 0-6.2-5.9-8.4-15.9 1-19.3 6.8-2.2 14.6 1.7 14.6 7.7-.1 3.2-2.2 8.4-5.6 11.6zm4.7-49.8c1-.6 2.3-.6 3.2.1 1.4 1.1 1.5 3.2.1 4.4-4.1 3.4-9.3 9.9-11.6 21.2-.7-.1-1.5-.1-2.3 0 0-5.5 1.2-19.7 10.6-25.7zm-18.1 27.9c-4.3 2.5-6.8 6.9-6.2 11.8-6.5 1.5-13.4-.9-13.9-5.1-.8-6.4 12.7-11.4 20.1-6.7z"/></g><defs><path id="SVGID_5_" d="M222.9 196.9c14.1 13 23.7 30.9 26.8 49.8.5 2.8 1.1 6.2 3.6 7.5 1.5.7 3.2.6 4.8.4 4.2-.4 8.5-1 12.5-2.6s7.5-4.3 10.7-7.2c12.3-11.2 20.6-26.5 24.2-42.6 3.5-15.5 2.9-31.5 2.3-47.3-.3-8.3-.7-16.9-4.3-24.4-3.3-6.8-9.1-12.2-15.8-15.8-1.9-1-4.1-2.1-5.1-4-1.3-2.5-.4-5.6.2-8.4 1.4-6.8.3-14.2-3.8-19.8s-11.3-8.9-18.1-7.7c-9.8 1.7-15.9 11.2-23 18.2-9.3 9.2-21.5 14.7-32.9 21.2-11.4 6.5-22.7 14.7-27.8 26.8-1.7 4.1-2.7 8.6-3.6 12.9-.9 4.5-5.5 15.3-2.3 19.1 2.7 3.3 13.2 3.2 17.3 4.4 12.3 3.7 25.1 10.3 34.3 19.5z"/></defs><clipPath id="SVGID_6_"><use xlink:href="#SVGID_5_" overflow="visible"/></clipPath><g clip-path="url(#SVGID_6_)"><path d="M306.2 195.3L302 187l5.5-7.3c.7-.9.6-2.2-.1-3.1l-6.1-7.3 3.4-8.3c.4-1.1.1-2.3-.9-3l-7.8-5.8.9-9c.1-1.1-.6-2.3-1.8-2.7l-9.2-3.7-2-9c-.3-1.2-1.3-2.1-2.6-2.2l-10-.9-5.2-8c-.7-1-2-1.6-3.3-1.3h-.1c2.1-7.6 6.3-14.6 12.3-20.2.7-.7 1.4-1.4 1.9-2 1-1.1.8-2.7-.4-3.7l-.2-.2-12.6-8c-1.1-.7-2.6-.6-3.6.2-5 4.4-9.3 14.3-13.4 31l-1.2-.9c-1-.8-2.5-.8-3.5-.1l-7.9 5.3-9.5-3.1c-1.2-.4-2.6 0-3.3 1l-5.4 7.4-9.9-.2c-1.3 0-2.4.7-2.7 1.8l-2.7 8.6-9.5 2.2c-1.2.3-2 1.2-2 2.4l-.2 9-8.5 4.3c-1.1.5-1.6 1.7-1.3 2.8l2.1 8.9-7.2 5.9c-.9.7-1.1 1.9-.6 3l4.2 8.3-5.5 7.3c-.7.9-.6 2.2.1 3.1l6.1 7.3-3.4 8.3c-.4 1.1-.1 2.3.9 3l7.8 5.8-.9 9c-.1 1.1.6 2.3 1.8 2.7l9.2 3.7 2 9c.3 1.2 1.3 2.1 2.6 2.2l10 .9 5.2 8c.7 1 2 1.6 3.3 1.3l9.6-2.3 7.9 5.9c1 .8 2.5.8 3.5.1l7.9-5.3 9.5 3.1c1.2.4 2.6 0 3.3-1l5.4-7.4 9.9.2c1.3 0 2.4-.7 2.7-1.8l2.7-8.6 9.5-2.2c1.2-.3 2-1.2 2-2.4l.2-9 8.5-4.3c1.1-.5 1.6-1.7 1.3-2.8l-2.1-8.9 7.2-5.9c.7-.6 1-1.8.4-2.8zM262.6 87l7.8 4.9c-4 4-10.4 10.7-14.1 25l-3.1.7-1.7-1.3c3.6-14.7 7.3-24.5 11.1-29.3zm29.9 116.7l2 8.5-8.1 4.1c-.9.4-1.4 1.2-1.4 2.2l-.2 8.6-9 2.1c-.9.2-1.7.9-1.9 1.7l-2.5 8.1-9.3-.2c-1 0-1.8.4-2.4 1.1l-5 7-8.9-2.9c-.9-.3-1.9-.2-2.6.3l-7.3 4.9-7.3-5.5c-.7-.5-1.7-.7-2.6-.5l-8.9 2.1-4.8-7.4c-.4-.7-1.1-1.1-1.9-1.3-.1 0-.2 0-.3-.1l-9.3-.9-1.9-8.4c-.2-.9-.8-1.6-1.7-2l-8.7-3.5.9-8.5c.1-.9-.3-1.8-1.1-2.3l-7.4-5.5 3.3-7.9c.3-.8.2-1.8-.4-2.5l-5.8-7 5.2-7c.6-.7.6-1.7.2-2.6l-4-7.9 6.8-5.7c.7-.6 1-1.5.8-2.4l-2-8.5 8.1-4.1c.9-.4 1.4-1.2 1.4-2.2l.2-8.6 9-2.1c.9-.2 1.7-.9 1.9-1.7l2.5-8.1 9.3.2c1 0 1.8-.4 2.4-1.1l5-7 8.9 2.9c.9.3 1.9.2 2.6-.3l7.3-4.9 7.3 5.5c.7.5 1.7.7 2.6.5l8.9-2.1 4.8 7.4c.5.8 1.3 1.3 2.3 1.3l9.3.9 1.9 8.4c.2.9.8 1.6 1.7 2l8.7 3.5-.9 8.5c-.1.9.3 1.8 1.1 2.3l7.4 5.5-3.3 7.9c-.3.8-.2 1.8.4 2.5l5.8 7-5.2 7c-.6.7-.6 1.7-.2 2.6l4 7.9-6.8 5.7c-.8.7-1.1 1.6-.9 2.5z"/><path d="M232.1 136.9c-.8-1.3-2.6-1.7-3.9-1.1l-9.9 5c-1.1.5-1.6 1.7-1.3 2.8l2.2 8.7-7.7 5.2c-1 .7-1.3 1.8-.9 2.9l3.3 8.5-7 5.9c-.9.7-1.1 1.9-.6 3l4.1 8.2-6.4 6.5c-.8.8-.9 2-.3 3l5 7.8-5.5 7.1c-.7.9-.7 2.2.1 3.1l7.1 8.5c1 1.2 2.8 1.4 4 .6 1.2-.8 1.5-2.5.5-3.6l-5.8-7 5.4-6.9c.6-.8.7-1.9.1-2.8l-4.9-7.6 6.2-6.3c.7-.8.9-1.8.4-2.8l-4-8 6.9-5.7c.8-.7 1.1-1.8.7-2.7l-3.2-8.3 7.5-5.1c.9-.6 1.3-1.6 1-2.6l-2.2-8.5 8.1-4.1c1.3-.9 1.8-2.5 1-3.7zm37.1 43.4l6.4-6.5c.8-.8.9-2 .3-3l-5-7.8 5.5-7.1c.7-.9.7-2.2-.1-3.1l-7.1-8.5c-.9-1.2-2.7-1.5-4-.7-1.3.8-1.6 2.4-.6 3.6 0 .1.1.1.1.2l5.8 7-5.4 6.9c-.6.8-.7 1.9-.1 2.8l4.9 7.6-6.2 6.3c-.7.8-.9 1.8-.4 2.8l4 8-6.9 5.7c-.8.7-1.1 1.8-.7 2.7l3.2 8.3-7.5 5.1c-.9.6-1.3 1.6-1 2.6l2.2 8.5-8.1 4.1c-1.4.7-1.8 2.3-1 3.5.8 1.3 2.6 1.7 3.9 1.1l9.9-5c1.1-.5 1.6-1.7 1.3-2.8l-2.2-8.7 7.7-5.2c1-.7 1.3-1.8.9-2.9l-3.3-8.5 7-5.9c.9-.7 1.1-1.9.6-3l-4.1-8.1z"/></g><defs><path id="SVGID_7_" d="M383.9 253.5c.1-2.2.3-4.3.6-6.4 1-6.8 3.7-13.4 8-18.8 2.2-2.8 6.3-5.4 8.9-3.1 1.6 1.4 1.6 4.1.6 6s-2.6 3.4-4.1 5.1c-3.5 4.1-5.6 9.3-5.9 14.7 5.4-.3 10.8-.5 16.1-.8 1-.1 2.2-.1 3-.8 1.1-.8 1.4-2.3 1.6-3.7 3.1-21.2 3.2-42.8.3-64-1.1-8.5-2.8-16.9-6.2-24.8-7.2-16.6-21.7-29.2-37.7-37.7-6.3-3.3-13.2-6.2-20.3-5.6-5.5.5-10.5 3.1-15.3 5.8-5.4 3-10.7 6.3-15.9 9.6-3.7 2.3-7.4 4.6-9.9 8.1-2.6 3.6-3.6 8.1-4.6 12.5-2.1 9.6-4 19.2-5.7 28.9-.8 4.2-1.5 8.5-1 12.7 1 7.4 5.7 13.7 8.3 20.7 3.2 8.7 3.3 19.2 9.9 25.7 4.2 4.2 10.4 5.8 14.9 9.6 3.5 2.9 5.9 6.9 8.6 10.6.9 1.3 1.9 2.6 3.4 3.2 1.1.5 2.3.5 3.5.4 3.7-.1 8.8-.3 11.8-2.6 2.7-2 3.6-5.2 7-7 6.2-3.3 14.6-3.1 20.1 1.7z"/></defs><clipPath id="SVGID_8_"><use xlink:href="#SVGID_7_" overflow="visible"/></clipPath><g clip-path="url(#SVGID_8_)"><path class="st3" d="M314 208.3v-.6c-.1-.7-2.2-10.6-10.5-16.9-1.9-1.5-2.1-2.3-2-2.4.4-.9 4.5-2 10.5-.3 7.3 2.2 11.9 8.4 12 8.4.6.8 1.8 1 2.6.4s1-1.8.4-2.6c-.2-.2-3.2-4.3-8.3-7.3 1-3 2.1-6 3.3-8.9.1-.2.1-.4.1-.6 0-.3.3-8.1-8.1-16-.8-.7-1-1.2-1.1-1.4.3-.2 1.3-.5 3.2-.3h.2c5.6.6 13.5 4.6 18.6 12.5.6.9 1.7 1.1 2.6.5.9-.6 1.1-1.7.5-2.6-2.1-3.3-4.7-5.9-7.3-8 3.3-4.6 6.8-8.4 10.5-11.3.8-.6.9-1.8.3-2.6-.6-.8-1.8-.9-2.6-.3-4 3.1-7.7 7.2-11.2 12.1-5.3-3.3-10.7-4.4-14.1-4-3 .4-3.9 1.9-4.2 2.8-.4 1.1-.3 3 2.2 5.3 6.3 5.9 6.8 11.5 6.9 12.8-1.1 2.7-2.2 5.4-3.1 8.3-.7-.3-1.4-.6-2.2-.8-5.8-1.7-13-1.5-14.9 2.2-.6 1.3-1.1 3.9 3.1 7.1 6.7 5 8.7 13 9.1 14.4-.7 7.3.7 14.7 4.1 21.3.5 1 1.8 1.3 2.7.7.8-.5 1.1-1.6.6-2.4-3.3-6-4.6-12.8-3.9-19.5zm32.8-24.5c.9.1 1.8-.5 2-1.4 1.8-7.4 5.5-15.5 8-15.3 2.5.3 4.5 8.9 4.7 16.6 0 1 .9 1.8 1.9 1.8 1 0 1.8-.9 1.8-1.9 0-.2-.1-4.6-1-9.3-1.3-7-3.6-10.6-7-10.9s-6.4 2.7-9.1 9.3c-1.8 4.3-2.8 8.7-2.9 8.9-.3 1 .5 2 1.6 2.2z"/><path class="st3" d="M413.1 176.6c-.6-.8-1.8-.9-2.6-.3l-17.2 14c-.3-1.9-.6-3.7-.9-5.5.3-1.2 2-6.6 9.4-11.1 2.9-1.8 3.3-3.5 3.2-4.7-.1-.9-.7-2.6-3.5-3.6-3.3-1.2-8.8-1.1-14.7 1-2.6-6.1-5.8-11.2-9.5-15.3-3.3-3.9-4.5-8.5-5.6-12.6-1.5-5.8-3.1-11.8-10.7-12.6-7.5-.8-10.3 4.8-13 10.1-1.2 2.4-2.5 5-4.3 7.3-.6.8-.5 2 .4 2.6.8.6 2 .5 2.6-.4 2-2.6 3.4-5.4 4.7-7.9 2.8-5.7 4.5-8.6 9.3-8.1 4.7.5 5.8 3.7 7.4 9.8 1.2 4.5 2.5 9.5 6.3 14l.1.1c3.4 3.8 6.4 8.6 8.9 14.4-3 1.5-6 3.6-8.8 6.3-.7.7-.7 1.9 0 2.6.7.7 1.9.7 2.6 0 6.6-6.6 15.2-8.9 20.8-8.4.8.1 1.5.2 2.2.5.3.1.7.3 1 .5-.1.2-.5.6-1.4 1.1-9.8 6-11.1 13.7-11.2 14v.7c.5 2.6.9 5.2 1.2 7.9l-27.5 22.3c-.2-1.9-.4-4.4-.9-6.9-1.5-7.9-4-11.9-7.8-12.3-3.8-.4-7.1 3-10.2 10.4-2 4.9-3.2 9.9-3.3 10.1-.2 1 .4 2 1.4 2.2 1 .3 2-.4 2.3-1.4 1.8-7.6 6.1-18 9.4-17.6 3.2.3 5.2 10.5 5.6 18.3L338.2 235c-.8.6-.9 1.8-.3 2.6 3.7 4.6 8.2 8.2 13.1 11-.9 0-1.8-.1-2.7-.2-10.6-1.1-20.4-6.4-26.8-14.6-.6-.8-1.8-1-2.6-.3-.8.6-1 1.8-.3 2.6 7 9 17.7 14.8 29.4 16 3.5.4 7.1.3 10.5-.2 3.4 1.2 7 2 10.6 2.3 12.4 1.3 25.5-2.2 36.1-10.8 20.6-16.8 24.2-46.8 7.9-66.8zm-10.4 64c-18.6 15.1-45.5 13.3-60.7-3.9l1.7-1.4c5.7 6.2 13.5 9.9 22.2 10.8 5.7.6 11.7 0 17.7-2 1-.3 1.5-1.4 1.2-2.4-.3-1-1.4-1.5-2.4-1.2-13.5 4.4-27.4 1.4-35.8-7.7l60.2-48.8c10.1 14.3 5.7 35.7-10.3 48.7-2.3 1.9-4.9 3.6-7.5 4.9-.8.4-1.2 1.5-.9 2.3.4 1 1.6 1.5 2.6 1 2.8-1.5 5.6-3.3 8.1-5.3 17.7-14.3 22.3-38.1 10.9-54l1.7-1.4c13.7 18.6 10 45.3-8.7 60.4z"/><circle transform="rotate(-84.07 358.42 229.52)" class="st3" cx="358.4" cy="229.5" r="3.2"/><circle transform="rotate(-84.077 369.302 236.487)" class="st3" cx="369.3" cy="236.5" r="3.2"/><circle transform="rotate(-84.077 372.693 225.966)" class="st3" cx="372.7" cy="226" r="3.2"/><circle transform="rotate(-84.077 384.11 231.336)" class="st3" cx="384.1" cy="231.3" r="3.2"/><circle transform="rotate(-84.077 387.282 220.146)" class="st3" cx="387.3" cy="220.2" r="3.2"/><circle transform="rotate(-84.077 397.483 220.488)" class="st3" cx="397.5" cy="220.5" r="3.2"/><circle transform="rotate(-84.077 380.384 211.66)" class="st3" cx="380.4" cy="211.7" r="3.2"/><circle transform="rotate(-84.077 394.566 208.223)" class="st3" cx="394.6" cy="208.2" r="3.2"/><circle transform="rotate(-84.077 405.57 207.068)" class="st3" cx="405.6" cy="207.1" r="3.2"/><circle transform="rotate(-84.077 400.96 194.97)" class="st3" cx="401" cy="195" r="3.2"/></g></svg>