<svg xmlns="http://www.w3.org/2000/svg" viewBox="0 0 512 512"><path d="M396.283 159.998c-5.52 0-10 4.48-10 10s4.48 10 10 10 10-4.48 10-10-4.48-10-10-10zm-220.002-20c-5.52 0-10 4.48-10 10s4.48 10 10 10 10-4.48 10-10-4.48-10-10-10zm193.887 45.646c-4.282-3.487-10.582-2.842-14.069 1.44-10.7 13.142-17.447 29.032-19.512 45.953-.668 5.483 3.233 10.469 8.715 11.138.411.05.819.074 1.224.074 4.982 0 9.295-3.719 9.914-8.79 1.606-13.173 6.852-25.533 15.168-35.746 3.486-4.283 2.842-10.582-1.44-14.069z"/><path d="M463.939 134.97l-32.09-14.919a29.917 29.917 0 01-17.122-30.887l4.34-35.138c2.092-16.898-6.527-32.468-21.958-39.664-15.434-7.199-32.901-3.791-44.508 8.673l-24.108 25.909a29.919 29.919 0 01-34.665 6.745l-32.059-14.99c-11.125-5.203-23.589-4.951-34.196.692a39.432 39.432 0 00-8.395 6.018l-6.562-20.744C207.367 10.466 192.973 0 175.942 0h-.007c-17.028.002-31.417 10.471-36.68 26.733l-10.878 34.414a30.08 30.08 0 01-19.274 19.293l-.096.032-.015.004a30.025 30.025 0 01-9.19 1.431l-35.39-.04h-.045c-17.006 0-31.389 10.448-36.647 26.629-5.266 16.199.242 33.128 14.035 43.129l28.648 20.759c10.584 7.672 14.97 21.17 10.911 33.595l-10.97 33.649c-5.278 16.192.213 33.123 13.991 43.134 13.768 10.004 31.565 10.008 45.345-.021l28.611-20.84a30.015 30.015 0 019.651-4.653l52.549 185.674-30.794-15.397c-19.961-9.986-43.415 4.552-43.415 26.834v15.279c0 22.289 23.463 36.816 43.412 26.835l36.587-18.295V502c0 5.522 4.477 10 10 10 5.522 0 10-4.478 10-10v-23.819l36.585 18.293c19.931 9.97 43.415-4.529 43.415-26.834v-15.279c0-22.359-23.525-36.785-43.413-26.835l-29.725 14.863 55.892-172.602 10.866 19.644c8.214 14.848 24.306 22.437 41.085 19.173 16.717-3.253 28.847-16.279 30.901-33.186l4.271-35.104c1.573-12.971 11.254-23.35 24.092-25.826l34.752-6.721c16.723-3.235 28.867-16.25 30.94-33.155 2.075-16.902-6.562-32.462-22.003-39.642zM180.747 478.588c-6.64 3.325-14.466-1.514-14.466-8.948v-15.279c0-7.4 7.793-12.287 14.468-8.946l33.172 16.586-33.174 16.587zm111.069-33.175c6.639-3.326 14.466 1.513 14.466 8.947v15.279c0 7.429-7.82 12.274-14.468 8.946l-33.172-16.586 33.174-16.586zM147.427 67.241l10.878-34.415c3.06-9.455 11.115-12.825 17.634-12.826h.003c6.521 0 14.581 3.37 17.625 12.763l10.935 34.568a49.744 49.744 0 003.653 8.474c.12.24.251.474.39.702a50.137 50.137 0 002.158 3.49h-69.54a50.073 50.073 0 006.264-12.756zm-11.147 72.756H59.792l-6.301-4.565c-8.054-5.839-8.768-14.549-6.752-20.753 2.014-6.195 7.7-12.811 17.626-12.811h.024l35.401.04a50.07 50.07 0 0013.721-1.91h124.87a50.095 50.095 0 0013.732 1.91l35.398-.04h.024c9.928 0 15.615 6.617 17.628 12.813 2.015 6.201 1.299 14.905-6.756 20.742l-6.303 4.574H216.28c-5.523 0-10 4.478-10 10s4.477 9.9 10 9.9h48.837c-11.191 10.331-16.947 25.161-15.928 40.1H102.696a49.784 49.784 0 00-15.911-40h49.495c5.523 0 10-4.478 10-10s-4.477-10-10-10zm10.233 105.738l-28.607 20.838c-8.041 5.851-16.542 3.842-21.816.009-5.275-3.833-9.814-11.298-6.732-20.754l8.421-25.83h156.329l8.417 25.813c3.086 9.454-1.449 16.918-6.722 20.751-5.275 3.834-13.776 5.845-21.818-.01l-28.608-20.818c-17.61-12.819-41.266-12.819-58.864.001zm90.412 181.817l-47.619-168.256a30.24 30.24 0 014.302 2.609l28.609 20.818c13.77 10.022 31.569 10.027 45.345.017 12.637-9.186 18.291-24.196 15.061-39.108a30.238 30.238 0 0112.08 5.495l-57.778 178.425zm229.168-255.376c-.794 6.474-5.122 14.064-14.888 15.954l-34.746 6.719c-21.394 4.129-37.53 21.431-40.152 43.052l-4.271 35.102c-1.2 9.873-8.468 14.723-14.868 15.968-6.399 1.25-14.952-.523-19.764-9.222-8.803-15.034-19.875-38.628-25.777-42.361-9.451-9.309-22.337-14.452-35.501-14.376a10631.781 10631.781 0 00-5.195-15.906c.044.131.091.27-.033-.121l-.32-.991a29.914 29.914 0 0110.914-33.601l19.445-14.101.028-.021.125-.091c.045-.031.091-.058.135-.09l8.925-6.477c13.788-9.992 19.298-26.915 14.036-43.113-5.257-16.184-19.639-26.534-36.65-26.534h-.046l-35.388.04c-3.15 0-6.246-.581-9.202-1.531-.018-.006-.035-.013-.053-.018l-.038-.013a29.845 29.845 0 01-14.984-10.873c1.599-4.402 4.904-8.268 9.14-10.522 5.079-2.701 10.878-2.783 16.332-.232l32.06 14.99c19.893 9.303 42.767 4.89 57.777-11.236l24.108-25.91c6.776-7.278 15.505-6.929 21.414-4.173 5.907 2.755 11.784 9.214 10.563 19.084l-4.341 35.139c-2.672 21.606 8.796 42.293 28.539 51.475l32.091 14.92c9.015 4.192 11.379 12.6 10.585 19.07z"/></svg>