<svg xmlns="http://www.w3.org/2000/svg" xmlns:xlink="http://www.w3.org/1999/xlink" viewBox="0 0 552.6 500.5"><path d="M166.9 444.6h48v16h-48v-16zm-64-32h48v16h-48v-16zm0 32h48v16h-48v-16zm256-32h48v16h-48v-16zm0 32h48v16h-48v-16zm63.7 0h39.5v16h-39.5v-16zm-127.7 0h40v16h-40v-16z"/><path d="M474 348.6h-48.6l24-16h27.8l-3.2 16zm-53.5-16L254.9 443 89.3 332.6m357.6-16h-424c-2.4 0-4.7 1.1-6.2 2.9-1.5 1.9-2.1 4.3-1.6 6.7l26.8 134.2c3.8 18.7 20.2 32.1 39.2 32.1h339.4s35 4.9 46-32.1l4.6-15.9 23.7-118.4c.5-2.4-.1-4.8-1.6-6.7-1.5-1.9-3.8-2.9-6.2-2.9h-24M60.5 332.6l24 16H35.9l-3.2-16h27.8zm368.3 143.3c-4.2.5-57.3.8-73.7.8H81.2c-10.1 0-19.2-6.4-22.6-16h28.3v-16H55.1l-3.2-16h35v-16H48.7l-3.2-16h41.4v-16H42.3l-3.2-16h47.8v-14.4l45.6 30.4h-29.6v16h48V393l29.6 19.7h-13.6v16h37.6l46 30.7c2.7 1.8 6.2 1.8 8.9 0l45.9-30.7h37.6v-16h-13.6l29.6-19.7v3.7h48v-16h-29.6l45.6-30.4v14.4h47.8l-3.2 16h-44.6v16h41.4l-3.2 16h-38.2v16h35l-3.2 16c-5.2 18.4-9.6 29.2-25.9 31.2zm1.6-188.5c-1.3-5.8-1.6-10.6-.8-14.1.3-1.4.9-2.7 1.6-4.1.7-1.5 1.4-3 1.9-4.9 2.1-7.6.2-12.8-1.7-15.7-3.1-4.7-8.8-7.6-15.2-7.6s-12.1 2.8-15.2 7.6c-1.9 3-3.8 8.1-1.7 15.7.5 1.9 1.2 3.4 1.9 4.9.7 1.4 1.3 2.7 1.6 4.1.8 3.5.5 8.3-.8 14.1-1.5 4-2.7 9.1-3.3 14.1-.6 5.3-.6 9.4 1.5 12.1 1.4 1.8 3.3 2.6 6.1 2.6h19.9c2.7 0 4.7-.9 6.1-2.6 2.1-2.7 2.1-6.8 1.5-12.1-.6-5-1.9-10.1-3.4-14.1zm-1.7 22.7c-.4.5-1.2.8-2.5.8h-19.9c-1.3 0-2.1-.3-2.5-.8-1.1-1.4-.6-6.1-.3-7.9.6-4.6 1.7-9.3 3.1-12.9.1-.1.1-.3.1-.4 1.6-6.9 1.9-12.5.8-17-.5-2-1.2-3.7-2-5.3-.6-1.3-1.2-2.6-1.6-4-1.2-4.4-.9-8.1 1-11 2.2-3.3 6.5-5.4 11.4-5.4 4.8 0 9.2 2.1 11.4 5.4 1.9 2.9 2.2 6.5 1 11-.4 1.4-1 2.7-1.6 4-.7 1.6-1.5 3.3-2 5.3-1 4.5-.8 10.1.8 17 0 .1.1.3.1.4 1.4 3.6 2.5 8.3 3.1 12.9.2 1.8.7 6.5-.4 7.9z"/><path d="M441.4 274.3c3.3-7.7 4.4-15.3 3.1-22.7-1.2-6.9-4.5-13.8-9.8-20.5v-7.7c0-3.1-2.2-5.6-5-5.6h-1.5l-4.2-19.7c-1.1-5.1-3.4-6.2-5.1-6.2h-5c-1.7 0-4 1.1-5.1 6.2l-4.2 19.7h-1.5c-2.8 0-5 2.5-5 5.6v7.7c-5.3 6.7-8.6 13.6-9.8 20.5-1.3 7.4-.2 15 3.1 22.7 1.7 3.9 1.9 5.5 1 7.8-4.1 10.6-7.3 29.9-1.6 39.9 2.5 4.3 6.5 6.6 11.5 6.6h28.4c5 0 9-2.3 11.5-6.6 5.8-10 2.6-29.4-1.6-39.9-1.1-2.3-.9-3.9.8-7.8zm-28.1-75c.3-1.3.6-1.9.7-2.1h4.6c.1.2.4.8.7 2.1l4 18.4h-13.9l3.9-18.4zm-10.7 24.1c0-.2.1-.3.3-.3h26.8c.1 0 .3.1.3.3v6.1h-27.3l-.1-6.1zm35.4 95.8c-1.6 2.8-4.1 4.2-7.6 4.2H402c-3.5 0-5.9-1.4-7.6-4.2-4.5-7.9-1.8-25.3 1.9-34.8 1.9-4.9.6-8.6-1-12.4-5.6-12.9-3.7-25 5.9-37.1h29.9c9.6 12.1 11.5 24.3 5.9 37.1-1.6 3.7-2.9 7.5-1 12.4 3.8 9.5 6.6 26.9 2 34.8zm-144.9-48.7c1.6-.8 2.2-2.8 1.4-4.4-.7-1.5-2.4-2.2-4-1.7.7-3.7-4.5-5.5-6.2-2.1-.9-1.3-2.7-1.8-4.2-1.1-1.6.8-2.3 2.7-1.6 4.3-6.4.8-12.1 5.2-14.3 11.7-3.1 9.1 1.7 19.1 10.8 22.2 9.1 3.1 19.1-1.7 22.2-10.8 2.2-6.6.4-13.5-4.1-18.1zm-15.9 22.6c-5.6-1.9-8.7-8.1-6.7-13.8 1.7-4.8 6.4-7.7 11.3-7.3.2.2.7 1.6 2.3 2 1.3.3 2-.2 2.5-.4 4.1 2.6 6.1 7.8 4.4 12.6-2 5.8-8.2 8.8-13.8 6.9z"/><path d="M343 150.3l-5.8 17c-4.4-1.5-25.5-8.8-30-10.3l5.8-17m-2.2 25.3l18.4 6.3-7.6 22.2-18.4-6.3 7.6-22.2zm-.4 166.2l26.5-74.8c3.6-10.7 1.4-22.8-5.8-31.6-5.7-7-7.5-16.6-4.6-25.1.6-.8 0 .2 9.2-26.3 3.3.7 6.6-1.1 7.8-4.3l5.8-17c1.2-3.5-.7-7.3-4.1-8.4l-30-10.3c-3.5-1.2-7.3.7-8.4 4.1l-5.8 17c-1.1 3.3.5 6.9 3.6 8.2l-9 26.3c-2.2 6.5-6.8 11.8-13 14.9-1.6.8-2.3 2.8-1.5 4.5.8 1.6 2.8 2.3 4.5 1.5 7-3.5 12.4-9.3 15.4-16.5l18.6 6.4c-2.7 10.1-.3 21.2 6.4 29.3 5.7 7 7.5 16.6 4.6 25.2l-1.9 5.6-71.7-24.6c1.3-2.4 2.8-15.5 16.6-21.3 1.7-.7 2.5-2.7 1.8-4.3-.7-1.7-2.7-2.5-4.4-1.8-8.6 3.6-15.3 10.8-18.4 19.6l-32.1 93.3 6.3 2.2 8.1-23.5 63.3 21.7c1.7.6 3.6-.3 4.2-2.1.6-1.7-.3-3.6-2.1-4.2L237 293.5l17.7-51.6 71.7 24.6-17.7 51.6-10.7-3.7c-1.7-.6-3.6.3-4.2 2.1-.6 1.7.3 3.6 2.1 4.2l10.7 3.7-2.5 4.9 6.3 2.2zm-153.5-125c-.5 1.6.5 3.4 2.1 3.8.3.1.6.1.8.1 1.4 0 2.6-.9 3-2.3.5-1.9 1.1-3.7 1.6-5.6-1.8-2.3-3.4-4.4-4.7-6.1-.9 3.4-1.8 6.8-2.8 10.1zm-98.3 41.6c5.8-8.2 12.1-16.4 18.5-24.2h5.7c-1.5 4.8-2.9 9.7-4.3 14.7-.5 1.6.5 3.4 2.1 3.8.3.1.6.1.8.1 1.4 0 2.6-.9 3-2.3 1.6-5.6 3.2-11.1 4.8-16.4h9.6c1.6 5.3 3.3 10.8 4.8 16.4.4 1.4 1.6 2.3 3 2.3.3 0 .6 0 .8-.1 1.6-.5 2.6-2.2 2.1-3.8-1.4-5-2.9-9.9-4.3-14.7h5.8c6.4 7.8 12.5 15.8 18.4 24 .6.9 1.3 1.8 1.9 2.7-2.8-1.6-6.4-3.1-11.9-3.1-7.3 0-11.1 2.5-14.4 4.7-3 2-5.6 3.6-11.1 3.6s-8.1-1.7-11.1-3.6c-3.4-2.2-7.1-4.7-14.4-4.7-5.3 0-8.8 1.3-11.5 2.9.6-.7 1.2-1.5 1.7-2.3zm-8.9 13.2c3.3-.9 5.7-2.4 7.8-3.8 3-2 5.6-3.6 11.1-3.6s8.1 1.7 11.1 3.6c3.4 2.2 7.2 4.7 14.4 4.7 7.3 0 11.1-2.5 14.5-4.7 3-2 5.6-3.6 11.1-3.6s8.1 1.7 11.1 3.6c2.2 1.4 4.6 3 8.1 3.9 3.8 5.8 7.5 11.7 10.9 17.6-1.2.3-2.7.5-4.5.5-5.5 0-8.1-1.7-11.1-3.6-3.4-2.2-7.2-4.7-14.4-4.7-7.3 0-11.1 2.5-14.4 4.7-3 2-5.6 3.6-11.1 3.6s-8.1-1.7-11.1-3.6c-3.4-2.2-7.1-4.7-14.4-4.7s-11.1 2.5-14.4 4.7c-3 2-5.6 3.6-11.1 3.6-1.6 0-3-.1-4.3-.4 3.2-6 6.8-11.9 10.7-17.8zM151 308.6c-4.8 8.8-13.6 14.3-23.6 14.7-13 .6-26.1.9-38.8.9-9.3 0-18.6-.2-27.6-.5-10.1-.3-19-5.8-23.9-14.6l-.3-.6c1.8.4 3.8.7 6.2.7 7.3 0 11.1-2.5 14.5-4.7 3-2 5.6-3.6 11.1-3.6s8.1 1.7 11.1 3.6c3.4 2.2 7.2 4.7 14.5 4.7s11.1-2.5 14.4-4.7c3-2 5.6-3.6 11.1-3.6s8.1 1.7 11.1 3.6c3.4 2.2 7.2 4.7 14.4 4.7 2.2 0 4.1-.3 5.8-.6zm1.5-24c2.1 5.2 2.5 10.8 1.4 16.1-2.2 1.3-4.7 2.3-8.9 2.3-5.5 0-8.1-1.7-11.1-3.6-3.4-2.2-7.2-4.7-14.4-4.7-7.3 0-11.1 2.5-14.4 4.7-3 2-5.6 3.6-11.1 3.6s-8.1-1.7-11.1-3.6c-3.4-2.2-7.1-4.7-14.4-4.7s-11.1 2.5-14.4 4.7c-3 2-5.6 3.6-11.1 3.6-4.2 0-6.7-1-8.9-2.3-1-5.4-.5-10.9 1.6-16 2.2.7 4.6 1 7.3 1 7.3 0 11.1-2.5 14.4-4.7 3-2 5.6-3.6 11.1-3.6s8.1 1.7 11.1 3.6c3.4 2.2 7.2 4.7 14.5 4.7s11.1-2.5 14.5-4.7c3-2 5.6-3.6 11.1-3.6s8.1 1.7 11.1 3.6c3.4 2.2 7.2 4.7 14.5 4.7 2.5 0 4.9-.4 7.2-1.1zm56.6-35.7c3.4 2.2 7.5 2.8 14.8 2.8 2.7 0 4.8 1.5 7.1.8 2.1 5.2 2.7 3.7 1.6 9.1l5.3 4.3c2.8-9.2 1.5-11.9-3.3-20.3-4.3-7.4-8.9-14.9-13.8-22.2-2.5 3.3-4.2 5.5-4.2 5.5h-.6l1.2.3c3.8 5.8 7.5 11.7 10.9 17.6-1.2.3-2.7.5-4.5.5-5.5 0-5 .3-8.1-1.7l-6.4 3.3zm-24.7-5.7c-.9.5 0 0-.8.5-3 2-5.6 3.6-11.1 3.6s-8.1-1.7-11.1-3.6c-3.4-2.2-7.1-4.7-14.4-4.7-6.5 0-10.2 2-13.3 3.9-2.5-3.5-5.1-7-7.7-10.5.7-1.1 1.4-2.2 2.2-3.3 3.3-.9 5.7-2.5 7.8-3.8 3-2 5.6-3.6 11.1-3.6s8.1 1.7 11.1 3.6c3.4 2.2 7.2 4.7 14.5 4.7 5.1 0 8.5-1.2 11.2-2.7-.9-1.2-2.3-2.9-3.9-5-1.9.9-4.1 1.5-7.3 1.5-5.5 0-8.1-1.7-11.1-3.6-3.4-2.2-7.1-4.7-14.4-4.7-5.3 0-8.8 1.3-11.6 2.9.5-.8 1.1-1.6 1.6-2.3 5.8-8.2 12.1-16.4 18.5-24.2h.6c-1.3-1.8-.9-2.2-.5-2.7s1-.7 1.6-.4c2.8 1 6.8 1.2 10.9-3.1h-.4c-1.4-5.3-2.8-10.8-4-16.4-.4-1.7-2-2.7-3.7-2.4-1.7.4-2.7 2-2.4 3.7 1.1 5.1 2.3 10.1 3.6 15h-5.7c-8-11.2-14.6-22.8-19.8-34.6 13.3-1.2 26.5-1.8 39.4-1.8 14.4 0 25.9.7 33.9 1.5-5.2 11.8-11.9 23.5-19.9 34.7l-.1.1h-5.7c1.3-5 2.5-10 3.6-15 .4-1.7-.7-3.3-2.4-3.7s-3.3.7-3.7 2.4c-1.1 4.8-2.2 9.7-3.5 14.5.2.2.4.4.6.7 2.2 2.8 5.4 4.4 9 4.4 3.5 0 6.8-1.6 9-4.4.7-.9 1.6-1.5 2.7-1.9 7.1-10.9 13.1-22 17.8-33.3.4-.9.3-1.9-.2-2.8-.5-.8-1.4-1.4-2.3-1.5-8.1-.9-21.4-2-38.8-2-14.4 0-29.3.7-44.2 2.2-1 .1-1.9.6-2.4 1.5-.5.8-.6 1.9-.2 2.8 5.5 13.3 12.8 26.4 21.7 39.1-6.3 7.7-12.4 15.8-18.2 23.9-3.5 4.9-6.9 9.9-10.1 14.9-1.8-2.3-3.7-4.6-5.5-6.9 8.9-12.7 16.2-25.8 21.7-39.1.4-.9.3-1.9-.2-2.8-.5-.8-1.4-1.4-2.3-1.5-8.1-.9-21.4-2-38.8-2-3 0-6.1 0-9.2.1-1.7 0-3.1 1.5-3 3.2 0 1.7 1.4 3.1 3.2 3 3-.1 6.1-.1 9.1-.1 14.4 0 25.9.7 33.9 1.5-5.2 11.8-11.9 23.5-19.9 34.8 0 0 0 .1-.1.1h-5.7c1.3-5 2.5-10 3.6-15 .4-1.7-.7-3.3-2.4-3.7-1.7-.4-3.3.7-3.7 2.4-1.2 5.5-2.5 11-4 16.4h-9.3c-1.4-5.3-2.8-10.8-4-16.4-.4-1.7-2-2.7-3.7-2.4-1.7.4-2.7 2-2.4 3.7 1.1 5.1 2.3 10.1 3.6 15h-5.7c-8-11.2-14.6-22.8-19.8-34.6 6-.5 12-.9 18-1.2 1.7-.1 3-1.5 2.9-3.3-.1-1.7-1.5-3-3.3-2.9-7.5.4-15.1.9-22.6 1.7-1 .1-1.9.6-2.4 1.5s-.6 1.9-.2 2.8c5.5 13.3 12.8 26.4 21.7 39.1-6.3 7.7-12.4 15.8-18.2 23.9-7.8 11-15 22.3-21.6 33.6-6.1 10.6-6.2 23.3-.3 34 6 10.7 16.8 17.4 29.1 17.8 9.1.3 18.4.5 27.8.5 12.8 0 25.9-.3 39-.9 12.2-.5 22.9-7.3 28.7-17.9 2.3-4.2 3.7-8.7 4.1-13.3v-6.2c-.4-5-1.9-9.9-4.5-14.4-1.6-2.8-3.3-5.7-5.1-8.5 2.9.6 4.9 1.9 7 3.3l3.4-5.2c-3.4-2.2-7.1-4.7-14.4-4.7h-.1c-3.1-4.9-6.3-9.7-9.7-14.5 2.5-1.6 5.1-2.8 9.7-2.8 5.5 0 8.1 1.7 11.1 3.6 3.4 2.2 7.2 4.7 14.5 4.7s11.1-2.5 14.4-4.7l.4-.3-2.3-5.5zm1-43.6c-1.4.7-2 2.4-1.4 3.8l3 6.4c1-.8 1.5-2 1.1-3.3-.7-2.4-1.4-4.8-2-7.1-.2.1-.5.1-.7.2zm4.9 17.1l2.7 5.7c1.4-.4 3-.6 5.1-.6h.9l-2.9-6.2c-2.3.2-4.2.6-5.8 1.1zm12.2 5.5c2.1.5 3.7 1.3 5.2 2.3l5.6-11.9c-.1-.1-.2-.2-.2-.3-1.2-1.7-2.4-3.3-3.6-4.9l-3 6.4 1.5 2.1c.6.9 1.3 1.8 1.9 2.7-1.4-.8-2.9-1.5-4.7-2.1l-2.7 5.7z"/><path d="M387.3 233.3c0-4.3-1.4-8.5-4-11.9l-1-1.4c.8-1 1.4-2.2 1.4-3.6 0-3-2.4-5.4-5.4-5.4h-36.1c-3 0-5.4 2.4-5.4 5.4 0 1.4.5 2.6 1.4 3.6l-1 1.4c-2.6 3.4-4 7.7-4 11.9v75.3c0 .3.1.6.2.8l2.1 4.2c.7 1.4 1.8 2.5 3.1 3.2v.8c0 3 2.4 5.4 5.4 5.4h32.5c3 0 5.4-2.4 5.4-5.4v-.8c1.3-.7 2.4-1.8 3.1-3.2l2.1-4.2c.1-.3.2-.5.2-.8v-75.3zm-3.7-1.4c-3.2.6-6.5.9-9.9.9-11.9 0-23.2-3.6-32.8-10.5l.3-.4h37.9l1.3 1.7c1.8 2.4 2.9 5.3 3.2 8.3zm-41.4-17.2h36.1c1 0 1.8.8 1.8 1.8s-.8 1.8-1.8 1.8h-36.1c-1 0-1.8-.8-1.8-1.8s.8-1.8 1.8-1.8zm34.3 104.7H344c-1 0-1.8-.8-1.8-1.8h36.1c0 1-.8 1.8-1.8 1.8zm5.3-7.4c-.6 1.2-1.9 2-3.2 2h-36.7c-1.4 0-2.6-.8-3.2-2l-.8-1.6h44.7l-.8 1.6zm-13.5-55.8h1v3.6h-1c-5.6 0-11.1-1.3-16.1-3.8-.6-.3-1-.9-1-1.6v-3.6c0-.7.4-1.3 1-1.6 5-2.5 10.5-3.8 16.1-3.9h1v3.6h-1c-1.5 0-3 .2-4.5.4v6.5c1.5.3 3 .4 4.5.4zm-2.7 12.7v-7.2h3.6v9c0 1-.8 1.8-1.8 1.8h-16.3v-3.6h14.5zm0 30.6v-5.4H362v-3.6h3.6c2 0 3.6 1.7 3.6 3.6v5.4c0 2-1.6 3.6-3.6 3.6h-10.8c-2 0-3.6-1.6-3.6-3.6v-5.4c0-2 1.6-3.6 3.6-3.6h3.6v3.6h-3.6v5.4h10.8zm-1.8-10.8h-7.2c-3 0-5.4-2.4-5.4-5.4v-3.6c0-3 2.4-5.4 5.4-5.4h7.2c3 0 5.4 2.4 5.4 5.4v3.6c0 3-2.4 5.4-5.4 5.4zm19.9-50.4c-4.4 1.1-9 1.7-13.5 1.7-11.9 0-23.3-3.7-32.9-10.5.4-1.5.9-2.9 1.7-4.2 10.1 7.2 22.1 11 34.8 11 3.3 0 6.7-.3 9.9-.8v2.8zm-28.9 14.9c1.7.8 3.5 1.4 5.4 1.9V250c-1.8.5-3.7 1.1-5.4 1.9v1.3zm9 24.7h-7.2c-1 0-1.8.8-1.8 1.8v3.6c0 1 .8 1.8 1.8 1.8h7.2c1 0 1.8-.8 1.8-1.8v-3.6c0-1-.8-1.8-1.8-1.8z"/><defs><path id="a" d="M72.7 39.8h71v139.1h-71z"/></defs><clipPath id="b"><use xlink:href="#a" overflow="visible"/></clipPath><g clip-path="url(#b)"><path d="M137.7 147.3c0-12.6-4-25-11.7-35.7-5-7.1-7.7-15.1-7.7-23.1v-7.2c1.3-.7 2.2-1.9 2.2-3.3V49.4c0-3-2.8-5.4-6.3-5.4h-18c-3.5 0-6.3 2.4-6.3 5.4V59c0 1.3 1.2 2.3 2.7 2.3s2.7-1 2.7-2.3v-9.5c0-.4.4-.8.9-.8h17.9c.5 0 .9.3.9.8v27.7H95.3v-8.1c0-1.3-1.2-2.3-2.7-2.3s-2.7 1-2.7 2.3V78c0 1.4.9 2.6 2.2 3.3v7.2c0 8-2.7 16-7.7 23.1-7.6 10.7-11.7 23-11.7 35.7v45.4c0 5.6 5.3 10.1 11.7 10.1h41.5c6.5 0 11.7-4.5 11.7-10.1l.1-45.4zm-59.6 2.3h9.6c.4 4.3 2.1 8.3 4.7 11.4 3.3 3.9 7.8 6.1 12.7 6.1s9.3-2.2 12.7-6.1c2.7-3.1 4.3-7.1 4.7-11.4h9.6v29.3h-54v-29.3zM89 114c5.6-7.8 8.5-16.7 8.5-25.6v-6.6h15.4v6.6c0 8.9 2.9 17.7 8.5 25.6 6.6 9.3 10.4 20 10.8 30.9h-9.6c-.2-1.9-.6-3.7-1.3-5.5-.5-1.2-2-1.9-3.4-1.5s-2.2 1.7-1.7 2.9c.8 2 1.2 4.2 1.2 6.4 0 8.3-5.4 15.1-12.1 15.1s-12.3-6.7-12.3-15 5.4-15.1 12.1-15.1c1.8 0 3.6.5 5.3 1.5 1.2.7 2.9.5 3.8-.5s.6-2.5-.6-3.2c-2.6-1.6-5.5-2.4-8.4-2.4-4.8 0-9.3 2.2-12.7 6.1-2.7 3.1-4.3 7.1-4.7 11.4h-9.6c.4-11.1 4.1-21.8 10.8-31.1zm36.9 84.1H84.4c-3.5 0-6.3-2.4-6.3-5.4v-9.1h54.1v9.1c0 2.9-2.8 5.4-6.3 5.4z"/><path d="M91.5 169.7h-4.6c-1.5 0-2.7 1-2.7 2.3s1.2 2.3 2.7 2.3h4.6c1.5 0 2.7-1 2.7-2.3s-1.2-2.3-2.7-2.3zm31.9 0h-4.6c-1.5 0-2.7 1-2.7 2.3s1.2 2.3 2.7 2.3h4.6c1.5 0 2.7-1 2.7-2.3s-1.2-2.3-2.7-2.3z"/></g><defs><path id="c" d="M213 147.9c-4.9 11.2-10.5 22.1-16.7 32.6-1.6 2.7-3.3 5.6-3 8.7.3 2.8 2.1 5.1 3.9 7.2 5 6.1 9.9 12.2 14.9 18.3 3.8 4.7 7.5 12 13.6 11.7 35.5-1.5 38.6-20.5 56.7-20.1 2.2 0-1.6 3.1.6 2.6 2.5-.6 4.4.1 6.2-1.7 10.2-10.1 15.9-24.5 15.4-38.9-.2-5.2-1.1-10.3-1.1-15.4.2-16.8 10.8-32 11.8-48.8.9-16-7.1-31.1-16.6-44-2.9-3.9-6-7.7-10-10.3-7.9-5.1-17.9-4.8-27.3-4.2-23 1.5-46 4.1-68.8 7.7-6.9 1.1-14 2.4-20.2 5.8-13.9 7.7-20.2 25.1-19.2 41 .6 10 5.5 38.3 14.3 44.5 1.9 1.6 45.5 3.3 45.5 3.3z"/></defs><clipPath id="d"><use xlink:href="#c" overflow="visible"/></clipPath><path d="M189.9 213.4l-.9.6 2.3 4.9 1.7-1.3 5.2 3c.1 0 .2.1.2.1l-3.9-8.2c-1.5-.4-3.2-.1-4.6.9zm1.7-7.3l-2.4-5.1s0-.1-.1-.1l-2.9.2c-.2-.5-.3-1-.5-1.6-.1 0-.3.1-.4.1-1.4.7-2 2.4-1.4 3.8l3.3 7.1-.2-4.2 4.6-.2zm24.7-6.5c-.3-.1-.6-.2-.9-.2l-1 .1c-.8.2-1.5.7-1.9 1.5l-1.9 4 6.5-.4.6-1.2c.6-1.4 0-3.1-1.4-3.8zm86.1-63.6c-1.5-20.6-5.3-41-11.4-60.7l-.6-11.1c-.1-2-1.3-3.7-3.1-4.5s-3.9-.6-5.4.6l-2.3 1.7-5.2-3.1c-1.8-1.1-4.2-.9-5.9.3l-4.8 3.6-5.2-3.1c-1.8-1.1-4.2-.9-5.9.3l-4.8 3.6-5.2-3.1c-1.8-1.1-4.2-.9-5.9.3l-4.8 3.6-5.2-3.1c-1.8-1.1-4.2-.9-5.9.3l-4.8 3.6-5.2-3.1c-1.8-1.1-4.2-.9-5.9.3l-4.8 3.6-5.2-3.1c-1.8-1.1-4.2-.9-5.9.3l-4.8 3.6-2.2-.8c-1.7-1-3.8-1-5.4.1-1.7 1-2.6 2.9-2.5 4.8l.6 11.1c-3.9 20.3-5.3 41-4.4 61.6.9 13.2 2.8 26.2 5.7 39.1.9.4 1.6 1 2.2 1.7 1.2 1.5 2.7 2.7 4.4 3.4-3.6-14.6-6-29.5-7.1-44.5-.9-19.6.5-39.3 4-58.6l106.9-6.1c5.7 18.8 9.3 38.2 10.7 57.7.9 19.6-.5 39.3-4 58.6l-52.9 3c-1.2 1.6-2.7 3.5-4.3 5.5l56.8-3.3.5 8.8-2.4-1.4c-1.8-1.1-4.2-1-5.9.3l-4.8 3.6-5.2-3c-1.8-1.1-4.2-1-5.9.3l-4.8 3.6-5.2-3c-1.8-1.1-4.2-.9-5.9.3l-4.8 3.6-5.2-3c-1.8-1.1-4.2-.9-5.9.3l-4.8 3.6-3.4-2c-1.1 1.4-2.2 2.9-3.2 4.2l4 2.3c1.8 1.1 4.2.9 5.9-.3l4.8-3.6 5.2 3c1.8 1.1 4.2.9 5.9-.3l4.8-3.6 5.2 3c1.8 1.1 4.2.9 5.9-.3l4.8-3.6 5.2 3c1.8 1.1 4.2 1 5.9-.3l4.8-3.6 2.4 1.4c1.7 1 3.8 1 5.4 0 1.7-1 2.6-2.9 2.5-4.8l-.6-11.1c4-20.1 5.5-40.8 4.5-61.5zM179.8 79.4l-.5-8.8 2.4 1.4c1.8 1.1 4.2.9 5.9-.3l4.8-3.6 5.2 3c1.8 1.1 4.2.9 5.9-.3l4.8-3.6 5.2 3c1.8 1.1 4.2.9 5.9-.3l4.8-3.6 5.2 3c1.8 1.1 4.2.9 5.9-.3l4.8-3.6 5.2 3c1.8 1.1 4.2.9 5.9-.3l4.8-3.6 5.2 3c1.8 1.1 4.2.9 5.9-.3l4.8-3.6 5.2 3c1.8 1.1 4.2.9 5.9-.3l2.3-1.7.5 8.8-106 6zm27.7 132.3l-4.4 9.3c.4-.2.7-.3 1-.6l4.8-3.6 1.9 1.1 2.3-4.8-1.5-.9c-1.3-.8-2.8-.9-4.1-.5z" clip-path="url(#d)"/><defs><path id="e" d="M213 147.9c-4.9 11.2-10.5 22.1-16.7 32.6-1.6 2.7-3.3 5.6-3 8.7.3 2.8 2.1 5.1 3.9 7.2 5 6.1 9.9 12.2 14.9 18.3 3.8 4.7 7.5 12 13.6 11.7 35.5-1.5 38.6-20.5 56.7-20.1 2.2 0-1.6 3.1.6 2.6 2.5-.6 4.4.1 6.2-1.7 10.2-10.1 15.9-24.5 15.4-38.9-.2-5.2-1.1-10.3-1.1-15.4.2-16.8 10.8-32 11.8-48.8.9-16-7.1-31.1-16.6-44-2.9-3.9-6-7.7-10-10.3-7.9-5.1-17.9-4.8-27.3-4.2-23 1.5-46 4.1-68.8 7.7-6.9 1.1-14 2.4-20.2 5.8-13.9 7.7-20.2 25.1-19.2 41 .6 10 5.5 38.3 14.3 44.5 1.9 1.6 45.5 3.3 45.5 3.3z"/></defs><clipPath id="f"><use xlink:href="#e" overflow="visible"/></clipPath><path d="M238.5 131.7c-2.8.2-5.6-.1-8.3-.7-4.3-.8-8.7-1.1-13-.7-9.4.6-10.2 6.7-10.1 11.2 0 .2 1.6 13.2 19.3 12.2 9-.5 12.5-8.3 16.3-16.6 1.1-2.4 2.2-4.8 3.4-7-2.4 1-5 1.5-7.6 1.6zm18.8-6.3c-4.4 2.3-7 7.9-9.8 13.9-.6 1.4-1.3 2.9-2 4.3 2.3.7 4.6.9 6.9.7 9.2-.5 12.7-10.4 12.5-14-.1-2.5-.3-5.2-7.6-4.9zm31.9 11.4c-1.3-21.9-26-38.3-55.2-36.6-29.2 1.7-51.9 20.8-50.6 42.7 1.3 21.8 26.1 38.3 55.2 36.6 29.2-1.7 51.9-20.8 50.6-42.7zm-36.5 12.6c-3.3.3-6.6-.1-9.7-1.2-3.4 5.6-8.1 10.2-16.2 10.7-19.4 1.2-24.5-12.3-25-17.2-.5-10.1 4.9-16.2 15-16.8 4.8-.5 9.6-.2 14.3.8 2.3.6 4.6.8 7 .6 3.3-.1 6.6-1.1 9.3-2.9 2.7-1.7 5.7-2.9 8.9-3.4 3.2-.2 13.2-.8 13.8 9.8.4 6.7-5.1 18.9-17.4 19.6z" clip-path="url(#f)"/><defs><path id="g" d="M370.4 212.3c3.2 0 6.5 0 9.3 1.5s1.9 5 .6 7.9c.5 7.3 18.7-9.9 24.5-17.1 1.6-2 6.1-5.1 7.9-7 5.2-5.4 12.2-12.5 17.8-17.5 8-7.1 13.1-11.2 17.2-17.1.8-1.2 2.1-4.4 2.5-5.8.7-1.9-.1-4.3-1.6-5.6-15.1-13.9-26.2-28.6-42.4-39.3-.8-.5-.5-2.5-1.4-2.5-.8.1-1.5.6-2.2 1.1-8.3 6.1-16.8 12.4-23.4 20.3-5 6-8.3 8.7-13.5 14.5-4 4.6-10 9.4-14.5 13.5-7 6.4-15.7 12.4-22 19.5-3.5 4-4 12.5-6.1 17.4-.8 1.8-1.4 3.8-1.3 5.8.2 4.8-.3 16.9 3.2 20.2 3.5 3.2 9.7 17.7 13-8.7 10.6-1.2 21.7-1 32.4-1.1z"/></defs><clipPath id="h"><use xlink:href="#g" overflow="visible"/></clipPath><g clip-path="url(#h)"><path d="M448 157.3l-44.1-44.1c-.9-.9-2.4-.9-3.3 0l-50.1 50.1 3.3 3.3 48.5-48.5 40.8 40.8-27.6 27.6-68.3-18.2c-.8-.2-1.7 0-2.2.6l-34.8 34.8c-.9.9-.9 2.4 0 3.3l44.1 44.1c.9.9 2.4.9 3.3 0l90.5-90.5c.8-.9.8-2.3-.1-3.3zm-39.6 32.2l-24.2 8.7-27.7-22.5 51.9 13.8zm-52.6 56.7L315 205.4l-1.2 1.2 40.8 40.8 1.2-1.2zm2.1-2l-40.8-40.8 28-28 1.6-1.6 35.5 28.9c.6.5 1.5.7 2.2.4l22.8-8.1-49.3 49.2zm46-117c-.9-.9-2.4-.9-3.3 0L389 138.8c-.9.9-.9 2.4 0 3.3l11.6 11.6c.9.9 2.4.9 3.3 0l11.6-11.6c.9-.9.9-2.4 0-3.3l-11.6-11.6zm16.9 45.7c.6 0 1.2-.2 1.6-.7l11.6-11.6c.9-.9.9-2.4 0-3.3l-11.6-11.6c-.9-.9-2.4-.9-3.3 0l-11.6 11.6c-.9.9-.9 2.4 0 3.3l11.6 11.6c.5.5 1.1.7 1.7.7zM382 145.7l-11.6 11.6c-.9.9-.9 2.4 0 3.3l11.6 11.6c.9.9 2.4.9 3.3 0l11.6-11.6c.9-.9.9-2.4 0-3.3l-11.6-11.6c-.9-.9-2.4-.9-3.3 0zm10.3 34.6l-4-3.7 12.3-12.3c.9-.9 2.4-.9 3.3 0l11.6 11.6c.9.9.9 2.4 0 3.3l-2.3 2.3-3.7 3.5-7.3-1.9m-62 4.4l3.3 3.3-9.3 9.3-3.3-3.3 9.3-9.3zm7-6.9l3.3 3.3-3.7 3.7-3.3-3.3 3.7-3.7z"/></g><path d="M350.2 143.9l-23.7-55 1.6-.7c1.3-.4 2.4-1.3 3-2.5.8-1.4.8-3.2 0-4.6s-2.2-2.4-3.8-2.6c.3-.4.5-.7.7-1.2.5-1.2.5-2.5 0-3.7a4.9 4.9 0 00-3.9-2.9c1.1-1.4 1.3-3.3.7-4.9a4.9 4.9 0 00-3.9-2.9c.6-.7.9-1.6 1-2.4.1-.8 0-1.7-.3-2.4a4.9 4.9 0 00-3.9-2.9c1.1-1.4 1.3-3.3.7-4.9s-2.2-2.7-3.9-2.9c.3-.4.5-.7.7-1.2.5-1.2.5-2.5 0-3.7-.6-1.3-1.7-2.3-3.1-2.7 1-1.8.7-4.1-.7-5.6s-3.6-2-5.4-1.2l-2.2 1-1.9-4.5c-.7-1.6-2.1-2.7-3.9-2.9-1.7-.2-3.4.5-4.5 1.9s-1.3 3.3-.6 4.9l1.9 4.5c-2.9 1.3-2.1.9-2.3 1-1.4.7-2.3 1.9-2.7 3.4-.3 1.5 0 3 .9 4.2.8 1 2 1.6 3.2 1.7-1.1 1.4-1.3 3.3-.7 4.9s2.2 2.7 3.9 2.9c-1.1 1.4-1.3 3.3-.7 4.9s2.2 2.7 3.9 2.9c-1.1 1.4-1.3 3.3-.7 4.9a4.9 4.9 0 003.9 2.9c-1.1 1.4-1.3 3.3-.7 4.9a4.9 4.9 0 003.9 2.9c-1 1.3-1.3 2.9-.8 4.5s1.7 2.7 3.2 3.1c-.1.2-.2.3-.2.5-.7 1.8-.3 3.9 1.1 5.3s3.5 1.8 5.3 1l2.2-1 23.7 55c1 2.5 3.9 3.6 6.3 2.5 2.5-1.1 3.7-3.9 2.7-6.4h0zM309.8 36.6c.4 1 .1 2.2-.8 2.9l-10.2-.8 7.8-3.4c1.2-.5 2.7.1 3.2 1.3zm-14.9-4.1c-.3-.8-.2-1.7.3-2.4s1.4-1.1 2.2-1c.9.1 1.6.7 1.9 1.5l1.9 4.5-4.5 1.9-1.8-4.5zM292.3 45c-.5-.6-.7-1.5-.4-2.3.2-.8.8-1.4 1.6-1.7.4-.2.8-.2 1.3-.2l15.9 1.2c.7 0 1.3.3 1.7.9.4.5.6 1.2.6 1.8-.2 1.4-1.4 2.5-2.9 2.4-1.9-.1-14-1.1-15.9-1.2-.8-.1-1.5-.4-1.9-.9zm2.9 5.3c.5-1.1 1.5-1.8 2.7-1.7 16.3 1.3 11.6.9 15.9 1.2.9.1 1.7.6 2.1 1.5.3.8.2 1.8-.4 2.5s-1.4 1.1-2.3 1.1c-1.9-.1-14-1.1-15.9-1.2-.8 0-1.5-.5-1.9-1.1-.4-.7-.5-1.5-.2-2.3zm3.3 7.8c.5-1.1 1.5-1.8 2.7-1.7 1.7.1 14.2 1.1 15.9 1.2.7 0 1.3.3 1.7.8.4.5.6 1.2.6 1.8-.2 1.4-1.4 2.5-2.9 2.4-1.9-.1-14-1.1-15.9-1.2-.8 0-1.5-.5-1.9-1.1-.4-.6-.5-1.5-.2-2.2zm3.3 7.8c.5-1.1 1.5-1.8 2.7-1.7 16.3 1.3 11.6.9 15.9 1.2.9.1 1.7.6 2.1 1.5.3.8.2 1.8-.4 2.5-.5.7-1.4 1.1-2.3 1.1-12.2-.9-11.9-.9-15.9-1.2-.8 0-1.5-.5-1.9-1.1s-.5-1.6-.2-2.3zm3.3 7.8c.5-1.1 1.5-1.8 2.7-1.7 1.8.1 14.1 1.1 15.9 1.2.7 0 1.3.3 1.7.9.4.5.6 1.2.6 1.8-.2 1.4-1.4 2.5-2.9 2.4-1.9-.1-14-1.1-15.9-1.2-.8 0-1.5-.5-1.9-1.1-.5-.7-.5-1.6-.2-2.3zm3 8.6c.1-1.5 1.4-2.6 2.9-2.5 16.3 1.2 11.6.9 15.9 1.2.9.1 1.7.6 2.1 1.5.3.7.2 1.5-.1 2.2-.5.9-1.6 1.5-2.6 1.4l-15.7-1.2c-1.3-.1-2.4-1.2-2.5-2.6zm3.1 8c-.4-1-.1-2.2.7-2.9l10.2.8-7.7 3.4c-.6.3-1.3.3-1.9 0-.6-.3-1-.7-1.3-1.3zm32.3 56.5l-23.7-55 4.5-1.9 23.7 55c.3.8.2 1.7-.3 2.4s-1.4 1.1-2.2 1c-1-.1-1.7-.7-2-1.5z" stroke="#000" stroke-width="2.043" stroke-miterlimit="10"/><path d="M452.8 331.8l13.5-32.5 1.1 7.7c0 .2.1.4.1.5.3.7.9 1.1 1.6 1.2s1.4-.2 1.9-.8l2.2-3 3 2.2c.7.5 1.6.5 2.3.1.7-.4 1.1-1.2 1-2l-1.7-11.7 7.4 7.3c1.2 1.2 3.1 1.5 4.7.7s2.5-2.5 2.2-4.2l-1.3-9.2 7.3-5.8c1.4-1.1 1.9-2.9 1.3-4.6-.6-1.6-2.2-2.7-3.9-2.7l-19.7.3 6.3-15.7c21.2 5 42.6-7.6 48.6-28.5s-5.5-42.9-26.1-49.9-43.1 3.4-51.1 23.6c0 .1-.1.2-.1.2-7.4 18.7 0 39.9 17.3 50l-6.3 15.7-14.1-13.8c-1.2-1.2-3.1-1.5-4.7-.7s-2.5 2.5-2.2 4.2l1.3 9.2-7.3 5.8c-1.4 1.1-1.9 2.9-1.3 4.6l.1.2c.6 1.5 2.2 2.5 3.8 2.5l10.4-.1-9.3 7.3c-.6.5-.9 1.4-.7 2.2 0 .1.1.2.1.3.3.7.9 1.1 1.6 1.2l3.7.4-.4 3.7c-.1.8.3 1.6 1 2s1.6.3 2.3-.2l6.1-4.8-9.9 25.3c-.4 1 .1 2.2 1.1 2.7l3.8 8.5c.2 1.5 2.3 2 3 .6zm22-30.9l-.7-.5c-.9-.7-2.2-.5-2.9.4l-.5.7-1.4-9.8 1.9-4.6 1.9 1.8 1.7 12zm-11.5-21.6l1.5-3.8 7.6 3-1.5 3.8-7.6-3zm32.4-.2l-8.2 6.5c-.6.4-.9 1.2-.8 1.9l1.4 10.4-13.7-13.5 1.8-4.4.3-.6 19.2-.3zm-38.4-72.6c3.5-6.4 9-11.4 15.7-14.3 15.7-6.6 33.8-.2 41.8 14.8.2.3.4.7.6 1.1.4.8.7 1.6 1.1 2.6.1.4.3.8.4 1.2 3.1 9.9.1 20.7-7.6 27.6-7.7 6.9-18.7 8.8-28.3 4.7-.1 0-.1-.1-.2-.1-7.9-3.5-13.6-10.5-15.3-18.9-1.5-8.3 1.7-16.7 8.4-21.7.9-.8 2-1.4 3.1-1.9 11-4.7 23.8 0 29 10.8.3.7.6 1.3.9 2.1 2.1 6 .5 12.8-4.1 17.2s-11.4 5.7-17.3 3.4c-5.9-2.4-10-8-10.3-14.4-.2-4.1 2-7.8 5.7-9.6l.2-.1c2.2-1 4.7-1.2 7.1-.7-.2.1-.5.1-.7.2-5.2 2.2-7.6 8.2-5.4 13.4s8.2 7.6 13.4 5.4c5.2-2.2 7.6-8.2 5.4-13.4-.1-.3-.3-.6-.4-.9-3.9-7.7-13.1-11.1-21-7.7l-.2.1c-5.2 2.4-8.4 7.8-8.1 13.5.3 6.7 3.9 12.8 9.6 16.3s12.7 4.1 18.9 1.5c9.9-4.3 14.8-15.4 11.2-25.6-.3-.8-.6-1.6-1.1-2.5-6.2-12.7-21.3-18.3-34.3-12.7-1.4.7-2.8 1.5-4 2.5-7.9 6-11.8 16-9.9 25.8 2 9.7 8.7 17.9 17.8 21.9 11 4.7 23.7 2.7 32.6-5.3 8.9-8 12.3-20.4 8.8-31.9-.1-.5-.3-1-.5-1.5-.4-1-.7-1.8-1.3-2.9-.2-.5-.5-1-.7-1.3-8.5-15.8-27-23.2-44-17.7.9-.5 1.8-.9 2.7-1.3 16.1-6.9 34.9-1.5 44.9 12.9 10 14.5 8.4 33.9-3.8 46.6-12.2 12.6-31.6 14.9-46.4 5.4-14.8-9.7-20.8-28.3-14.4-44.6zm39.8 11c1.3 3.1-.1 6.7-3.2 8s-6.7-.1-8-3.2c-1.3-3.1.1-6.7 3.2-8 3.1-1.4 6.7 0 8 3.2zm-18.9 41L472 274l-3.8-1.5 6.2-15.5c1.3.5 2.5 1 3.8 1.5zM440 278.6l8.2-6.5c.6-.4.9-1.2.8-1.9l-1.4-10.4 13.7 13.5-1.8 4.4-.3.6-19.2.3zm10.1 14.6l.1-.8c.1-1.1-.7-2.1-1.8-2.3l-.8-.1 9.6-7.5h2.6l-1.9 4.6-7.8 6.1zm1.1 21.9l12.4-31.4 3.8 1.5-17.7 43.1-.8-7.1 2.3-6.1z"/><path d="M405.3 80.6c3.3-12.3-1.3-25.3-11.5-32.9l-.1-.1c-13.8-10.1-33.3-7.1-43.3 6.8-10 13.7-7.1 33 6.5 43.1l.1.1c1.7 1.2 3.5 2.3 5.4 3.2L342.3 164c-.7 2.8.9 5.7 3.7 6.4 2.8.7 5.7-.9 6.4-3.7h0l20.1-63.3c10.8 1 21.3-3.7 27.8-12.4h0c2.3-3.1 4-6.7 5-10.4h0zm-3-.4c-.7 2.3-1.6 4.6-2.9 6.7-4.5-10.1-13.5-13.8-19.2-15.1 5.6-2.3 10.3-2.5 14.2-.9 5.3 2.3 7.4 7.8 7.9 9.3zm1-5c-1.7-3.1-4.4-5.5-7.6-6.9-5.1-2.2-11.4-1.6-18.6 1.8.8-4.9 3.9-15.4 15.5-19.6 7.5 5.8 11.5 15.2 10.7 24.7h0zm-25.4-30.6c-3.1 1.7-5.5 4.4-6.9 7.6-2.2 5.1-1.6 11.4 1.8 18.6-4.9-.8-15.4-3.8-19.6-15.6 5.9-7.5 15.2-11.5 24.7-10.6h0zm-29.6 20.3c.7-2.3 1.6-4.6 2.9-6.7 4.5 10.1 13.5 13.8 19.2 15.1-5.6 2.3-10.3 2.6-14.2.9-5.4-2.3-7.5-7.8-7.9-9.3zm-1 5c1.7 3.1 4.4 5.5 7.6 6.9 5.1 2.2 11.4 1.6 18.6-1.8-.8 4.9-3.9 15.4-15.5 19.6-7.5-5.8-11.5-15.2-10.7-24.7h0zm2.2 96.1c-.3 1.2-1.6 1.9-2.8 1.6-1.2-.3-1.9-1.6-1.6-2.8h0l20-62.9c.7.2 1.4.5 2.2.7s1.5.4 2.2.5l-20 62.9zm23.1-65.5c3.1-1.7 5.5-4.4 6.9-7.6 2.2-5.1 1.6-11.4-1.8-18.6 4.9.8 15.4 3.9 19.6 15.5-5.8 7.6-15.1 11.6-24.7 10.7h0z" stroke="#000" stroke-miterlimit="10"/><path d="M211 292.1c-1.6-.3-4.1-.4-6.5.9l-.9 1.8 3.8.7c.3.1.6.4.5.7-.1.3-.4.6-.7.5l-4-.7 3.1 2.6c.3.2.3.5.1.8-.2.3-.6.3-.8.1l-3.1-2.6 1.4 3.8c.1.4-.1.7-.4.8-.2.1-.4 0-.6-.1-.1 0-.2-.1-.2-.2l-1.3-3.7c-.5.5-1 .9-1.6 1.2-.8 2.6-.3 5 .3 6.6.3 1 1.1 1.3 1.8 1.2.6-.1 1.4-.5 1.6-1.5.3-1.2 1.2-2.2 2.4-2.4 2.1-.4 3.6-2.1 3.6-4.4 0-1.2.8-2.3 1.9-2.7.9-.3 1.2-1.2 1.1-1.8-.1-.7-.5-1.4-1.5-1.6zm-23.9-10.6l12.3-1.1c-3.9-2.5-9-2-12.3 1.1zm6 15.3c-.1 0-.3 0-.4-.1-.1-.1-.2-.2-.2-.4-.1-.3.2-.6.5-.6l9.3-.8c.8-1.2 1.3-2.4 1.6-3.7l-19.4 1.7c.5 1.2 1.2 2.3 2.2 3.3l4.4-.4c.3-.1.6.2.6.5.1.3-.2.6-.5.6l-3.3.3c4.2 3 9.9 2.5 13.4-1.1l-8.2.7zm7.7-15.3l-14.9 1.3c-.9 1.1-1.5 2.4-1.8 3.7l19.1-1.7c-.5-1.2-1.4-2.4-2.4-3.3zm47.7-84.9c1.6-1.9 5.1-6.4 1.4-11-1.9-2.4-5.1-3.3-8-2.2-.8.3-2.7 1-5.5-2.5-2.2-2.7-5.4-4.3-8.9-4.3h-.1c-3.5 0-6.7 1.6-8.9 4.4-1.1 1.4-2.7 2.2-4.5 2.2s-3.4-.8-4.5-2.2c-2.2-2.8-5.4-4.4-9-4.4-3.5 0-6.8 1.6-9 4.4-1.1 1.4-2.7 2.2-4.5 2.2s-3.4-.8-4.5-2.2c-2.2-2.8-5.4-4.4-8.9-4.4s-6.8 1.5-8.9 4.3c-2.8 3.5-4.8 2.8-5.6 2.5-2.9-1.1-6.1-.2-8 2.2-3.8 4.6-.1 9.1 1.5 11.1l27.9 36.1v14.1c-15.6 6.1-25.9 21-25.9 37.9v23.3c0 7.8 6.4 14.2 14.2 14.2H232c7.8 0 14.1-6.4 14.1-14.2v-23.3c0-16.9-10.2-31.8-25.6-37.8v-14.1l28-36.3zm-36.6 100.1c-.7.3-1.2 1-1.2 1.7 0 2.6-1.9 4.9-4.5 5.4-.8.1-1.3.7-1.2 1.4-.3 1.3-1.3 2.3-2.7 2.4-.8 0-1.5-.2-2.1-.7-.4-.4-.7-.8-.9-1.3-.8-2.2-1-4.3-.6-6.3-3.8 1.7-8.4 1.1-11.8-1.7-1.7-1.5-2.9-3.3-3.5-5.2v-.1c-.6-1.7-.7-3.5-.4-5.3v-.1c0-.2.1-.4.1-.6-1.9.8-4.1 1-6.3.6-.5-.1-1-.3-1.4-.6-.6-.5-.9-1.2-1-2-.1-1.4.6-2.6 1.9-3.1.7-.3 1.2-1 1.2-1.7v-.4c0-.3.3-.5.6-.5s.5.3.5.6v.3c0 1.2-.8 2.3-1.9 2.7-.9.3-1.2 1.2-1.1 1.8.1.7.5 1.4 1.5 1.6 1.6.3 4.1.4 6.5-.9.3-.6.5-1.2.9-1.8l-3.8-.7c-.1 0-.2 0-.3-.1-.2-.2-.2-.4-.2-.6.1-.3.4-.6.7-.5l4 .7-3.1-2.6c-.3-.2-.3-.6-.1-.8.2-.3.6-.3.8-.1l3.1 2.6-1.4-3.8c-.1-.4.1-.7.4-.8.4-.1.7.1.8.4l1.3 3.7c.5-.5 1-.9 1.6-1.2.8-2.6.3-5-.3-6.6-.3-1-1.1-1.3-1.8-1.2-.6.1-1.4.5-1.6 1.5-.3 1.2-1.2 2.2-2.4 2.4-1.3.3-2.5 1.2-3.1 2.4-.2.3-.5.4-.8.3l-.1-.1c-.3-.2-.3-.5-.2-.7.7-1.5 2.2-2.7 3.9-3 .7-.1 1.3-.7 1.4-1.4.3-1.3 1.3-2.3 2.7-2.4 1.3-.1 2.5.6 3 1.9.8 2.2 1 4.3.6 6.3 3.8-1.7 8.4-1.1 11.8 1.7l.1.1c1.4 1.2 2.5 2.8 3.2 4.6v.1c.1.4.2.7.3 1.1.1.3-.1.6-.4.7-.3.1-.6-.1-.7-.4-.1-.2-.1-.4-.2-.6l-19.8 1.8c-.2 1.3-.1 2.7.3 4l20-1.8v-1.5c0-.3.3-.6.6-.6s.6.3.6.6c0 1.1-.1 2.2-.3 3.3 1.9-.8 4.1-1 6.3-.6 1.3.2 2.3 1.2 2.4 2.6.1 1.4-.6 2.6-1.9 3.1zM186.3 246v-11.4H215V246h-28.7zm34.4 13.5c.1.1 0 .3-.2.4-.1.1-.1.1-.2.1-.6.3-1.3.2-1.8-.3-.4-.3-.9-.3-1.2-.1-.4.2-.6.6-.5 1.1.2.9.8 2.2 2 3.1h1.1l-.6-2.1v-.2c0-.1.1-.2.2-.2.2-.1.4 0 .4.2l.6 2.2.6-2.2c0-.1.2-.2.4-.2.1 0 .2.2.2.4l-.6 2.2 1.6-1.6c.2-.1.4-.1.5 0 .1.2.1.4 0 .5l-1.5 1.5c.4.1.7.3 1 .5 1.5-.2 2.6-1 3.3-1.7.4-.4.4-.9.2-1.2s-.6-.6-1.1-.5c-.6.2-1.3 0-1.7-.6-.4-.6-1.1-1-1.9-1-.2 0-.3-.1-.3-.3v-.1c0-.1.1-.2.3-.2.9 0 1.8.5 2.4 1.3.3.4.7.5 1.1.4.7-.2 1.4.1 1.8.8.3.7.2 1.5-.3 2-.9.9-1.9 1.5-3 1.8 1.7 1.5 2.5 3.9 1.9 6.3v.1c-.3 1-.9 1.9-1.6 2.7-.2.1-.3.3-.5.4-.2.2-.4.1-.5 0-.2-.2-.1-.4 0-.5.1 0 .2-.1.3-.2l-5.5-9.5c-.8.2-1.4.6-2 1.1l5.6 9.6c.3-.1.6-.2.8-.3.1-.1.3-.1.4.1.1.1.1.3-.1.4-.5.3-1.1.5-1.7.6.9.8 1.5 1.8 1.8 3 .2.7 0 1.4-.7 1.8-.7.4-1.5.3-2-.2-.3-.3-.7-.4-1.1-.2-1.4.6-2.9.2-3.8-1-.2-.3-.6-.4-1.2-.4-.7.2-1.4-.1-1.8-.8-.2-.4-.3-.8-.2-1.2 0-.2.2-.5.4-.7.9-.9 1.9-1.5 3-1.8-1.7-1.5-2.5-3.9-1.9-6.3.3-1.2 1-2.2 1.8-3l.1-.1c.7-.6 1.6-1.1 2.6-1.4h.1c.1-.1.2-.1.3-.1-.9-.8-1.5-1.8-1.8-3-.1-.3-.1-.6 0-.9.1-.4.4-.8.8-1 .7-.4 1.5-.3 2 .2.3.3.7.4 1.1.2.1 0 .1-.1.2-.1.1-.1.3 0 .4.2zm-4.3-30.4h-10.9l12-25.5c.7-1.4.1-3.1-1.4-3.8-1.4-.7-3.1-.1-3.8 1.4L200.6 226l-11.4-25c-.7-1.4-2.4-2-3.8-1.4-1.4.7-2 2.4-1.4 3.8l12 25.5h-11.2c.1 0-27.6-35.8-27.6-35.8-2.3-2.9-2-3.3-1.5-3.9.4-.5 1-.7 1.6-.4 3 1.1 7.5 1.3 12-4.3 1.1-1.4 2.7-2.1 4.4-2.1s3.4.8 4.4 2.2c2.2 2.8 5.4 4.4 9 4.4 3.6 0 6.8-1.6 9-4.4 1.1-1.4 2.7-2.2 4.5-2.2 1.8 0 3.4.8 4.5 2.2 2.2 2.8 5.4 4.4 9 4.4 3.5 0 6.8-1.6 9-4.4 1.1-1.4 2.7-2.2 4.4-2.2s3.4.8 4.4 2.1c4.4 5.6 8.9 5.4 11.9 4.3.6-.2 1.2 0 1.6.5.5.6.8 1-1.5 3.9l-27.5 35.9zm2.5 47.2l.6 2.1c.1.2 0 .4-.2.4-.2.1-.4 0-.4-.2l-.6-2.2-.6 2.2c0 .1-.2.2-.4.2-.1 0-.2-.2-.2-.4l.6-2.2-1.6 1.6c-.2.1-.4.1-.5 0-.1-.1-.1-.2-.1-.3l1.6-1.6c-.4-.1-.7-.3-1-.5-1.5.2-2.6 1-3.3 1.7-.4.4-.4.9-.2 1.2.2.3.6.6 1.1.5.6-.2 1.3 0 1.7.6.6.9 1.9 1.2 3.1.7.6-.3 1.3-.2 1.8.3.4.3.9.3 1.2.1.4-.2.6-.6.5-1.1-.2-.9-.8-2.2-2-3.1h-1.1zm5.9-4.5l-4.2-7.2c-.8-.1-1.5-.1-2.3 0l5.4 9.2c.5-.6.9-1.3 1.1-2zm-10.8-3.5l1.2 2.1c.1.1.1.3-.1.4-.1.1-.3.1-.4-.1l-.9-1.6c-.5 2.7 1.1 5.5 3.7 6.4l-2.3-3.9v-.2c.1-.1.1-.2.2-.2.1-.1.3-.1.4.1l2.6 4.5c.7.1 1.5.1 2.2-.1l-5.4-9.3c-.5.6-.9 1.2-1.2 1.9zm7.5-3.4l3.5 5.9c.3-2.5-1.1-4.9-3.5-5.9z"/></svg>