<svg version="1.1" id="Layer_1" xmlns="http://www.w3.org/2000/svg" xmlns:xlink="http://www.w3.org/1999/xlink" x="0" y="0" viewBox="0 0 539.6 691.3" xml:space="preserve"><style>.st0,.st2{fill:#fff}.st2{clip-path:url(#SVGID_2_)}</style><path d="M518.3 533H144.5c-8 7.1-3.1 16 3.8 16h362v16h-480v-16H148c4.3 0 8-3.2 8.3-7.5.3-4.7-3.4-8.5-8-8.5h-126c-4.4 0-8 3.6-8 8v32c0 4.4 3.6 8 8 8h8v40c0 30.9 25.1 56 56 56h368c30.9 0 56-25.1 56-56v-40h8c4.4 0 8-3.6 8-8v-32c0-4.4-3.6-8-8-8zm-28.6 48l-16.3 23.9-18.5-23.9h34.8zm-120.1 0L355 605.7 340.5 581h29.1zm-168.4 0l-14.6 24.7L172 581h29.2zm-118.9 0l-14.8 20.6L53.7 581h28.6zm-36 17.8l11.3 16.8L47.3 630c-1.6-7.3-.7-10.5-1-31.2zM154 661h-36.7l12.7-21.9c5.6 7.4 6.7 14.4 13.6 14.4 4.4 0 8-3.6 8-8 0-1.5-.4-3-1.2-4.3L139 623.5l13.4-23.2c2.2-3.8.9-8.7-2.9-10.9-3.8-2.2-8.7-.9-10.9 2.9l-9.3 16-8-12.6c-2.4-3.7-7.3-4.8-11.1-2.4-3.7 2.4-4.8 7.3-2.4 11l12.5 19.6L98.8 661c-5.9-.9-27.7 4.6-43.5-14.8l11.9-16.6c8.4 10.9 9.3 17.7 16.2 17.7 4.4 0 8-3.6 8-8 0-1.6-.5-3.1-1.4-4.5l-12.9-19.1L102 581h51.5l23.9 40.4L154 661zm18.5 0l14.1-23.8c3.9 5.2 5 12.5 11.9 12.5 4.4 0 8-3.6 8-8 0-1.4-.4-2.8-1.1-4l-9.5-16.1 23.9-40.4h37.6l-14.6 24.7-5-8.5c-2.2-3.8-7.2-5.1-11-2.8-3.8 2.2-5.1 7.2-2.8 11l9.5 16.1-9.5 16.1c-2.2 3.8-1 8.7 2.8 11 1.2.7 2.6 1.1 4 1.1 6.9 0 8.1-7.3 11.9-12.5l14.1 23.8h-84.3zm98.3-7.7L252 621.5l23.9-40.4h37.6l-14.6 24.7-5.2-8.8c-2.2-3.8-7.2-5.1-11-2.8-3.8 2.2-5.1 7.2-2.8 11l9.7 16.4-18.8 31.7zm51.6 7.7h-37.6l14.1-23.8c3.9 5.2 5 12.5 11.9 12.5 4.4 0 8-3.6 8-8 0-1.4-.4-2.8-1.1-4l-9.5-16.1 18.8-31.8 18.8 31.8-23.4 39.4zm74.7 0l14.1-23.8 14.1 23.8h-28.2zm46.7 0l-23.4-39.6 9.5-16.2c2.2-3.8 1-8.7-2.8-11-3.8-2.2-8.7-1-11 2.8l-5 8.5-4-6.8c-2.3-3.8-7.2-5-11-2.7-3.7 2.3-5 7.1-2.8 10.8l8.5 14.5-23.3 39.7H341l14.1-23.8c2 2.5 3.4 9.1 9.9 9.1 4.4 0 8-3.6 8-8 0-1.4-.4-2.8-1.1-4l-7.5-12.8 23.9-40.4h46.5l29.2 37.8-14.2 20.7c-2.5 3.7-1.5 8.6 2.1 11.1 1.3.9 2.9 1.4 4.5 1.4 7 0 7.9-7 17.9-20l11 14.3c-15.5 18.8-36.8 13.8-41.5 14.6zm49.4-30.5l-9.5-12.3 10.6-15.6c-.2 16.2.7 20.4-1.1 27.9zm1.1-312.4v192.7c0 4.4 3.6 8 8 8s8-3.6 8-8V318.1c0-58.3-21.2-114.6-59.7-158.4-2.9-3.4-7.9-3.7-11.3-.9-3.4 2.9-3.7 7.9-.9 11.3l.1.1c36 40.9 55.8 93.5 55.8 147.9zm-456 200.6c4.4 0 8-3.6 8-8V318.1c0-178 198.1-283.8 345.7-188.1 3.7 2.4 8.6 1.4 11.1-2.2s1.4-8.6-2.2-11.1l-.1-.1C242.2 13.7 30.3 127.5 30.3 318.1v192.7c0 4.4 3.6 7.9 8 7.9z"/><path d="M470.3 518.7c4.4 0 8-3.6 8-8V318.1c0-135.5-128.1-235.1-259.5-201.6-4.3 1-7 5.3-6 9.6s5.3 7 9.6 6c.1 0 .2-.1.3-.1 121.2-30.9 239.6 60.8 239.6 186.1v192.7c0 4.4 3.6 7.9 8 7.9zM166.7 156.4c3.7-2.4 4.8-7.3 2.4-11.1-2.4-3.7-7.3-4.8-11.1-2.4C98.2 181.1 62.1 247.1 62.3 318v192.7c0 4.4 3.6 8 8 8s8-3.6 8-8V318.1c-.1-65.5 33.2-126.5 88.4-161.7z"/><circle cx="152.3" cy="541" r="8"/><circle cx="190.3" cy="134.1" r="8"/><circle cx="422.3" cy="142.1" r="8"/><path class="st0" d="M152.3 549h278v15.7h-278z"/><defs><path id="SVGID_1_" d="M74.2 367h263.1v166.4H74.2z"/></defs><clipPath id="SVGID_2_"><use xlink:href="#SVGID_1_" overflow="visible"/></clipPath><path d="M284.1 387h17.2c3.6 0 5.8 3.9 3.9 7-4.2 6.8-12.1 11.3-21.1 11.3H267c-3.6 0-5.8-3.9-3.9-7 4.2-6.7 12.1-11.3 21-11.3zm-117.2 27.4h23.9c-2.3 10.4-12.1 18.3-23.9 18.3H143c2.3-10.4 12.1-18.3 23.9-18.3zM108.3 451c-11.8 0-21.7-7.9-23.9-18.3h23.9c11.8 0 21.7 7.9 23.9 18.3h-23.9zm34.2 68.5c0-1.7-.3-3.3-.7-5 6.3-1 11.7-4.3 15.3-8.9 3.2 4.1 7.9 7.1 13.2 8.4.8 1.7 1.4 3.5 1.4 5.4 0 7.6-6.6 13.7-14.6 13.7s-14.6-6.1-14.6-13.6zm-4.7 13.7h-.2c0-.1.1-.1.1-.1l.1.1zm59.1 20.3l36.7 34.5h-51.8c1-12.4 6-24.6 15.1-34.5zm36.4 43.6l-36.4 34c-9-9.8-14-21.8-15-34h51.4zm6.9 6.5v48.1c-13.5-1-26.1-5.9-36.3-14.2l36.3-33.9zm9.7-.3l36.4 34.2c-10.3 8.3-23 13.2-36.5 14.2l.1-48.4zm-73.2-124.9c8.1 0 14.6 6.1 14.6 13.7s-6.6 13.7-14.6 13.7-14.6-6.1-14.6-13.7 6.5-13.7 14.6-13.7zm-39.1 0c8.1 0 14.6 6.1 14.6 13.7s-6.6 13.7-14.6 13.7-14.6-6.1-14.6-13.7 6.6-13.7 14.6-13.7zm-53.7 13.7c0-7.6 6.6-13.7 14.6-13.7s14.6 6.1 14.6 13.7-6.6 13.7-14.6 13.7-14.6-6.2-14.6-13.7zm19.6 27.4c0-1.9.6-3.7 1.4-5.4 5.4-1.4 10-4.3 13.2-8.4 3.2 4.1 7.9 7.1 13.2 8.4.8 1.7 1.4 3.5 1.4 5.4 0 7.6-6.6 13.7-14.6 13.7s-14.6-6.2-14.6-13.7zm73.1 13.7c3.1-3.8 5-8.5 5-13.7 0-1.7-.3-3.3-.7-5 1.8-.3 3.6-.7 5.3-1.4 2.9 7.3 12.3 22.8 18.9 27.5 11.1 7.8 31.4 19.7 44.8 18.2l4.9-10.5c-.5-.2-1.6.1-2.2.1h-2.5c-1.6-.1-3.3-.2-4.9-.4-3.2-.5-6.5-1.2-9.6-2.2-5.6-1.9-10.9-4.1-16-7.2-4.7-2.9-8.8-6.3-12.6-10.4-4-4.3-7.4-9.1-10-14.3-1-2-1.9-4.1-2.6-6.2 4.1-4.1 6.6-9.5 6.6-15.5 0-6.6-3.1-12.6-8-16.8 3.4-13.4 11.7-25.3 23.6-33.6 9.5-6.7 23-5.5 31.7 2.1 1 .9 1.5 2.1 1.5 3.4v3.7c0 2.5 2 4.6 4.6 4.6h.6c2.5 0 4.6-2 4.6-4.6v-3.7c0-1.3.5-2.5 1.5-3.4 8.8-7.8 22.6-8.8 32.4-1.7 15.7 11.3 24.7 28.5 24.7 47 0 8.4-1.9 16.5-5.4 24-1.6 3.3-6.2 3.5-8 .3-2.5-4.4-5.6-8.5-9.1-12.3-1.7-1.9-4.6-2-6.5-.2l-.3.2c-1.8 1.7-1.9 4.6-.2 6.4 3.2 3.5 5.9 7.3 8.1 11.3 1.5 2.7-.1 6-3.1 6.7-6.2 1.3-12.4 3-18 5.9-6.5 3.4-12.1 8.2-17.6 13.1-3.3 2.9-5.9 6.5-8.2 10.3-1.9 3.2-3.5 6.6-4.9 10-1.1 2.6-2.2 5.3-2.9 8-.7 2.8-1.3 5.7-1.6 8.6l-12.6-11.8-9.7-9.1-19.4-18.3-2.1-1.6-3.4 3c-5.4 5.1-9.8 10.8-13.2 16.9l-4.1 9.1c-8.9 24.1-3.2 52 17.3 71.2 4.7 4.4 9.8 8.1 15.4 11 10.2 5.4 18.2 8.3 31.3 8.9h.3c1.6.1 3.2.2 4.9.2 15.3 0 29.8-4.4 42-12.5 7 2.2 14.2 3.4 21.5 3.4 37.7 0 68.4-28.7 68.4-63.9 0-30.4-22.8-55.8-53.2-62.3-2.9-.6-4.4-3.9-3.1-6.5 4.9-9.3 7.4-19.4 7.4-30 0-21.4-10.4-41.1-28.5-54.2-9.9-7.1-22.8-8.5-33.8-4.5-3 1.1-6.1-1.1-6.1-4.3V419c0-2.5 2-4.6 4.6-4.6h19.8c18.8 0 34.2-14.3 34.2-32 0-2.5-2-4.6-4.6-4.6h-29.6c-18.8 0-34.2 14.3-34.2 32v16.3c0 3.2-3.2 5.4-6.1 4.3-10.8-3.9-23.3-2.8-32.9 4-12.9 9.1-22.1 21.7-26.5 36.1-2.4-.8-5-1.3-7.7-1.3-8 0-15.1 3.7-19.5 9.3-3.5-4.4-8.7-7.7-14.6-8.8v-27.9h24.4c18.8 0 34.2-14.3 34.2-32v-4.6h-34.2c-17.5 0-31.9 12.3-33.9 28.2-6.2-6.1-15-9.9-24.7-9.9H74.2v4.6c0 17.6 15.3 32 34.2 32h24.4v9.6c-6 1.1-11.1 4.4-14.6 8.8-4.5-5.6-11.5-9.3-19.5-9.3-13.5 0-24.4 10.2-24.4 22.8 0 11.2 8.7 20.6 20.2 22.4-.4 1.6-.7 3.3-.7 5 0 5.2 1.9 9.9 5 13.7m209.7 109.7c-4.1 0-8.3-.5-12.3-1.3.2-.2.5-.4.7-.6l3.4-3.2-50.2-47.2c-.1-.8-.1-1.7-.1-2.5 0-28.3 23-51.6 52.4-54.5.8 3.8 1.3 7.8 1.3 11.8v6.1h9.8v-6.1c0-4.1-.4-8-1.2-12 30.6 1.8 54.9 25.6 54.9 54.6-.1 30.3-26.3 54.9-58.7 54.9z" clip-path="url(#SVGID_2_)"/><ellipse transform="rotate(-86.893 278.093 503.577) scale(.99997)" class="st2" cx="278.1" cy="503.6" rx="31.2" ry="36.5"/><path class="st2" d="M142.5 441.8c.2 6.3 19 3.7 24.8 2.4 5.5-1.2 10.9-2.6 16.3-4.1 1.8-.5 3.6-1.1 5.2-2.1 2.1-1.3 3.6-3.3 5-5.4 4.3-6.3 8-13 11-20.1 1-2.3 1.9-5 1-7.3-1.5-3.8-6.5-4.5-10.6-4.6-8.9-.1-17.8-.3-26.7-.4-6.7-.1-13.6.1-19.6 3-60.8 30-7.3 14.8-6.4 38.6z"/><defs><path id="SVGID_3_" d="M128.1 328.8c10.8.9 19.9 32.2 30.1 35.8 10.2 3.7 27-20.6 35.1-27.8 4.3-3.8 7.1-9.6 12.4-11.6 7.4-2.7 19.1 1.5 20.2 9.3.5 3.3-2.6 7.3-3.7 12.6-1.7 8.3 24.6 20.3 27.7 24.9 9.3 14.1 10 18.1 14.2 33.3 3.3 11.8 4.9 25.8-3 35.2-6.4 7.6-21-5.6-30.8-3.9-18.4 3.3-34 21.8-51.2 14.4-3.4-1.4-6.6-3.3-10-4.3-3.8-1.2-7.9-1.4-11.9-1.7-14.4-.9-29.5-2.8-41.3-11-13.4-9.3-20.6-25.2-24.7-41-1.7-6.4-3-13.1-1.5-19.5 1.2-5.6 4.5-10.6 7.7-15.4 8.8-12.8 11.8-30.8 30.7-29.3z"/></defs><clipPath id="SVGID_4_"><use xlink:href="#SVGID_3_" overflow="visible"/></clipPath><path d="M240.8 245.8l12.8 4.7c2.7 1 3.2 4.5 1 6.2-5 3.9-12.1 5.1-18.8 2.6l-12.8-4.7c-2.7-1-3.2-4.5-1-6.2 5-3.8 12.1-5 18.8-2.6zm-94.6-11.7l17.8 6.6c-4.5 7.1-14 10.2-22.8 7l-17.8-6.6c4.6-7.1 14-10.3 22.8-7zm-53.5 11c-8.8-3.2-13.9-11.8-12.8-20.1l17.8 6.6c8.8 3.2 13.9 11.8 12.8 20.1l-17.8-6.6zm6.6 60.3c.5-1.2.7-2.5.9-3.9 4.9 1 9.8 0 13.8-2.4 1.3 3.9 3.9 7.4 7.5 9.9.2 1.5.1 3-.4 4.4-2.1 5.6-8.6 8.4-14.6 6.2-6.1-2.2-9.3-8.6-7.2-14.2zm-7.3 8.9l-.2-.1s.1 0 .1-.1c0 .1.1.1.1.2zm38.3 31.3l17.8 35.7-38.4-14.3c4.1-8.9 11.1-16.5 20.6-21.4zm15.1 42.4l-36.3 15.3c-4-9.8-4.4-20-1.8-29.4l38.1 14.1zm3.3 6.7l-13.2 35.7c-9.7-4.4-17.8-11.5-23.1-20.5l36.3-15.2zm7.4 2.5l17.7 35.4c-9.9 3.4-20.7 3.5-31 .5l13.3-35.9zm-20.2-112.9c6 2.2 9.2 8.6 7.1 14.2-2.1 5.6-8.6 8.4-14.6 6.2s-9.2-8.6-7.1-14.2c2.1-5.7 8.6-8.5 14.6-6.2zm-29-10.8c6 2.2 9.2 8.6 7.1 14.2-2.1 5.6-8.6 8.4-14.6 6.2s-9.2-8.6-7.1-14.2c2-5.6 8.6-8.4 14.6-6.2zM63.3 269c2.1-5.6 8.6-8.4 14.6-6.2s9.2 8.6 7.1 14.2c-2.1 5.6-8.6 8.4-14.6 6.2s-9.2-8.6-7.1-14.2zm6.9 25.7c.5-1.4 1.4-2.6 2.5-3.6 4.4.5 8.6-.5 12.1-2.6 1.3 3.9 3.9 7.4 7.5 9.9.2 1.5.1 3-.4 4.4-2.1 5.6-8.6 8.4-14.6 6.2-5.9-2.3-9.1-8.7-7.1-14.3zm50.6 30.2c3.3-2 6.1-5 7.5-8.8.5-1.2.7-2.5.9-3.9 1.4.3 2.9.4 4.3.4.2 6.2 2.9 20.3 6.5 25.6 6.1 8.8 17.9 23.2 28.3 25.8l6.5-6.5c-.3-.3-1.2-.4-1.6-.5-.6-.2-1.3-.5-1.9-.7-1.2-.5-2.4-1.1-3.5-1.7-2.3-1.2-4.5-2.7-6.5-4.3-3.6-3-7-6-9.9-9.7-2.7-3.4-4.8-7.1-6.5-11.1-1.8-4.3-3-8.8-3.5-13.4-.2-1.8-.3-3.6-.2-5.3 4.1-1.9 7.5-5.3 9.2-9.7 1.8-4.9 1.1-10.2-1.3-14.6 6.2-9 15.6-15.6 26.7-18.5 8.9-2.4 18.6 2.2 23 10.3.5.9.5 2 .2 2.9l-1 2.8c-.7 1.9.3 4 2.1 4.6l.5.2c1.9.7 4-.3 4.6-2.1l1-2.7c.4-1 1.1-1.7 2-2.1 8.7-3.4 19.2-.3 24.5 7.6 8.5 12.7 10.5 27.9 5.5 41.7-2.3 6.3-5.9 11.8-10.6 16.4-2.1 2-5.6.9-6.1-2-.7-3.9-1.8-7.8-3.4-11.6-.8-1.9-2.9-2.7-4.8-2l-.3.1c-1.8.8-2.7 2.9-1.9 4.7 1.4 3.5 2.4 7 2.9 10.6.4 2.4-1.8 4.4-4.2 4.1-5-.7-10-1.1-15-.5-5.8.7-11.3 2.8-16.7 4.9-3.2 1.3-6.2 3.2-8.9 5.4-2.3 1.9-4.4 4-6.4 6.1-1.5 1.6-3.1 3.3-4.3 5.2-1.3 1.9-2.5 3.9-3.5 5.9l-6.1-12.2-4.7-9.5-9.4-18.9-1.1-1.8-3.3 1.3c-5.4 2.3-10.3 5.4-14.4 9l-5.6 5.7c-13.2 15.5-16.6 37.7-6.7 57.6 2.3 4.5 5.1 8.7 8.4 12.4 6.1 6.8 11.3 11.1 20.8 15.2l.2.1c1.2.5 2.3 1.1 3.6 1.5 11.3 4.2 23.3 4.9 34.6 2.2 4.6 3.5 9.6 6.4 15 8.4 28 10.3 58.6-2.6 68.3-28.8 8.3-22.6-1.6-47.7-22.4-60.9-2-1.3-2.2-4.1-.5-5.7 6.2-5.5 10.8-12.4 13.7-20.3 5.9-15.9 3.6-33.4-6.3-48.1-5.4-8-14.6-12.5-23.8-12.6-2.5 0-4.2-2.5-3.4-4.9l2-5.3c.7-1.9 2.8-2.8 4.6-2.1l14.7 5.4c14 5.2 29.3-1.3 34.2-14.4.7-1.9-.3-4-2.1-4.6l-22-8.1c-14-5.2-29.3 1.3-34.2 14.4l-4.5 12.1c-.9 2.4-3.8 3.1-5.7 1.5-6.9-5.9-16.6-8.5-25.6-6.1-12.1 3.2-22.4 10.1-29.6 19.6-1.6-1.2-3.3-2.3-5.3-3-6-2.2-12.2-1.4-17.1 1.5-1.4-4.3-4.3-8.1-8.5-10.6l7.6-20.7 18.1 6.7c14 5.2 29.3-1.3 34.2-14.4l1.3-3.4-25.4-9.4c-13-4.8-27.1.4-32.9 11.6-3-6.2-8.4-11.5-15.6-14.1l-25.4-9.4-1.3 3.4c-4.8 13.1 2.6 28 16.6 33.1l18.1 6.7-2.6 7.1c-4.8-.8-9.5.2-13.3 2.5-1.8-5.4-6-10-12-12.2-10-3.7-20.9.9-24.4 10.3-3.1 8.4.9 17.7 8.8 22.2-.7 1.1-1.4 2.3-1.9 3.5-1.4 3.8-1.3 7.9 0 11.6m126.1 139c-3.1-1.1-6-2.6-8.8-4.4.2-.1.4-.2.7-.2l3.4-1.5-24.4-48.8c.2-.6.4-1.3.6-1.9 7.8-21 31.2-32 53.9-26.1-.4 3.1-1.2 6.2-2.3 9.1l-1.7 4.6 7.3 2.7 1.7-4.6c1.1-3 1.9-6.1 2.4-9.2 22.2 9.7 33.8 34.1 25.8 55.6-8.4 22.5-34.6 33.5-58.6 24.7z" clip-path="url(#SVGID_4_)"/><path class="st0" d="M325.4 441.2c1.5.1 5.8 6.6 7 7.3 3.2 2 6.3 4.1 8.3 6.8 2.5 3.4 2.9 7.4 2.9 11.2.1 20-15.4 56.7-15 55.9-6.3-.5-18-.6-24.3-1.1-1-.1-2.1-.2-2.8-.7-.8-.6-.7-1.5-.5-2.3 1.3-5.5 5.3-10.5 8.1-15.7 5.1-9.8 9.3-23.1 1.6-30.8-4-4.1-25.5-12.5-10.7-22.9 3.2-2.2 21-8.1 25.4-7.7z"/><defs><path id="SVGID_5_" d="M322.6 370.7c10.6 12.8 4.1 35.8-8.3 40.3-5.2 1.9-47.5-9.8-41 6.8 7.8 19.8 48.9 28.4 75.2 4.2-4.4-11.2 14.4-75.8 16-87.7.8-5.8 0-11.6-.8-17.4-3.3-25.4-5.6-50.8-7.9-76.3-.8-8.4-1.5-16.9-1.1-25.4.8-13.8 4.8-27.1 8.8-40.4-8.9.4-17.7 2.3-25.9 5.7 1.8-5.7 3.6-11.5 5.4-17.2.5-1.6 1-3.3.7-4.9-.5-3.2-3.8-5.2-6.9-6.3-10.9-3.9-23.3-1.8-33.5 3.8s-18.2 14.3-24.8 23.8c-14.5-7.3-29-14.5-43.5-21.8-4.4-2.2-8.9-4.4-13.7-5.6-7.9-1.9-16.3-.7-24 2-2.2.8-4.5 1.8-5.5 3.8-1.7 3.4.9 7.3 3.5 10.2 5.1 5.9 10.2 11.7 15.3 17.6-5.2-.8-10.4-1-15.7-.7-1.5.1-3 .2-4.3.8-2.3 1.1-3.7 3.4-4.3 5.8-2.8 10.4 6.6 19.6 10.4 29.7 5 13.3 0 28-4.5 41.5-3.6 11-6.8 22-9.6 33.2-4.6 18.2-8.1 42.5-.4 59.7 6.4-7.8 17.1 3.4 25.8-1.8-2.4-1.8-5.4-31.3-2.4-31.3 3 0 13.4-1.3 13.3 1.7-1.6 51.6 22 31 26.5 47.1 1 3.5 7.9 19.7 9.2 16.4 3.2-7.8 37.1-30 40.9-30.7 15.8-3.3 15.2-1 27.1 13.4z"/></defs><clipPath id="SVGID_6_"><use xlink:href="#SVGID_5_" overflow="visible"/></clipPath><g clip-path="url(#SVGID_6_)"><path d="M355 344.4V311c0-14.6-4.1-28.7-12-41-1.2-1.9-3.7-2.5-5.6-1.2-1.9 1.2-2.5 3.7-1.2 5.6 1.9 3 3.6 6.2 5 9.4-1.2 2.8-4.3 9.3-9.6 17.9-9.4-5.1-18.2-10.5-26.2-16 6.1-9 11.3-18.4 15.5-28.3 1.7 1.4 3.4 2.8 5 4.4 1.6 1.6 4.2 1.5 5.8-.1 1.6-1.6 1.5-4.2-.1-5.8-3.1-3-6.4-5.7-9.9-8.1C324.8 230 332.9 213 346 197c1.1-1.4 1.2-3.3.3-4.8-.9-1.5-2.7-2.2-4.4-1.8-12.7 3.2-24.1 9.3-34.1 18.3 6.4-14.6 15.2-28.8 26.4-42.5 1.1-1.4 1.2-3.3.3-4.8-.9-1.5-2.7-2.2-4.4-1.8-11 2.8-21.4 7.1-31 12.7-1.9 1.1-2.6 3.7-1.4 5.6 1.1 1.9 3.7 2.6 5.6 1.4 5.3-3.1 10.9-5.8 16.7-8-12.5 17.3-21.5 35.5-26.9 54.3-.3.6-2.1 7.9-2.4 9.5-3.9-.6-8-.9-12-.9h-11c-5.3 0-10.5.5-15.5 1.6 10.7-19.8 23.3-35.6 37.7-47.1 1.8-1.4 2-4 .6-5.7-1.4-1.8-4-2-5.7-.6-4 3.2-7.9 6.7-11.6 10.6-16.3-16.6-35.4-27.8-56.9-33.2-1.7-.4-3.5.3-4.4 1.8-.9 1.5-.8 3.4.3 4.8.7.9 1.5 1.8 2.2 2.7l.1.1c3.8 4.8 7.6 9.2 11.2 13.5 10.8 12.6 20.2 23.6 25.6 38.9-.1.2-.3.4-.4.6-9.6-16.3-25.9-27.4-46.6-31.6-1.7-.3-3.4.4-4.3 1.9-.9 1.5-.8 3.4.3 4.7 13 15.9 21.2 32.9 24.3 50.7-20.1 13.8-33.4 37-33.4 63.2v50.8c0 42.2 34.4 76.6 76.6 76.6h11c42.2 0 76.6-34.4 76.6-76.6l-.4-17.5zm-10.1-49.5c1.2 4.7 1.8 9.6 1.9 14.6-2.7-1.3-5.4-2.6-8-4 2.5-4 4.5-7.6 6.1-10.6zm-10.6 17.5c4.1 2.1 8.3 4.1 12.5 6.1v24.9c-.7 1.1-2.1 3.4-4.3 6.6-10.6-3.4-20.3-7.4-29.1-11.9 2-2.1 3.9-4.2 5.8-6.3 6-6.9 11-13.5 15.1-19.4zm-61.4-2.1c-8.3-7.5-15.1-15.3-20.8-22.7 2.4-1.8 4.7-3.5 7-5.3 5.1-4.1 9.8-8.2 14.1-12.3 4.2 4.1 8.8 8.2 13.8 12.2 2.2 1.7 4.4 3.5 6.8 5.2-5.7 7.6-12.6 15.3-20.9 22.9zm26.9 29.8c-7.5 7-16.4 14.3-26.8 21.4-10.5-7-19.4-14.3-26.9-21.4 9.6-5.5 18.6-11.7 26.9-18.7 8.2 7 17.2 13.2 26.8 18.7zm-46.4-37.7c4.2 4.7 8.6 9.2 13.2 13.5-7.8 6.4-16.6 12.6-26.7 18.3-2.5-2.5-4.8-5-6.9-7.4-5.7-6.4-10.4-12.6-14.2-18.2 9.5-5.1 18.4-10.5 26.5-16.1 2.6 3.3 5.3 6.6 8.1 9.9zm-14.9 41.8c8.3 8 17.3 15.4 26.9 22.1-9.2 5.6-19.4 11-30.7 15.9-4.1-3.2-7.7-6.3-10.8-9.1-6.4-5.9-11.5-11.5-15.3-16.2 10.5-3.6 20.5-7.8 29.9-12.7zm34.4 27.1c9.7 6.2 19.9 11.7 30.6 16.5-8.5 6-18.7 12.1-30.7 17.9-12-5.7-22.1-11.9-30.7-17.9 10.9-4.8 21.1-10.3 30.8-16.5zm7.5-5c9.6-6.7 18.6-14.1 26.9-22.1 9.4 4.9 19.4 9.1 30 12.6-3.9 4.7-8.9 10.3-15.3 16.2-3.1 2.9-6.7 6-10.8 9.1-11.4-4.7-21.6-10.1-30.8-15.8zm46.6-57.8c-3.9 5.6-8.6 11.8-14.3 18.2-2.1 2.4-4.4 4.9-6.9 7.4-10.1-5.7-18.9-11.8-26.7-18.3 4.6-4.3 9-8.7 13.2-13.5 2.9-3.3 5.6-6.6 8.2-10 8.2 5.6 17.1 11.1 26.5 16.2zm-26.6-79.8c8.8-11.9 19.2-20.6 31.1-26.1-8.7 12.9-14.5 26.5-17.3 40.6-5-2.7-10.3-4.8-15.8-6.3.6-2.7 1.4-5.4 2-8.2zm-6.7 15.6c1 .2 2.1.5 3.1.8l2.1.6c5.3 1.7 10.3 4 15.1 6.9-3 7.2-7.9 17.2-15.5 28.2-7.3-5.4-13.9-11-19.6-16.6 6.3-6.7 11.2-13.4 14.8-19.9zm-26.3-1.8h11c2.3 0 4.5.1 6.7.3-3.1 5.1-7.1 10.3-11.8 15.5-4.7-5.2-8.7-10.4-11.8-15.5 2-.2 3.9-.3 5.9-.3zm-35.9-65.3c-1.5-1.8-3.1-3.6-4.7-5.5 15 5.8 28.6 14.9 40.5 27.2-3.8 4.4-7.5 9.1-11 14.1-6-13.9-15.2-24.6-24.8-35.8zm15.5 68.4c1.9-.6 3.9-1.1 5.9-1.5 3.6 6.6 8.6 13.3 14.7 20.1-5.9 5.7-12.6 11.3-20.2 16.9-7.6-11.1-12.6-21.2-15.6-28.4 1.4-.9 2.9-1.7 4.4-2.5 3.4-1.9 7-3.4 10.8-4.6-.1.1-.1.1 0 0-.1.1 0 .1 0 0zm-33.4-43.9c14.5 5.5 25.6 15.4 32 28.6-1.6 2.8-3.1 5.7-4.6 8.7-3.3 1.2-6.4 2.6-9.5 4.2-2.8-14.4-8.8-28.3-17.9-41.5zm11.3 55.7c4.2 9.9 9.5 19.4 15.7 28.5-8 5.5-16.8 10.8-26.3 15.9-5.4-8.6-8.5-15.2-9.7-17.9 4.5-10.5 11.6-19.6 20.3-26.5zm-24 37.5c1.6 3 3.6 6.6 6.1 10.6-2.6 1.3-5.3 2.7-8 3.9.1-4.9.8-9.8 1.9-14.5zm10.6 17.5c4.1 5.9 9.1 12.5 15.1 19.4 1.9 2.1 3.8 4.2 5.8 6.3-8.8 4.4-18.5 8.5-29.1 11.9-2.2-3.1-3.6-5.4-4.3-6.6v-24.9c4.2-2 8.4-4 12.5-6.1zM199 361.7v-.7c0-.7.5-1.4 1.2-1.6 4.2 5.4 10.1 12.1 17.9 19.3 2.4 2.2 5 4.5 8 6.9-6.3 2.4-12.9 4.6-19.8 6.6-4.7-9.1-7.3-19.5-7.3-30.5zm11.4 37.8c7.9-2.3 15.6-5 23.1-8 8.2 6.1 18.1 12.5 29.8 18.5-9.3 3.9-19.5 7.5-30.7 10.6-8.9-5.3-16.5-12.5-22.2-21.1zm57 30.7c-8.4 0-16.4-1.5-23.9-4.3 10.7-3.3 20.5-7.1 29.4-11.2 8.9 4.1 18.6 7.8 29.4 11.2-7.4 2.8-15.5 4.3-23.9 4.3h-11zm45.9-9.6c-11.2-3.1-21.4-6.7-30.7-10.6 11.7-6 21.5-12.4 29.8-18.5 7.5 3 15.2 5.7 23.1 8-5.8 8.6-13.4 15.8-22.2 21.1zm33.5-58.9c0 11-2.6 21.3-7.2 30.5-6.9-2-13.5-4.2-19.8-6.6 2.9-2.4 5.6-4.7 8-6.9 7.8-7.2 13.6-13.9 17.9-19.3.7.2 1.2.8 1.2 1.6v.7z"/><path d="M273 294c-2.3 0-4.1-1.8-4.1-4.1s1.8-4.1 4.1-4.1h.1c2.3 0 4.1 1.8 4.1 4.1s-2 4.1-4.2 4.1zm-32.6 23c-2.3 0-4.2-1.8-4.2-4.1s1.8-4.1 4.1-4.1h.1c2.3 0 4.1 1.8 4.1 4.1s-1.9 4.1-4.1 4.1zm-31.7 16.8c-2.3 0-4.2-1.8-4.2-4.1s1.8-4.1 4.1-4.1h.1c2.3 0 4.1 1.8 4.1 4.1s-1.9 4.1-4.1 4.1zm9.8-49.5c-2.3 0-4.1-1.8-4.1-4.1s1.8-4.1 4.1-4.1h.1c2.3 0 4.1 1.8 4.1 4.1-.1 2.2-1.9 4.1-4.2 4.1zm53.9 61.7c-2.3 0-4.1-1.8-4.1-4.1s1.8-4.1 4.1-4.1h.1c2.3 0 4.1 1.8 4.1 4.1-.1 2.2-1.9 4.1-4.2 4.1zm-37.2 20.4c-2.3 0-4.1-1.8-4.1-4.1s1.8-4.1 4.1-4.1h.1c2.3 0 4.1 1.8 4.1 4.1-.1 2.3-1.9 4.1-4.2 4.1zm-3.1 40.7c-2.3 0-4.1-1.8-4.1-4.1s1.8-4.1 4.1-4.1h.1c2.3 0 4.1 1.8 4.1 4.1-.1 2.2-2 4.1-4.2 4.1zm40.5-15.1c-2.3 0-4.2-1.8-4.2-4.1s1.8-4.1 4.1-4.1h.1c2.3 0 4.1 1.8 4.1 4.1s-1.8 4.1-4.1 4.1zm31.2-75c-2.3 0-4.1-1.8-4.1-4.1s1.8-4.1 4.1-4.1h.1c2.3 0 4.1 1.8 4.1 4.1s-1.9 4.1-4.2 4.1zm31.7 16.8c-2.3 0-4.1-1.8-4.1-4.1s1.8-4.1 4.1-4.1h.1c2.3 0 4.1 1.8 4.1 4.1s-1.9 4.1-4.2 4.1zm-9.8-49.5c-2.3 0-4.1-1.8-4.1-4.1s1.8-4.1 4.1-4.1h.1c2.3 0 4.1 1.8 4.1 4.1-.1 2.2-1.9 4.1-4.2 4.1zM309 366.4c-2.3 0-4.1-1.8-4.1-4.1s1.8-4.1 4.1-4.1h.1c2.3 0 4.1 1.8 4.1 4.1-.1 2.3-1.9 4.1-4.2 4.1zm3.1 40.7c-2.3 0-4.1-1.8-4.1-4.1s1.8-4.1 4.1-4.1h.1c2.3 0 4.1 1.8 4.1 4.1-.1 2.2-1.9 4.1-4.2 4.1zm-62.7-142c-2.3 0-4.1-1.8-4.1-4.1s1.8-4.1 4.1-4.1h.1c2.3 0 4.1 1.8 4.1 4.1-.1 2.3-2 4.1-4.2 4.1zm47.2 0c-2.3 0-4.1-1.8-4.1-4.1s1.8-4.1 4.1-4.1h.1c2.3 0 4.1 1.8 4.1 4.1-.2 2.3-2 4.1-4.2 4.1z"/></g><path d="M446.7 364.1l-12.2-4.2-19.2-13.6c-.2-.1-.4-.3-.7-.4l-34.4-14.5c-1.3-.6-3-.3-4.2.6l-13.8 10.3c-1.2.9-1.9 2.4-1.8 3.8.1.8.4 1.5.8 2 .1.1.1.2.2.3l15.5 20.8-2.5 15.8c-1.3 8.2-4 16.2-8 23.8-1.1 2-.3 4.3 1.7 5.2 1.4.6 3 .3 4.2-.6.5-.4 1-.9 1.3-1.6 4.5-8.4 7.4-17.3 8.9-26.4l2.8-17.4 2.5-1.8 7.8 10.5.8 17.8c.6 14.6-2.8 29.5-10 43.2-8.7 16.7-22.8 30.9-39.6 40.2l-13.7 7.6c-1.3.7-2.5 1.5-3.7 2.3-10.6 1.6-19.9.6-27.8-1.3l.5-7.3c.2-2.2-1.5-3.9-3.8-3.8-2.3.1-4.2 1.9-4.4 4.1l-.3 4.7c-4.1-1.4-7.8-2.9-10.9-4.2l1.5-6.3 8.9-3c.7-.2 1.3-.6 1.8-1.2 3.5-3.5 7.8-6.2 12.4-7.8l12.9-4.4c11.6-3.9 22.2-10 31.6-18.1 1.8-1.5 2.1-4 .7-5.6-1.4-1.6-4-1.6-5.8-.1-8.5 7.3-18 12.8-28.5 16.3l-12.9 4.4c-5.7 1.9-10.9 5.1-15.3 9.3l-10.3 3.5c-1.5.5-2.7 1.8-3 3.3l-2.8 11.7c-.4 1.8.4 3.5 2 4.2.7.3 1.3.6 2.1.9 9.1 3.9 23.4 9.9 41.8 9.5-.7.8-1.3 1.6-1.9 2.4l-11.1 6.1c-1.4.8-2.3 2.2-2.4 3.7l-.5 13.4c-.1 1.8 1.1 3.3 2.9 3.6 11.2 2.2 23.1 2.2 34.8.2l1.3 10.9c.2 1.7 1.6 3 3.5 3.1 7.5.3 15.1-.3 22.6-1.8.3 0 .5-.1.8-.2 6.7-1.3 13.2-3.3 19.6-5.9l3.7-1.5c11.3-4.7 22-10.8 31.8-18.1 14.7-10.9 27.3-24.5 36.9-40 8.4-13.5 14-28.2 16.5-43.1v-30.9c-3.9-16-15.4-28.8-31.6-34.4zm-34.3-9.6l13.2 9.4-9.2 7.4-9.5-12.8 5.5-4zm-30.7 6.7l-5.6-7.5 3.4 1.2c.1.1.2.3.2.4l3.5 4.7-1.5 1.2zm-8.8-17.3l5.7-4.2 26.3 11.1-3.8 2.9-28.2-9.8zm20.9 15.9l4.7 1.6 3.2 4.3-2.3 1.7-5.6-7.6zm-46.7 157c-3.7.9-7.5 1.6-11.3 2l-.6-5c-.3-2.1-2.3-3.5-4.6-2.9-2.2.5-3.9 2.6-3.6 4.8l.5 3.7c-5.2.1-10.3-.2-15.3-1l.3-7.9 9.8-5.4c.6-.4 1.2-.9 1.6-1.5 3.2-4.7 7.6-8.6 12.6-11.4l13.7-7.6c18.4-10.2 33.8-25.8 43.4-44.1 7.9-15 11.6-31.4 10.9-47.4l-.9-19.4 2.5-1.9 5.3 7.1 4.2 20.1c2.9 14.1 1.8 29.1-3.2 43.5-6.1 17.5-18 33.4-33.5 44.9l-12.6 9.4c-5.5 4.1-10 9.3-13.2 15.3l-6 4.7zm124.5-103.1c-.2 18.9-5.9 38-16.6 55.2-15 24.1-37.9 43.4-64.3 54.3l-3.7 1.5c-4.8 2-9.8 3.6-14.8 4.7l-1.5-5.3c-.6-2-2.8-3.1-5-2.3-2.2.8-3.5 3.1-2.9 5.1l1.1 4.1c-4.4.6-8.7.9-13.1.9l-1-7.7 1-.8 7.9-5.9c.6-.4 1.1-1 1.4-1.7 2.5-5 6.3-9.5 10.9-12.9l12.6-9.4c16.9-12.6 29.9-30.1 36.7-49.2 5.5-15.8 6.8-32.2 3.5-47.6l-3.9-18.4 12.8-10.3 10.5 3.6c17.4 6 28.5 21.9 28.3 40.3l.1 1.8z"/></svg>