<svg height="512" viewBox="0 0 64 64" width="512" xmlns="http://www.w3.org/2000/svg"><path d="M32.604 2.203a1 1 0 00-1.209 0l-29 22c-.249.19-.395.484-.395.797v36a1 1 0 001 1h58a1 1 0 001-1V25a1 1 0 00-.396-.797zM13 26v23.586l-9 9V26zm36 23h-9v-1.184A2.996 2.996 0 0042 45a2.994 2.994 0 00-2.792-2.979l6.539-7.356a1.001 1.001 0 00-.888-1.655l-2.591.37a8.497 8.497 0 00-4.718 2.331c.649-3.177.819-6.447.456-9.716l-.013-.11a.998.998 0 00-1.84-.416l-.396.634a31.314 31.314 0 00-3.046 6.422 21.259 21.259 0 00-1.516-5.052l-1.279-2.879a1.025 1.025 0 00-.962-.593.998.998 0 00-.9.683l-.858 2.575a21.396 21.396 0 00-1.029 8.19 8.49 8.49 0 00-4.432-2.069l-2.591-.37a1 1 0 00-.888 1.655l6.539 7.356A2.995 2.995 0 0022 45c0 1.302.839 2.402 2 2.816V49h-9V25.49l17-13.222L49 25.49zm-12.449-7h-.108l.93-2.479a6.51 6.51 0 015.064-4.144zm-3.189 0h-.342a29.232 29.232 0 013.179-12.624c.013 4.36-.956 8.66-2.837 12.624zm-2.792-1.678L30.197 42h-.477l-.63-1.891a19.448 19.448 0 01-.001-12.218l.043-.128.232.523a19.43 19.43 0 011.206 12.036zM27.557 42h-.108l-5.887-6.623a6.51 6.51 0 015.064 4.144zM39 44a1.001 1.001 0 010 2H25a1.001 1.001 0 010-2zm-13 4h12v7c0 .551-.448 1-1 1H27c-.552 0-1-.449-1-1zm-11.586 3H24v4c0 1.654 1.346 3 3 3h10c1.654 0 3-1.346 3-3v-4h9.586l9 9H5.414zM51 49.586V26h9v32.586zM32 4.255L58.027 24h-7.684L32.614 10.21a1.004 1.004 0 00-1.229 0L13.657 24H5.973z"/></svg>