<svg version="1.1" id="Layer_1" xmlns="http://www.w3.org/2000/svg" x="0" y="0" viewBox="0 0 60.4 72.5" xml:space="preserve"><style>.st0{fill:#231f20}</style><path class="st0" d="M20.7 40.9c1.2-1.3 3.3-1.1 4.4.2.7.8 2.7-.1 2-1-2.2-2.4-6.1-2.3-8.2.1-1 1 1.1 1.4 1.8.7zm14.7.7c1.2-1.5 3.5-1.1 4.4.5.6.9 2.6 0 2-1-1.8-2.8-6.3-2.7-8.3-.2-.8 1 1.2 1.5 1.9.7z"/><path class="st0" d="M55 41.9c-1.6-2.7-2.4-5.8-2.3-8.9l.3-7.3c.5-10-7.3-18.5-17.3-18.9l-8-.4C17.7 6 9.2 13.8 8.8 23.7L8.5 31c-.1 3.1-1.2 6.2-3.1 8.7C1.3 45.3 1.2 53.3 4 59.5c.8 1.7 1.8 3.5 3.2 4.8 1.9 1.9 4.7 2.2 7.3 1.9 1.3-.2 2.6-.5 3.8-.9.9-.3 1.8-.5 2.7-1 .5-.3 1-.6 1.4-1.1 1.1-1.3 1.8-2.8 2-4.4 1.6.5 3.3.9 5 1 3.4.2 6.6-.7 9.4-2.2.6 1.6 1.4 3.1 2.4 4.5.5.7 1.1 1.5 1.9 2 1.4 1 3 1.2 4.3 1.3h1c1 0 2.3-.1 3.4-.6 1.6-.6 2.9-1.9 3.3-3.4 3.5-5.9 3.5-13.4-.1-19.5zM27.6 9.1l8 .4c.3 0 .6.1.9.1-.9 1.4-2.2 2.4-3.6 2.8 0-.1-.1-.2-.2-.4-.2-.2-.4-.4-.7-.4h-.1c-.1 0-.3.1-.3.2s.1.3.2.3h.1c.1 0 .3.1.4.2.1.1.1.3.1.4l-.5 1.6-.2-.3c-.2-.2-.6-.3-.8 0l-.2.2-.4-1.6c0-.1 0-.3.1-.4.1-.1.2-.2.4-.2h.1c.1 0 .3-.1.3-.2s-.1-.3-.2-.3h-.1c-.3 0-.6.1-.8.3-.1.1-.1.2-.2.3-1.4-.5-2.5-1.6-3.4-3.1.3.1.7.1 1.1.1zm7.3 7.5l.6.2h.1v.1l-.2.6c-.2.7-.8 1.2-1.5 1.4-.4-.1-.8-.2-1.2-.1-.1-.4-.2-.7-.5-1 .4-.9 1.6-1.5 2.7-1.2zm-2.3-1.4c.2-.1.4-.2.5-.2l.6-.1h.1v.1l.1.6v.5c-.4 0-.7.1-1 .3-.1 0-.1.1-.2.1.2-.5.1-.9-.1-1.3zm-.5 5.3c.3-.3.6-.6.6-1.1.5-.1 1.1 0 1.5.3.5.3.8.8.9 1.4l.1.6v.1h-.1l-.5.2c-1.1.2-2.2-.5-2.5-1.5zm1.7 2c0 .2 0 .3-.1.5l-.2.6v.1h-.1l-.6-.2c-.2-.1-.4-.1-.5-.2.2-.4.3-.8.4-1.2.1 0 .1.1.2.1.2.1.5.2.9.3zm-4.8-.8c0 .1.1.1.2.1h.1c0 .4.1.9.3 1.2-.2.1-.4.2-.5.2l-.6.1s-.1 0-.1-.1l-.1-.6v-.5h.1c.1 0 .2-.1.2-.3s-.1-.2-.3-.2c-.3 0-.6 0-.9-.1l-.6-.2h-.1v-.1l.2-.6c.2-.7.8-1.2 1.5-1.5.2.1.5.1.7.1h.5c.1.4.2.7.5 1-.2.4-.5.8-.8 1-.4.3-.4.4-.3.5zm1-3.9c-.3.3-.6.6-.6 1.1-1.1.2-2.2-.6-2.5-1.7l-.1-.6s0-.1.1-.1l.6-.1c1.1-.3 2.2.3 2.5 1.4zm-1.6-2c0-.2 0-.3.1-.5l.2-.6v-.1h.1l.6.2c.2.1.4.1.5.2-.2.4-.3.8-.4 1.2-.1 0-.1-.1-.2-.1-.3-.1-.6-.3-.9-.3zm-1.6 2.4c.2.3.5.6.8.8-.3.2-.7.4-.9.7l-.3-.3-.4-.4v-.1l.5-.4c.1-.2.2-.3.3-.3zm3 3.2c.2-.2.4-.5.5-.7.2.1.4.2.7.2.2 0 .5 0 .7-.1.1.3.2.5.4.8.1.7-.1 1.4-.7 1.9l-.5.4h-.1l-.4-.5c-.6-.5-.7-1.3-.6-2zm1.2-1.1c-.7 0-1.2-.6-1.1-1.2 0-.7.6-1.2 1.2-1.1.7 0 1.2.6 1.1 1.2 0 .6-.5 1.1-1.2 1.1zm4.3-.2c-.2-.3-.5-.6-.8-.8.3-.2.6-.4.9-.7l.3.3.4.5v.1l-.5.4c-.1 0-.2.1-.3.2zm-3-3.3s0 .1 0 0c-.2.2-.4.5-.5.8-.2-.1-.4-.2-.7-.2-.2 0-.5 0-.7.1-.1-.3-.2-.6-.4-.8-.1-.7.2-1.5.7-2l.5-.4h.1l.4.5c.6.6.7 1.3.6 2zm-6.4-7.6c.9 1.8 2.3 3.1 3.9 3.6l.1.6c-.9-.3-1.7-.7-2.5-1.4s-1.5-1.7-2.1-2.7c.2-.1.4-.1.6-.1zm26.6 51.4l-.1.1c-.2.3-.4.7-.7 1-.3.3-.6.5-1 .6-.8.3-1.8.4-3.2.4-.9-.1-2.1-.2-2.9-.8-.5-.3-.9-.9-1.2-1.4-1-1.4-1.7-2.9-2.3-4.4 4.1-3.1 6.8-7.9 7-13.4 0-.1.4-9.4.4-9.5 0-.7-.6-1.3-1.3-1.3-.2 0-1.9.2-3.5-.8-2.5-1.6-2.3-5-2.3-5 .1-1.1-1.1-1.8-2.1-1.2-5.7 3.7-12.3 6-19.4 6.7-.7.1-1.3.7-1.2 1.5.1.7.6 1.2 1.3 1.2.2 0 4.6-.3 9.6-1.9 3.2-1 6.4-2.4 9.3-4.1.8 3.8 3.5 5.9 6.8 6.3l-.4 8c-.4 8.4-7.5 15-15.9 14.6-8.4-.4-15-7.5-14.6-15.9l.4-9.4c0-.7-.5-1.4-1.3-1.4s-1.4.5-1.4 1.3l-.4 9.4c-.3 7.1 3.6 13.5 9.5 16.7v.4c-.1 3.1-.3 4.1-4.8 5.5-1.6.5-3.9 1.1-6 .5l-.8-.9C3.4 57.7 2.6 48 7.6 41.3c2.1-2.9 3.4-6.4 3.6-10.2l.3-7.3c.3-7.6 6.1-13.6 13.4-14.6.6 1.2 1.3 2.3 2.3 3.1.9.8 1.9 1.3 3 1.5l.1.7v.1c-.2-.1-.4-.2-.7-.3l-.6-.2h-.4l-.3.3-.3.8c-.1.2-.1.4-.1.6-.2 0-.3 0-.5.1l-.6.1c-.3.1-.5.4-.5.7l.1.6c0 .2.1.3.1.5-.1.1-.3.2-.4.3l-.5.4c-.2.2-.3.6 0 .8l.4.5c.1.1.2.2.4.3-.1.1-.1.3-.2.4l-.2.6v.4c0 .1.2.2.3.3l.6.2c.2 0 .3.1.5.1 0 .2 0 .4.1.6l.1.6c.1.3.3.5.5.5h.1l.6-.1c.2-.1.5-.1.7-.3.1.1.1.2.2.2l.4.5c.1.1.3.2.4.2.2 0 .3 0 .4-.2l.5-.4.2-.2c.2.1.4.2.7.3l.6.2h.1c.1 0 .2 0 .3-.1l.3-.3.2-.6c.1-.2.1-.4.1-.6.2 0 .3 0 .5-.1l.6-.1c.2 0 .3-.1.4-.3.1-.1.1-.3.1-.4l.2-.5c0-.2-.1-.3-.1-.5.1-.1.3-.2.4-.3l.5-.4c.2-.2.3-.6 0-.8l-.5-.5c-.1-.1-.2-.2-.4-.3.1-.1.1-.3.2-.4l.2-.6c.1-.3-.1-.6-.4-.7l-.6-.4c-.2 0-.3-.1-.5-.1 0-.2 0-.4-.1-.6l-.1-.6c0-.2-.1-.3-.3-.4-.1-.1-.3-.1-.4-.1l-.6.2c-.2.1-.5.1-.7.3v-.1l.2-.7c1.1-.2 2.1-.6 3.1-1.3.1-.1.3-.2.4-.3.1-.1.1-.2 0-.4-.1-.1-.2-.1-.4 0-.1.1-.3.2-.4.3-.8.6-1.7 1-2.6 1.1l.2-.6c1.7-.4 3.2-1.6 4.2-3.3.2 0 .3.1.5.1-.3.6-.7 1.1-1.1 1.5-.1.1-.1.3 0 .4.1.1.3.1.4 0 .5-.5.9-1.1 1.3-1.8 7.3 1.5 12.6 8.1 12.2 15.8l-.3 7.4c-.2 3.7.7 7.3 2.6 10.4 3.3 5.3 3.2 12-.1 17.3z"/></svg>