<svg xmlns="http://www.w3.org/2000/svg" viewBox="0 0 60.4 72.5"><path d="M29.6 49.7c-.5.8-1.7 2.6-1.7 3.7 0 1.3 1.1 2.4 2.4 2.4 1.3 0 2.4-1.1 2.4-2.4 0-1-1.2-2.9-1.7-3.7-.3-.4-.8-.4-1.2-.2-.1.1-.1.2-.2.2zm1.5 3.7c0 .4-.4.8-.8.8s-.8-.4-.8-.8c.2-.6.4-1.2.8-1.7.4.5.6 1.1.8 1.7zm14.4-2.2c1.2-3.3 2.8-6.5 4.7-9.4.2-.4.1-.9-.2-1.1l-.1-.1-4-1.6-.6 1.5 3.1 1.2c-1.8 2.8-3.2 5.8-4.4 9l1.5.5zm-3.12 3.514l.79-2.371 1.518.506-.791 2.372z"/><path d="M6.3 39.5c-.1.2-.1.5.1.7.1.2 9.5 15.9 9.5 25.2 0 .4.4.8.8.8h27.2c.4 0 .8-.4.8-.8 0-9.3 9.4-25.1 9.5-25.2.2-.4.1-.9-.3-1.1 0 0-.1 0-.1-.1-.1 0-6.5-2.4-11.2-4-.5-.2-.9-.4-1.4-.7-2.8-1.9-2.9-5.6-2.9-5.8 0-.3-.1-.6-.2-.9v-.1c-.8-1.8-4-3-7.8-3s-7 1.2-7.8 3v.1c-.1.3-.2.6-.2.9 0 .2-.1 3.9-2.9 5.8-.4.3-.9.6-1.4.7-4.8 1.6-11.2 4-11.2 4-.2.1-.4.3-.5.5zm24-13.3c3.1 0 5.4.9 6.2 1.8-.8 1.7-3.3 3-6.2 3-2.9 0-5.4-1.3-6.2-3 .8-.9 3.1-1.8 6.2-1.8zm-6.6 4c1.8 1.6 4.2 2.5 6.6 2.4 2.4.1 4.8-.8 6.6-2.4.3 1.9 1.2 3.6 2.6 4.9l-1 1c-.3-.2-.7-.2-1-.2-1.3 0-2.4 1.1-2.4 2.4 0 .4.1.7.2 1l-.8.7c-.3-.2-.7-.3-1.1-.3-1.3 0-2.4 1.1-2.4 2.4 0 .4.1.7.2 1l-1 1-1-1c.2-.3.2-.7.2-1 0-1.3-1.1-2.4-2.4-2.4-.4 0-.7.1-1.1.3l-.8-.8c.2-.3.2-.7.2-1 0-1.3-1.1-2.4-2.4-2.4-.4 0-.7.1-1 .2l-1-1c1.6-1.3 2.5-3 2.8-4.8zm14.6 8c0 .4-.4.8-.8.8s-.8-.4-.8-.8.4-.8.8-.8.8.3.8.8zm-4 4c0 .4-.4.8-.8.8s-.8-.4-.8-.8.4-.8.8-.8c.5 0 .8.3.8.8zm0 11.2c0 2.2-1.8 4-4 4s-4-1.8-4-4c0-1.5 2.3-4.7 4-6.8 1.8 2.1 4 5.3 4 6.8zm-6.4-11.2c0 .4-.4.8-.8.8s-.8-.4-.8-.8.4-.8.8-.8.8.3.8.8zm-4-4c0 .4-.4.8-.8.8s-.8-.4-.8-.8.4-.8.8-.8.8.3.8.8zm-5.4-1.7c.4-.1.8-.3 1.2-.5l1.2 1.2c-.2.3-.2.7-.2 1 0 1.3 1.1 2.4 2.4 2.4.4 0 .7-.1 1-.2l.8.8c-.2.3-.3.7-.3 1.1 0 1.3 1.1 2.4 2.4 2.4.4 0 .7-.1 1-.2l1.1 1.1c-1.3 1.5-4.5 5.5-4.5 8 0 3.1 2.5 5.6 5.6 5.6s5.6-2.5 5.6-5.6c0-2.4-3.2-6.4-4.5-8l1.1-1.1c.3.2.7.2 1 .2 1.3 0 2.4-1.1 2.4-2.4 0-.4-.1-.7-.3-1.1l.8-.8c.3.2.7.2 1 .2 1.3 0 2.4-1.1 2.4-2.4 0-.4-.1-.7-.2-1l1.2-1.2c.4.2.8.4 1.2.5 3.7 1.2 8.4 2.9 10.3 3.7-1.9 3.3-8.8 15.8-9.2 24.4H17.5C17 56 10.2 43.5 8.2 40.2c2-.7 6.7-2.4 10.3-3.7z"/></svg>