<svg xmlns="http://www.w3.org/2000/svg" viewBox="0 0 60.4 72.5"><path d="M33.3 17.6c-.5-.1-1-.1-1.5-.1h-.1c-.5 0-1-.1-1.5-.1-13.2 0-24 10.8-24 24 0 11.2 7.6 20.6 18 23.2h.1c.3.1.6.1.9.2.1 0 .3.1.4.1.2 0 .4.1.6.1.2 0 .5.1.7.1h.3c.3 0 .7.1 1 .1h.1c.4 0 .8.1 1.1.1h.8c13.2 0 24-10.8 24-24 0-12.1-9.1-22.2-20.9-23.7zM30.2 19c.8 0 1.6 0 2.4.1l.8 2.1c0 .1 4.4 11.3 9.5 20.1 1.6 2.7 1.9 5 1 6.9-1.5 3-5.7 4.3-7.9 4.6h-.2c-2.5.3-5.1.7-6.4 2.4-.8 1.1-1.1 2.5-.8 4.3.1.7.2 1.7.2 2.7v1.5c-.3 0-.7-.1-1-.1h-.2c-.3 0-.5-.1-.8-.1-.2 0-.3-.1-.5-.1s-.3-.1-.5-.1C16 61.3 8.6 52.8 8 42.6v-1.2C7.8 29.1 17.9 19 30.2 19zm0 44.8v-1.5c0-1.1-.1-2.2-.2-3-.2-1.4 0-2.4.5-3.1.9-1.2 3.1-1.5 5.4-1.8h.2c3.2-.4 7.5-2.1 9.2-5.4 1.2-2.4.8-5.2-1-8.4-5.1-8.7-9.3-19.7-9.4-19.8l-.5-1.2c10.3 2 18.2 11.1 18.2 22 0 12.1-10 22.2-22.4 22.2z"/><path d="M27.2 50.5c6.2-1.1 8.8-1.1 9.8-.9-.6.3-1.6.4-2.2.2-.4-.2-.9 0-1.1.4-.2.4 0 .9.4 1.1.4.2 1 .3 1.5.3 1.2 0 2.5-.5 3.1-1.1.4-.4.5-1 .3-1.5-.3-.5-1.1-2-12 .1-4.6.8-7.6.4-8.8-1.2-1.5-2.2.3-6.5 1.2-7.9.2-.4.1-.9-.3-1.1-.4-.2-.9-.1-1.1.3-.1.3-3.6 6.1-1.1 9.6 1.5 2.1 5 2.7 10.3 1.7z"/><path d="M36.2 39.2c-.3-.5-.9-.7-1.4-.4l-1.3.8v-1.5c0-.6-.5-1-1-1-.6 0-1 .5-1 1v1.5l-1.3-.8c-.5-.3-1.1-.1-1.4.4-.3.5-.1 1.1.4 1.4l1.3.8-1.3.8c-.5.3-.7.9-.4 1.4.2.3.5.5.9.5.2 0 .4 0 .5-.1l1.3-.8v1.5c0 .6.5 1 1 1 .6 0 1-.5 1-1v-1.5l1.3.8c.2.1.3.1.5.1.4 0 .7-.2.9-.5.3-.5.1-1.1-.4-1.4l-1.3-.8 1.3-.8c.5-.3.7-.9.4-1.4z"/></svg>