<svg version="1.1" id="Layer_1" xmlns="http://www.w3.org/2000/svg" x="0" y="0" viewBox="0 0 56.6 72.5" xml:space="preserve"><style>.st0{fill:#010101}</style><path class="st0" d="M37.9 51.8c-1.8-.4-3.3-1.5-4.3-3-.3-.5-.1-1.2.4-1.5.5-.3 1.2-.1 1.5.4.8 1.3 2.1 2.1 3.6 2.2h.4c3.4.1 6.6 1.6 8.7 4.4l2.3-2.3c.9-.9 1-2.3.2-3.3-1.7-2.2-1.3-4.8.4-6.3.9-.9 1-2.3.2-3.3l-1.6-2c-.9-1.2-1.2-2.7-.8-4.2l1-3.4c.4-1.2-.3-2.5-1.4-3l-1.3-.5c-1.7-.7-2.9-2.4-2.9-4.3v-3.5c0-6.9-5.6-12.4-12.4-12.4h-6.5C18.5 5.8 13 11.4 13 18.2v3.5c0 1.9-1.1 3.6-2.9 4.3l-1.3.5c-1.2.5-1.8 1.8-1.4 3l1 3.4c.4 1.4.1 3-.8 4.2l-1.6 2c-.8 1-.7 2.5.2 3.3 1.6 1.6 2.1 4.2.4 6.3-.8 1-.7 2.4.2 3.3L9 54.2c2.1-2.7 5.3-4.4 8.9-4.4 2.5 0 4.5-2 4.5-4.5V45c-4.5-2.1-7.5-6.3-8.1-11.1-.1-.6.3-1.1.9-1.2.6-.1 1.1.3 1.2.9.8 6 6.1 10.6 12.2 10.6 6.8 0 12.3-5.5 12.3-12.3v-6.7c-2.5-.9-4.7-2.7-6.2-5.1-5.2 6.1-12.7 9.6-20.5 9.9-.6 0-1.1-.4-1.1-1s.4-1.1 1-1.1c7.8-.3 15.1-4 20-10.4.5-.7 1.6-.5 1.9.3 1.1 2.9 3.5 4.9 6.3 5.7.4.1.7.5.8 1v7.7C43 41.7 33.8 48.7 24.6 46c-.1 1.8-1 3.5-2.5 4.7L20 51.8c-1.2.2-2.3.2-2.2.2-5 0-9 4-9 9v7.8c0 .6-.5 1.1-1.1 1.1s-1.1-.5-1.1-1.1V61c0-1.7.4-3.4 1.1-4.9l-2.6-2.6c-1.5-1.5-1.9-4.1-.3-6.3.8-1 .7-2.4-.2-3.3-1.7-1.6-1.9-4.4-.4-6.2l1.6-2c.5-.6.7-1.5.4-2.2l-1-3.4c-.7-2.3.5-4.7 2.7-5.6l1.3-.5c.9-.4 1.5-1.3 1.5-2.3v-3.5c0-8.1 6.6-14.6 14.6-14.6h6.5c8.1 0 14.6 6.6 14.6 14.6v3.5c0 1 .6 1.9 1.5 2.3l1.3.5c2.2.9 3.4 3.3 2.7 5.6l-1 3.4c-.2.8-.1 1.6.4 2.2l1.6 2c1.5 1.9 1.3 4.6-.4 6.2-.9.9-1 2.3-.2 3.3 1.7 2.1 1.3 4.7-.3 6.3l-2.6 2.6c.7 1.5 1.1 3.2 1.1 4.9v7.8c0 .6-.5 1.1-1.1 1.1s-1.1-.5-1.1-1.1V61c0-4.7-3.6-8.6-8.3-9"/><path class="st0" d="M37.8 50.6c-1.8 2.7-4.6 5.4-9 7.2-4.7-2-7.6-5-9.4-7.9l-.7.3c1.8 2.9 4.7 6.1 9.5 8.1L25 60.2s-.1 0-.1.1v6.6l3.5 2.2h.2l3.5-2.2v-6.5s0-.1-.1-.1l-3.1-1.9c4.4-1.9 7.2-4.7 9-7.4l-.1-.4zm-9.4 8.3v1.3l-1.5.9-1-.6 2.5-1.6zm-2.8 2.2l.9.6v3.9l-.9.6v-5.1zm2.8 7.3l-2.5-1.6 1-.6 1.5.9v1.3zm.4-1.9l-1.6-.9v-3.9l1.6-.9 1.6.9v3.9l-1.6.9zm.3 1.9v-1.3l1.5-.9 1 .6-2.5 1.6zm2.8-2.2l-.9-.6v-3.9l.9-.6v5.1zm-.2-5.7l-1 .6-1.5-.9v-1.3l2.5 1.6zM19.4 31.4c1.4-1.1 3.8-1 5.3-.1.6.4 1.8-.4 1.1-.9-2.1-1.4-5.4-1.3-7.4.2-.7.7.4 1.2 1 .8zm12.6 0c1.3-1.2 4-1.1 5.3.1.5.5 1.7-.3 1.1-.9-1.8-1.7-5.6-1.6-7.4 0-.7.7.4 1.3 1 .8z"/></svg>