<svg height="512" viewBox="0 0 64 64" width="512" xmlns="http://www.w3.org/2000/svg"><path d="M16 20a1 1 0 00-1 1v40a1 1 0 001 1h32a1 1 0 001-1V21a1 1 0 00-1-1H38v-4h2a1 1 0 001-1v-3h2a1 1 0 001-1V3a1 1 0 00-1-1H21a1 1 0 00-1 1v8a1 1 0 001 1h2v3a1 1 0 001 1h2v4zm31 2v38H17V22zM22 4h3v4h2V4h2v4h2V4h2v4h2V4h2v4h2V4h3v6H22zm3 10v-2h14v2zm3 2h8v4h-8z"/><path d="M19 44h26V24H19zm2-18h22v16H21zm0 24h-2v8h5v-2h-3zm5 6h2v2h-2zm17 0h-5v2h7V46h-2z"/><path d="M27 28h-4v2a4 4 0 004 4h4v-2a4 4 0 00-4-4zm0 4a2 2 0 01-2-2h2a2 2 0 012 2zm6 6v2h4a4 4 0 004-4v-2h-4a4 4 0 00-4 4zm4 0h-2a2 2 0 012-2h2a2 2 0 01-2 2zm-2-9h2v2h-2zm-7 7h2v2h-2z"/></svg>