<svg version="1.1" id="Capa_1" xmlns="http://www.w3.org/2000/svg" x="0" y="0" viewBox="0 0 512 512" xml:space="preserve"><style>.st0{font-family:&apos;Arial-BoldMT&apos;}.st1{font-size:29px}.st2{letter-spacing:2}</style><path d="M256 0C158.4 0 95.4 53.1 95.4 135.3c0 84.8 33.6 245.2 160.6 245.2 51.8 0 95-31.6 124.9-91.5 26.4-52.8 35.8-114 35.8-153.7C416.6 53.1 353.6 0 256 0zm0 363.6c-105.5 0-143.7-136.5-143.7-228.3 0-87.4 77.4-118.4 143.7-118.4 66.3 0 143.7 31 143.7 118.4 0 71.5-36.2 228.3-143.7 228.3z"/><path d="M297.8 420.1l-16.9-50.7c-1.1-3.5-4.4-5.8-8-5.8h-42.3c-3.6 0-6.9 2.3-8 5.8l-16.9 50.7c-.9 2.6-.4 5.4 1.2 7.6 1.6 2.2 4.1 3.5 6.9 3.5h76.1c2.7 0 5.3-1.3 6.9-3.5 1.5-2.2 1.9-5 1-7.6zm-72.3-5.8l11.3-33.8h30.1l11.3 33.8h-52.7z"/><path d="M336.6 395.2c-16.7-26.2-60.9-31.3-62.7-31.6-.3 0-.6-.1-.9-.1h-42.3v16.9h41.8c10.9 1.3 39.7 7.9 49.9 23.8 4.3 6.8 4.9 14.7 1.7 24.2-18 54 .2 82.3 1 83.5l14.1-9.3c-.1-.2-14.2-23.3.9-68.8 4.8-14.4 3.7-27.4-3.5-38.6zM264.4 41.6c-.4-4.7-4.4-8.1-9.1-7.8-4.8.4-117 9.9-126.1 92.1-.5 4.6 2.8 8.8 7.5 9.3.3 0 .6.1.9.1 4.3 0 7.9-3.2 8.4-7.5 7.6-68.2 109.6-77 110.6-77.1 4.7-.4 8.2-4.4 7.8-9.1zm-86.3 92.3v59.4h9.1V143h51.2v-9.1zm94.4 0v9.1h51.2v50.3h9.1v-59.4zm-85.3 145.7v-50.4h-9.1v59.4h60.3v-9zm136.5-50.4v50.4h-51.2v9h60.3v-59.4z"/><path d="M275.2 205c5.2-5.1 8.5-12.3 8.5-20.1 0-15.6-12.7-28.3-28.3-28.3s-28.3 12.7-28.3 28.3c0 7.9 3.2 15 8.5 20.1-11.7 3.2-20.3 13.9-20.3 26.5v34.4h80.2v-34.4c0-12.6-8.6-23.3-20.3-26.5zm-19.8-39.3c10.6 0 19.2 8.6 19.2 19.2s-8.6 19.2-19.2 19.2-19.2-8.6-19.2-19.2 8.6-19.2 19.2-19.2zm31.1 91.2h-62.1v-25.4c0-10.2 8.3-18.4 18.4-18.4H268c10.2 0 18.4 8.3 18.4 18.4v25.4z"/><text transform="translate(213.671 121.225)" class="st0 st1 st2">YOUR</text><text transform="translate(202.797 326.225)" class="st0 st1 st2">PHOTO</text></svg>