<svg xmlns="http://www.w3.org/2000/svg" viewBox="0 0 219.1 499.8"><path d="M205.3 321c0-40.8-11.2-80.6-32.3-115.1-14-22.9-23.4-82.2-23.4-108.2V74.4c3.6-2.2 6-6.1 6-10.7V27.3c0-9.6-7.9-17.5-17.5-17.5H92.5C82.8 9.8 75 17.6 75 27.3v8.8c0 4.1 3.4 7.5 7.5 7.5s7.5-3.4 7.5-7.5v-8.8c0-1.4 1.1-2.5 2.5-2.5h45.7c1.4 0 2.5 1.1 2.5 2.5v34H90V35.2c0-4.1-3.4-7.5-7.5-7.5S75 31.1 75 35.2v28.6c0 4.5 2.4 8.5 6 10.7v23.3c0 25.9-9.4 85.3-23.4 108.2-21.1 34.6-32.3 74.3-32.3 115.1v146.4c0 17.9 14.6 32.5 32.5 32.5h115.1c17.9 0 32.5-14.6 32.5-32.5l-.1-146.5zM70.4 213.7C85.8 188.5 96 126.4 96 97.7V76.3h38.7v21.4c0 28.7 10.2 90.7 25.6 116 18.4 30.1 28.7 64.4 30 99.8h-26.6c-.5-6.1-1.8-12.1-3.6-17.7-1.3-3.9-5.5-6.1-9.5-4.8-3.9 1.3-6.1 5.5-4.8 9.5 2.1 6.5 3.2 13.5 3.2 20.6 0 26.9-15.1 48.7-33.6 48.7S81.6 347.9 81.6 321s15.1-48.7 33.6-48.7c5.1 0 10 1.7 14.6 5 3.4 2.4 8.1 1.6 10.5-1.8s1.6-8.1-1.8-10.5c-7.1-5.1-15.2-7.7-23.3-7.7-13.4 0-25.9 6.9-35.1 19.5-7.4 10.1-11.9 22.9-13.1 36.6H40.4c1.2-35.3 11.5-69.6 30-99.7z"/><path d="M77.3 393.3H64.7c-4.1 0-7.5 3.4-7.5 7.5s3.4 7.5 7.5 7.5h12.6c4.1 0 7.5-3.4 7.5-7.5s-3.4-7.5-7.5-7.5zm88.6 0h-12.6c-4.1 0-7.5 3.4-7.5 7.5s3.4 7.5 7.5 7.5h12.6c4.1 0 7.5-3.4 7.5-7.5s-3.3-7.5-7.5-7.5z"/></svg>