<svg xmlns="http://www.w3.org/2000/svg" viewBox="0 0 60.4 72.5"><path d="M30.3 4.5c-.4 0-.7.3-.7.7L29.4 9c0 .4.3.7.7.7.3.1.4-.1.5-.2.2-.2.2-.3.2-.5l.2-3.8c0-.4-.3-.7-.7-.7zm6.6 1.2c-.4-.2-.9-.1-1 .3l-2 3.3c-.2.3-.1.8.2 1 .3.2.6.1.9-.1l.2-.2 2-3.3c.2-.3.1-.9-.3-1zm-13.4-.3c-.3.2-.5.7-.2 1l2 3.3c.2.3.7.4 1 .2l.1-.1c.3-.3.3-.6.1-.9l-2-3.3c-.1-.3-.6-.5-1-.2zm11.7 9.4l-10.1-.3c-.2 0-.5.1-.7.3l-3.3 5.1-.1.1s-.1.1 0 .1c-.1.1 0 .1-.1.2l-.1.1v.2s.1.1 0 .1l.2.2.1.1 6.7 6.6c-5.1.3-9.8 2.3-13.5 5.8-4.2 3.9-6.5 9.2-6.7 14.9 0 5.7 2.1 11.1 6.1 15.3s9.2 6.5 14.9 6.7 11.1-1.9 15.3-5.8 6.5-9.2 6.7-14.9-1.8-11.4-5.7-15.6c-3.5-3.7-8.1-6-13.2-6.5l7-6.2c.1-.1.1-.1.2-.3l.1-.1c.1-.1.1-.2.1-.2l-.1-.1v-.2s-.1-.1 0-.1l-.1-.1-3-5.3c-.1 0-.4-.1-.7-.1zm-9.6 1.1h3.3l-2.3 3.7-3.3-.1 2.3-3.6zm4.5.8l1.6 3-3.4-.1 1.8-2.9zm-3.6 4.4l1.5 4-4.2-4.1 2.7.1zM43.8 35c3.6 3.8 5.6 8.9 5.5 14.2s-2.4 10.3-6.3 14c-3.8 3.6-8.9 5.6-14.2 5.5s-10.3-2.4-13.9-6.3-5.6-8.9-5.5-14.2c.1-5.3 2.4-10.2 6.3-13.9 3.8-3.6 8.9-5.6 14.2-5.5s10.2 2.3 13.9 6.2zm-13.9-9L28 21.1l3.9.1-2 4.8zm1.7-.5l1.9-4.2 2.8.1-4.7 4.1zm5.3-5.6l-3.5-.1-2.1-3.8 3.4.1 2.2 3.8z"/><path d="M16.8 35.4c-7.3 6.9-7.7 18.5-.7 25.8 6.9 7.3 18.5 7.6 25.8.7s7.7-18.5.7-25.8c-6.9-7.3-18.5-7.6-25.8-.7zM40.9 61c-6.7 6.4-17.5 6-23.8-.7s-6-17.4.7-23.7 17.4-6 23.8.7 6 17.3-.7 23.7z"/></svg>