<svg version="1.1" id="Capa_1" xmlns="http://www.w3.org/2000/svg" xmlns:xlink="http://www.w3.org/1999/xlink" x="0" y="0" viewBox="0 0 524.3 686.5" xml:space="preserve"><style>.st0{stroke-width:.8302}.st0,.st1,.st2{stroke:#000;stroke-miterlimit:10}.st1{stroke-width:.5}.st2{stroke-width:2.0781}</style><path d="M38.6 548.1h27.8v32.4h-21c-3.7-10.2-6.1-21.1-6.8-32.4zm420.1 64.4H192.9c-4.1 0-7.5 3.4-7.5 7.5s3.4 7.5 7.5 7.5h251.9c-20.8 18.8-48.3 30.2-78.4 30.2h-211c-30.1 0-57.6-11.4-78.4-30.2h80.9c4.1 0 7.5-3.4 7.5-7.5s-3.4-7.5-7.5-7.5H63.1c-4.1-5.3-7.8-11-11-17h417.7c-3.3 6-7 11.7-11.1 17zm-377.3-32v-32.4h28.7v32.4H81.4zm43.7 0v-32.4H149v32.4h-23.9zm38.9 0v-32.4h28.6v32.4H164zm43.7 0v-32.4h23.9v32.4h-23.9zm38.9 0v-32.4h28.7v32.4h-28.7zm43.6 0v-32.4h23.9v32.4h-23.9zm38.9 0v-32.4h28.6v32.4h-28.6zm43.7 0v-32.4h23.9v32.4h-23.9zm38.9 0v-32.4h28.6v32.4h-28.6zm64.7 0h-21.1v-32.4h27.8c-.7 11.3-3 22.2-6.7 32.4zm-3.7-78h-80.5c-4.1 0-7.5 3.4-7.5 7.5s3.4 7.5 7.5 7.5h109.7v15.6h-482v-15.6h380c4.1 0 7.5-3.4 7.5-7.5s-3.4-7.5-7.5-7.5H17.4c-6.9 0-12.5 5.6-12.5 12.5v20.6c0 6.9 5.6 12.5 12.5 12.5h6.2c3.9 69.3 61.5 124.6 131.8 124.6h211c70.3 0 127.9-55.2 131.8-124.6h6.2c6.9 0 12.5-5.6 12.5-12.5V515c0-6.9-5.6-12.5-12.5-12.5h-31.7z"/><path id="Shape" d="M326.7 304.1h-81.1c-5.6 0-10.1 4.5-10.1 10.1 0 21.2-1-.6 6.4 101.4h-9.8v-20.3c0-9.3-7.6-16.9-16.9-16.9h-33.8c-9.3 0-16.9 7.6-16.9 16.9v20.3h-16.9c-7.5 0-13.5 6.1-13.5 13.5v64.2c0 7.5 6.1 13.5 13.5 13.5H249c2.4 0 4.7-.7 6.7-1.9 2.1 1.2 4.4 1.9 6.8 1.9h47.3c7.5 0 13.5-6.1 13.5-13.5v-24.5c2.1-1.1 3.4-3.1 3.6-5.5 11.4-156.4 9.9-130.2 9.9-149.2 0-5.5-4.5-10-10.1-10zm-81.1 6.8h81.1c1.9 0 3.4 1.5 3.4 3.4v10.1h-6.8V321c0-1.9-1.5-3.4-3.4-3.4s-3.4 1.5-3.4 3.4v3.4h-6.8V321c0-1.9-1.5-3.4-3.4-3.4s-3.4 1.5-3.4 3.4v3.4h-6.8V321c0-1.9-1.5-3.4-3.4-3.4s-3.4 1.5-3.4 3.4v3.4h-6.8V321c0-1.9-1.5-3.4-3.4-3.4s-3.4 1.5-3.4 3.4v3.4h-6.8V321c0-1.9-1.5-3.4-3.4-3.4s-3.4 1.5-3.4 3.4v3.4h-6.8V321c0-1.9-1.5-3.4-3.4-3.4s-3.4 1.5-3.4 3.4v3.4h-6.8v-10.1c.5-1.9 2-3.4 3.9-3.4zm-74.4 87.8v-3.4c0-5.6 4.5-10.1 10.1-10.1h33.8c5.6 0 10.1 4.5 10.1 10.1v3.4h-13.5c-1.9 0-3.4 1.5-3.4 3.4s1.5 3.4 3.4 3.4h13.5v10.1h-54.1v-10.1h27c1.9 0 3.4-1.5 3.4-3.4s-1.5-3.4-3.4-3.4m-50.5 23.7H249c3.7 0 6.8 3 6.8 6.8h-115c0-3.8 3-6.8 6.8-6.8zm169 57.5h-14.7c-2.4.1-4.5 1.4-5.6 3.5-2.8 2.4-6.4 3.6-10.1 3.2-3.7.4-7.3-.8-10.1-3.2-1.1-2.1-3.2-3.5-5.6-3.5h-8v-10.1h54.1v10.1zm-175.8-44h114.9v50.7H140.8v-50.7zm6.8 64.2c-3.7 0-6.8-3-6.8-6.8h114.9c0 3.7-3 6.8-6.8 6.8H147.6zm162.2 0c-51.8 0-47.7.1-49.1-.3 2.2-3.9 1.7-6.4 1.7-13.3h7.6c4.8 8.9 26.8 9.2 32.1 0h14.4v6.8c.1 3.8-3 6.8-6.7 6.8zm10.4-37.1h-57.7v-33.8c0-3.6-1.5-7.1-4.1-9.7-2.6-2.5-6.1-3.9-9.8-3.8l-6.2-84.5h87.4L320.2 463z"/><path d="M216.5 460c-1.3-4.5-15.3-8.8-21.9-7.6-8.4 1.5-13.7 6.7-13.2 12.9-2.5.5-5.4 1-8.6 1.4-1.1.2-1.9 1.2-1.8 2.3.1 1.1 1.2 1.9 2.3 1.8 3.4-.4 6.5-1 9.2-1.5 3 5.6 9.9 6.7 16.1 5.6 9.2-1.7 10.9-9.3 16.1-11.4 1.5-.5 2.3-2 1.8-3.5zM198 470.8c-3.8.7-8.6.5-11.1-2.5 4-.9 7.9-2.2 11.7-3.9 1-.5 1.4-1.8.9-2.8-.5-1-1.7-1.4-2.7-.9-3.6 1.6-7.3 2.8-11.2 3.7.2-3.7 3.9-6.8 9.8-7.9 4.8-.9 12.5 1.6 16.1 3.9-5.1 3.2-6.7 9.2-13.5 10.4zm88.9-98.9c-9.1 0-18.3 22.6-18.3 38.8 0 15.4 4.5 22 16 22.8v6.9c0 1.3 1 2.3 2.3 2.3s2.3-1 2.3-2.3v-6.9c11.5-.7 16-7.3 16-22.8-.1-16.2-9.3-38.8-18.3-38.8zm2.3 57v-8.1l6.2-6.2c.9-.9.9-2.3 0-3.2-.9-.9-2.3-.9-3.2 0l-3 3v-7.2l6.2-6.2c.9-.9.9-2.3 0-3.2s-2.3-.9-3.2 0l-3 3v-10.5c0-1.3-1-2.3-2.3-2.3s-2.3 1-2.3 2.3v10.5l-3-3c-.9-.9-2.3-.9-3.2 0-.9.9-.9 2.3 0 3.2l6.2 6.2v7.2l-3-3c-.9-.9-2.3-.9-3.2 0s-.9 2.3 0 3.2l6.2 6.2v8.1c-7.7-.5-11.4-4-11.4-18.2 0-17.6 10-34.2 13.7-34.2 3.7 0 13.7 16.6 13.7 34.2 0 14.2-3.7 17.7-11.4 18.2z"/><path class="st0" d="M475.8 368.7h-66.5c-1.9 0-3.4 1.5-3.4 3.4v8.8c0 .4.2.8.5 1.2l3.5 3.7 9.4 92.9c.3 2.5 2.1 4.5 4.5 5.2l1.3 15.5c.3 3.3 3 5.8 6.3 5.8h19c3.3 0 6-2.5 6.3-5.8L458 484c2.4-.6 4.3-2.7 4.7-5.3l7-53.5c.1-.8-.4-1.7-1.2-1.9-1-.3-2 .4-2.2 1.4l-4.8 36.3h-6.9c-.8 0-1.6.6-1.8 1.4-.2 1.1.6 2 1.7 2h6.5l-1.8 14c-.2 1.5-1.4 2.5-2.9 2.5h-30.9c-1.5 0-2.7-1.1-2.9-2.5l-1.8-14h26.5c.8 0 1.6-.6 1.8-1.4.2-1.1-.6-2-1.7-2h-27.1l-7.2-76.1c0-.4-.2-.7-.4-.9l-1.2-1.2h7.4c.7 0 1.5-.4 1.7-1.1.4-1.2-.5-2.2-1.6-2.2h-9.7v-7.1h66.5v7s0 .1-.1.1h-49.5c-.7 0-1.5.4-1.7 1.1-.4 1.2.5 2.2 1.6 2.2h47.4l-1.1 1.2c-.3.3-.4.6-.5 1l-5.8 40.7c1.3 1.9 3.3 1.1 3.5-.4l5.6-39.3 3.5-3.6c.3-.3.5-.8.5-1.2v-10.3c.2-2.1-1.8-3.1-3.3-2.2zm-25.4 133.1h-19c-1.5 0-2.8-1.2-2.9-2.7l-.4-4.4h5.2c0 1.9 1.6 3.4 3.4 3.4h8.4c1.9 0 3.4-1.5 3.4-3.4h5.2l-.4 4.4c-.1 1.5-1.4 2.7-2.9 2.7zm-5.3-7.2s0 .1 0 0l-8.5.1s-.1 0-.1-.1v-3.3s0-.1.1-.1h8.4s.1 0 .1.1v3.3zm9.5-10.5l-.6 7.1h-5.5c0-1.9-1.6-3.4-3.4-3.4h-8.4c-1.9 0-3.4 1.5-3.4 3.4h-5.5l-.6-7.1h27.4z"/><path class="st0" d="M454.4 415.9c1-7.8-5.6-14.3-13.3-13.3-5.3.7-9.6 4.9-10.2 10.2-1 7.8 5.6 14.3 13.3 13.3 5.2-.6 9.5-4.9 10.2-10.2zm-11.8 6.9c-4.7 0-8.5-3.8-8.5-8.5s3.8-8.5 8.5-8.5 8.5 3.8 8.5 8.5-3.8 8.5-8.5 8.5zm1.8-25.1v-1.5c0-.7-.4-1.5-1.1-1.7-1.2-.4-2.2.5-2.2 1.6v1.5c0 .7.4 1.5 1.1 1.7 1.1.3 2.2-.5 2.2-1.6zm12.3 2.6c-.7-.7-1.7-.7-2.4 0l-1 1c-.6.6-.7 1.4-.3 2.1.3.6.9.9 1.5.9.4 0 .9-.2 1.2-.5l1.1-1.1c.6-.7.6-1.7-.1-2.4zm2.5 12.4c-.9 0-1.7.8-1.7 1.7s.8 1.7 1.7 1.7h1.6c.9 0 1.7-.8 1.7-1.7s-.8-1.7-1.7-1.7h-1.6zm-5 15.8c.3.3.8.5 1.2.5.4 0 .9-.2 1.2-.5.7-.7.7-1.7 0-2.4l-1.1-1.1c-.7-.7-1.7-.7-2.4 0s-.7 1.7 0 2.4l1.1 1.1zm-13.4 2.5v1.6c0 .9.8 1.7 1.7 1.7s1.7-.8 1.7-1.7V431c0-.9-.8-1.7-1.7-1.7s-1.7.8-1.7 1.7zm-12.4-2.7c.3.3.8.5 1.2.5.4 0 .9-.2 1.2-.5l1.1-1.1c.7-.7.7-1.7 0-2.4s-1.7-.7-2.4 0l-1.1 1.1c-.6.7-.6 1.8 0 2.4zm-4-15.8c-.9 0-1.7.8-1.7 1.7s.8 1.7 1.7 1.7h1.6c.9 0 1.7-.8 1.7-1.7s-.8-1.7-1.7-1.7h-1.6zm5.3-8.8c.3.3.8.5 1.2.5.6 0 1.1-.3 1.5-.9.4-.7.2-1.6-.3-2.1l-1-1c-.5-.5-1.3-.7-2-.4-1.1.6-1.2 1.9-.5 2.7l1.1 1.2z"/><path d="M105.6 292.6c-11.2 0-20.3 12.1-20.3 27s9.1 27 20.3 27 20.3-12.1 20.3-27-9.1-27-20.3-27zm0 51.7c-9.9 0-18-11.1-18-24.7s8.1-24.7 18-24.7 18 11.1 18 24.7-8.1 24.7-18 24.7zm63.4 14.5c-2.5-.7-4.8-.2-7.1.5-.4.1-1.8.5-1.4 2.2.6 2.6 1.4 5.1 4.2 6.4-1 1.1-1.6 2.5-1.8 4.2-.1.7.6 1.6 1.3 1.8 2 .8 4.6 1.4 7-.1 1.2 1.4 2 2.3 2.8 2.6h.4c.9-.3 1.7-1.1 2.8-2.6 2.4 1.5 5 .9 7 .1.6-.2 1.3-1.1 1.3-1.9-.2-1.7-.8-3.1-1.8-4.2 2.8-1.3 3.6-3.7 4.2-6.4.4-1.7-.9-2.1-1.4-2.2-2.3-.7-4.6-1.3-7.1-.5-.5-2.5-2.3-4.1-4-5.4-.4-.3-.7-.4-1-.5h-.4c-.3.1-.6.3-1 .5-1.7 1.4-3.5 3-4 5.5zm-7.3 2.5c-.1-.4-.1-.5.5-.7 2.1-.6 4.2-1.1 6.4-.5l3.5 3.1c.4.3 1 .9 1.1 1.3l-.2.1c-2.1 1.1-4.6 1.9-7.2 2.2h-.1c-2.7-.9-3.4-2.9-4-5.5zm12 4.5s.4-.3.5-.5c.2-.2.2-.4.2-.7 0 .2.1.5.2.6.2.2.4.4.6.5l.1.1c.6.7 1.9 2.4 1.2 4.2-.7-.4-1.7-1.5-1.8-1.6h-.4s-1.1 1.1-1.8 1.6c-.7-1.8.6-3.5 1.2-4.2zm10.4 6.4c0 .1-.3.5-.5.6-2.8 1-4.6 1-6.3-.3-.3-.2-.7-.2-.9.1-1 1.3-1.8 2.2-2.4 2.5-.6-.3-1.4-1.3-2.4-2.5-.1-.2-.3-.2-.5-.2-.1 0-.3 0-.4.1-1.6 1.2-3.5 1.3-6.3.3-.2-.1-.4-.4-.5-.5.2-1.8 2.2-4.1 2.2-4.2 1.9-.3 3.7-.8 5.3-1.5-.8 1.6-.8 3.3.1 4.7.1.2.3.3.5.3.1 0 .2 0 .3-.1.8-.5 1.4-1 1.9-1.5.5.5 1.1 1.1 1.9 1.5.1.1.2.1.3.1.2 0 .4-.1.5-.3.9-1.4.9-3 .1-4.5 1.4.6 2.9 1 4.5 1.3.5 0 2.5 2.3 2.6 4.1zm-4.3-12.2c2.1-.6 4.1-.1 6.2.5.6.2.6.3.5.7-.6 2.6-1.3 4.7-4 5.7-.1 0-4.9-1.2-6.8-2.3l-.2-.1c0-.4.6-1 .9-1.4.2 0 3.4-3.1 3.4-3.1zm-5.7-5.9c.1.1.2.1.4.3 2 1.6 3.4 3.1 3.6 5.3 0 .1-2.4 2.5-2.4 2.5-.6.5-1.3 1.3-1.3 2.2-.1-1-.9-1.7-1.4-2.2l-2.9-2.5c.2-2.2 1.6-3.7 3.6-5.3.2-.1.3-.2.4-.3z"/><path d="M111.3 313.5c-.5-2.5-2.3-4.1-4-5.4-.4-.3-.7-.4-1-.5h-.4c-.3.1-.7.3-1 .5-1.7 1.3-3.5 2.9-4 5.4-2.5-.7-4.8-.2-7.1.5-.4.1-1.8.5-1.4 2.2.6 2.6 1.4 5.1 4.2 6.4-1 1.1-1.6 2.5-1.8 4.2-.1.7.6 1.6 1.3 1.9 2 .8 4.6 1.4 7-.1 1.2 1.4 2 2.3 2.9 2.6h.4c.9-.3 1.7-1.1 2.9-2.6 2.4 1.5 5 .9 7 .1.6-.2 1.4-1.1 1.3-1.9-.2-1.7-.8-3.1-1.8-4.2 2.8-1.3 3.6-3.8 4.2-6.4.4-1.7-1-2.1-1.4-2.2-2.5-.6-4.8-1.2-7.3-.5zm-9.3.9c.2-2.2 1.6-3.7 3.7-5.3.1-.1.3-.2.4-.3.1.1.2.1.4.3 2.1 1.6 3.5 3.1 3.7 5.3 0 .1-2.4 2.6-2.4 2.6-.6.5-1.3 1.3-1.3 2.2-.1-1-.9-1.7-1.5-2.2l-3-2.6c0 .1 0 .1 0 0zm6.4 10.5c-.7-.4-1.8-1.5-1.8-1.6h-.4s-1.1 1.1-1.8 1.6c-.7-1.8.6-3.6 1.2-4.3 0 0 .4-.3.5-.5.2-.2.2-.4.2-.7 0 .2.1.5.2.6.2.2.4.4.6.5l.1.1c.7.7 2 2.4 1.2 4.3zM93.5 316c-.1-.4-.1-.5.5-.7 2.1-.7 4.2-1.1 6.4-.5l3.5 3.2c.4.3 1.1.9 1.1 1.3l-.2.1c-2.1 1.2-4.6 1.9-7.3 2.3h-.1c-2.5-.9-3.3-3-3.9-5.7zm22.6 11.1c0 .1-.3.5-.5.6-2.8 1-4.7 1-6.3-.3-.3-.2-.7-.2-.9.1-1.1 1.3-1.8 2.2-2.4 2.5-.6-.3-1.4-1.3-2.4-2.5-.1-.2-.3-.2-.5-.2-.1 0-.3 0-.4.1-1.6 1.3-3.5 1.3-6.3.3-.2-.1-.4-.4-.5-.5.2-1.8 2.2-4.2 2.2-4.2 1.9-.3 3.7-.8 5.4-1.5-.8 1.6-.8 3.3.1 4.7.1.2.3.3.5.3.1 0 .2 0 .3-.1.8-.5 1.4-1 1.9-1.5.5.5 1.1 1.1 1.9 1.5.1.1.2.1.3.1.2 0 .4-.1.5-.3.9-1.4.9-3 .1-4.6 1.4.6 2.9 1.1 4.5 1.3.3 0 2.3 2.4 2.5 4.2zm1.9-11.8c.7.2.6.3.5.7-.6 2.6-1.3 4.7-4 5.7-.1 0-4.9-1.2-6.8-2.4l-.2-.1c0-.4.6-1 .9-1.4 0 0 3.2-3.1 3.2-3.2 2.3-.4 4.4.1 6.4.7z"/><path class="st1" d="M383.5 440.3c7.2-6.3 11.5-15.5 11.5-25.1 0-.3-.1-.6-.2-.8 0-.1-.1-.1-.1-.2-.1-.1-.2-.3-.3-.4-3.3-3.6-19.1-4.4-32.6-4.4s-29.4.8-32.6 4.4c-.1.1-.2.2-.3.4 0 .1-.1.1-.1.2-.1.3-.2.5-.2.8 0 9.6 4.2 18.8 11.5 25.1-12 8.9-19.3 24.5-19.3 41.5 0 7 1.3 13.8 3.7 20.3.3.8 1 1.3 1.8 1.3h71.1c.8 0 1.5-.5 1.8-1.3 2.5-6.5 3.7-13.3 3.7-20.3-.1-16.9-7.4-32.6-19.4-41.5zm-21.8-27c12.9 0 22.4 1 27 1.9-.1 0-.2.1-.4.1s-.5.1-.7.1c-.5.1-1.1.2-1.7.3-.3 0-.6.1-1 .1l-2.4.3c-.3 0-.5.1-.7.1-1.1.1-2.4.2-3.7.3-.4 0-.8.1-1.2.1-1 .1-2 .1-3.1.2-.5 0-1.1.1-1.6.1-1.1 0-2.2.1-3.4.1h-1.6c-1.7 0-3.5.1-5.4.1s-3.7 0-5.4-.1h-1.6c-1.2 0-2.3-.1-3.4-.1-.5 0-1.1-.1-1.6-.1-1.1-.1-2.1-.1-3.1-.2-.4 0-.9-.1-1.3-.1-1.3-.1-2.5-.2-3.7-.3-.3 0-.5-.1-.7-.1-.9-.1-1.7-.2-2.4-.3-.3 0-.6-.1-1-.1-.6-.1-1.2-.2-1.7-.3-.3 0-.5-.1-.7-.1-.1 0-.2-.1-.4-.1 4.4-1 14-1.9 26.9-1.9zm34.2 86.1h-68.4c-2-5.6-3-11.5-3-17.6 0-16.6 7.5-31.9 19.7-39.7.5-.4.9-.9.9-1.6 0-.6-.3-1.2-.8-1.6-6.7-4.9-10.9-12.2-11.8-20.3.1 0 .2 0 .2.1.7.2 1.4.4 2.3.6.1 0 .3.1.4.1.7.2 1.5.3 2.3.4.3 0 .6.1.9.1.8.1 1.7.2 2.6.3.2 0 .3 0 .5.1l3.3.3c.3 0 .7.1 1 .1.9.1 1.8.1 2.7.2.3 0 .6 0 .9.1 1.2.1 2.4.1 3.6.1h.8c1 0 2 0 2.9.1h9.2c1 0 2 0 2.9-.1h.8c1.2 0 2.4-.1 3.6-.1.3 0 .6 0 1-.1.9 0 1.8-.1 2.6-.2.4 0 .7 0 1.1-.1 1.1-.1 2.2-.2 3.2-.3.2 0 .4-.1.7-.1l2.4-.3c.3-.1.7-.1 1-.2.7-.1 1.4-.2 2.1-.4.2 0 .4-.1.6-.1.8-.2 1.5-.4 2.2-.6.1 0 .2-.1.3-.1-.9 8.1-5.1 15.3-11.8 20.3-.5.4-.8 1-.8 1.6 0 .6.4 1.2.9 1.6 12.1 7.9 19.7 23.1 19.7 39.7.3 6.2-.7 12.1-2.7 17.7z"/><path class="st1" d="M361.7 456.3c-14 0-25.4 11.4-25.4 25.4 0 4.4 1.2 8.8 3.4 12.7.4.6 1 1 1.7 1H382c.7 0 1.3-.4 1.7-1 2.2-3.9 3.4-8.3 3.4-12.7 0-13.9-11.4-25.4-25.4-25.4zm9.8 35.3h-19.6v-3.9h19.6v3.9zm-11.8-13.7c0-.7.9-3.4 2-6.3 1.1 3 1.9 5.6 2 6.3 0 1.1-.9 2-2 2-1.1-.1-2-.9-2-2zm21.1 13.7h-5.5v-5.9c0-1.1-.9-2-2-2h-9.8v-.4c2.3-.8 3.9-3 3.9-5.5 0-2.4-3.1-10.2-4.1-12.5-.6-1.5-3-1.5-3.6 0-1 2.3-4.1 10.1-4.1 12.5 0 2.5 1.6 4.7 3.9 5.5v.4h-9.8c-1.1 0-2 .9-2 2v5.9h-5.5c-1.6-3-2.4-6.4-2.4-9.8 0-11.9 9.7-21.5 21.5-21.5 11.9 0 21.5 9.7 21.5 21.5.4 3.4-.4 6.7-2 9.8z"/><path class="st2" d="M131.4 435.5h-27.8l15.7-25.1c6.1-.6 10.5-5.7 9.8-11.3-.7-5.6-6.2-9.7-12.2-9.1-6.1.6-10.5 5.7-9.8 11.3 0 .2.1.4.1.6l-34.7 33.6H48c-1 0-1.8.8-1.8 1.7v18c0 12.1 6.2 23.4 16.7 30.6 1.7 1.2 3.6 2.3 5.5 3.2l-8.4 6.1c-2.6 1.9-3 5.3-1 7.7 1.1 1.3 2.8 2.1 4.6 2.1h52.3c3.3 0 5.9-2.5 5.9-5.5 0-1.7-.8-3.3-2.3-4.3L111 489c1.9-.9 3.8-2 5.5-3.2 10.5-7.2 16.7-18.6 16.7-30.6v-18c0-1-.8-1.7-1.8-1.7zM112.1 396c1.2-1.5 2.9-2.4 4.9-2.7.4 0 .7-.1 1.1-.1 4.1 0 7.4 3.1 7.4 6.9 0 3.8-3.3 6.9-7.4 6.9-4.1 0-7.4-3.1-7.4-6.9-.1-1.4.4-2.9 1.4-4.1zm-3.6 9.4c1.5 2.3 3.9 4 6.7 4.6l-15.9 25.4H77.5l31-30zm-35.3 33.5h56.4v1.8H49.8v-1.8h23.4zm44 58.9c1 .7 1.1 2 .4 2.9-.4.5-1.1.8-1.8.8H63.6c-1.2 0-2.2-.9-2.2-2.1 0-.6.3-1.2.9-1.6l10-7.2c4.8 1.8 10 2.7 15.2 2.7h4.8c5.2 0 10.3-.9 15.2-2.7l9.7 7.2zm-2.8-14.7c-6.5 4.4-14.3 6.8-22.3 6.8h-4.8c-20.7 0-37.5-15.5-37.5-34.7V444h79.7v11.1c.1 11.1-5.6 21.4-15.1 28z"/><path class="st2" d="M124.1 463c-1-.3-2 .2-2.3 1.1-1 2.9-2.5 5.5-4.4 8-.6.8-.4 1.8.4 2.4s2 .4 2.6-.4c2.1-2.7 3.8-5.7 4.9-8.9.3-1-.3-1.9-1.2-2.2z"/><defs><path id="SVGID_1_" d="M59.5 255.3c-2.9 3.4 15.5-14.5 12.5-11.1-4.6 5-6.9 11.6-8.6 18.1-6.6 25.7-3.4 52.7-1.6 79.1 1.5 21.7 3.6 49.7 3.3 71.5 0 0-3 31.1 6.5 22.9 6.5-5.6 11.7-12.3 17.6-18.4 6.9-6.9 12.1-14.3 17.1-22.6.7-1.1 1.8-2.4 3.1-2.1 1.2.3 1.5 1.9 2.4 2.9 1.2 1.3 3.5 1.2 4.9.1 1.2-.9 2.1-2.3 2.4-3.6-.8 3.3 10.3.4 7.9 2.7-3.2 3 1.2 2.7-.3 6.8-.2.5.4 2.1.5 2.6.3 1.4-3.6 5.8-2.1 5.8 4.9.2-3.9 2.1.2 5.1.9.7 1.5 1.8 1.9 2.9 3.8 11.1 8.2 23.6 6.9 34.8-.1.5-.1 1.1.1 1.5.2.4.7.7 1.1.9 1.6.7 1.9-1.5 2.7-3 2.7-4.7.4-20.6 6.7-30.2 1.6-2.4 1.4-5.7 3.4-7.9 3.9-4.2 10.1-4.3 14.7-7.4 6.5-4.4 5.6-11.2 8.2-17.7 2.2-5.5 6.6-8.7 12.5-9.9 7.5-1.5 13 .8 20.6.9s18.2 2.8 22.3-3.5c4.5-6.9 3.1-23.6 3.5-31.8.2-4 1.1-7.8 1.4-11.8.5-6.8-.9-13.7-2.2-20.4-3.3-16.2-6.5-32.4-9.8-48.6-.9-4.6-1.9-9.2-4.6-13.1-2.5-3.6-6.2-6.1-9.8-8.5-9.5-6.4-19.8-13-31.3-12.6-9.9.3-19 5.9-28.8 6.4-2.4-10.1-4.7-20.2-7.1-30.3-.5-2-1-4.1-2.3-5.8-1.1-1.4-2.8-2.3-4.5-3.1-11.7-5.5-25.3-6.3-38.2-4.5s-25.3 6-37.6 10.2c-3.9 1.3-8.5 3.4-9.1 7.4-.3 1.9.5 3.9 1.6 5.5 4.4 7-3.1 29.4 5 27.2 9.8-2.3 18-.4 6.9 12.6z"/></defs><clipPath id="SVGID_2_"><use xlink:href="#SVGID_1_" overflow="visible"/></clipPath><path d="M190 305.9v-32.8l-.2.2c-1.7-7-25.4-7.2-28.7-.8l-.4.4v7.2c-.4-.5-.9-1-1.4-1.6l-.7-.7c-1.2-1.4-2.6-2-3.8-1.7-.8.2-1.4.7-1.5 1.4-.1.4 0 .8.1 1 .3.9 1.4 1.8 2.6 2.4-1.6 0-3.1.2-3.3 1.3-.3 1.3.2 2.1.6 2.6.7.7 1.6.8 2.3.8.2 0 .4 0 .6-.1 1.2-.3 3.2-1.5 4.6-2.5v1c-3.7 3.2-6.5 7.2-7.9 11.2-2 5.9-2.2 10.6-1.2 14.5-2.6 1.5-5.1 3.3-7.2 5.2v-17c0-8.9-7.5-27.9-25.1-34.7V243s0 0 0 0c-.2-2.3-3.5-3.8-7.7-4.4-.2-3.2-.2-6.7 1.4-8.4.7-.7 1.7-1.1 3-1.1h.1c1.5 0 5.4-.4 7-.6 2.8-.3 4.5-2 4.5-4.5 0-2.6-1.7-4.3-4.5-4.6-.7-.1-1.4-.1-2.1-.1h-10.7c-8.1 0-16.4.1-24.6-.1-4.8-.1-9.1.8-13.1 2.7-1.8.8-3.7 1.6-5.5 2.3-1.7.7-3.5 1.4-5.2 2.2-2.5 1.2-3.5 3.5-2.4 5.9 1 2.3 3.3 3.2 6 2.4 1.8-.6 3.2-1.2 4.5-1.7 11.8-6 24.5-4.4 25.1-4.4 3.1.1 4.8.2 5.2 1.6.4 1.3.5 5.3.5 8.3-3.3.5-6.1 1.5-7.3 3l-.7.7v20.5C73.5 269.4 66.8 290 66.8 298v160c-1.4 10.7 54.6 9.4 63.4 6.9 10.7-3.1 8.7-8.5 9.1-20.3 7.8 3.5 22.8 5.4 36.2 5.4 20.5 0 41.3-4.2 41.3-12.3V337.1c-.2-14.2-11.3-26.4-26.8-31.2zm-34.2-21.8c-.2 0-1.1 0-1.5-.4-.1-.1-.4-.4-.2-1.1.2-.2.8-.2 1.5-.2.9 0 1.9.1 2.5.1.3 0 .6 0 .9.1-1.2.7-2.5 1.4-3.2 1.5zm-1.1-6.2c-.1-.2-.1-.2-.1-.3 0-.1.2-.2.4-.2h.3c.9 0 1.8.9 2.1 1.3.2.2.4.5.7.8.4.4.9.9 1.3 1.4-1.9-.8-4.4-2.1-4.7-3zm20.7-7.3c7.3 0 11.8 2.3 11.8 3.5s-4.5 3.5-11.8 3.5c-7.3 0-11.8-2.3-11.8-3.5s4.4-3.5 11.8-3.5zm-11.8 7.4c2.8 1.6 7.3 2.4 11.8 2.4 4.5 0 9-.8 11.8-2.4v3.3c-1.6 1.6-6 3-11.8 3-5.8 0-10.2-1.4-11.8-2.9V278zm0 5.1c2.6 1.7 7.3 2.6 11.8 2.6 4.5 0 9.2-.9 11.8-2.6V307c-.2.7-4.2 2.7-11.8 2.7-7.6 0-11.6-1.9-11.8-2.7v-23.9zm-9.4 12.7c1.2-3.4 3.5-6.8 6.5-9.7v19.8c-2.7.8-5.3 1.9-7.8 3.2-.7-3.6-.5-8 1.3-13.3zm-42.6-66.9c-2.4 2.5-2.1 7.2-1.9 10.9 0 .6.1 1.3.1 1.8-.4.3-1.6.7-3.6.7-1.9 0-3.2-.4-3.5-.7.2-2 .3-9.7-.5-11.9-.1-.3-.2-.6-.4-.9l9.8.1c0-.1 0-.1 0 0zm-10.9-1.2h0c-1.2-.7-3.1-.8-5.5-.9-3.8-.2-15.6-.6-26.1 4.6-1.1.6-2.4 1.1-4.1 1.6-1.2.4-2.9.4-3.7-1.3-.6-1.4-.1-2.7 1.5-3.4 1.7-.8 3.4-1.4 5.1-2.1 1.8-.7 3.8-1.5 5.6-2.4 3.8-1.8 7.8-2.6 12.3-2.5 8.2.2 16.6.1 24.7.1H123c1.3.1 2.8.7 2.8 2.6 0 1.6-.9 2.4-2.9 2.7-1.3.1-5.3.6-6.7.6h-.1c-1 0-1.8.2-2.6.5-.1-.1-12.8-.1-12.8-.1zm.1 13.2c0 .4 0 .7-.1.9 0 1.8 3 2.4 5.5 2.4s5.5-.6 5.5-2.4l-.1-.2h.1v-.7c3.5.6 5.3 1.7 5.3 2.3 0 .9-3.7 2.9-10.9 2.9s-10.9-2-10.9-2.9c0-.5 2-1.7 5.6-2.3zm-5.1 14.8c2.3 1.4 6 2.3 10.4 2.3s8.1-.9 10.4-2.3v14.2c-.4.7-4.3 2.1-10.4 2.1-6.1 0-10-1.3-10.4-1.9v-14.4zm0-1.4v-7.8c2.5 1.2 6.5 1.9 10.4 1.9 3.9 0 7.8-.6 10.4-1.9v7.7c-1.7 1.4-5.5 2.6-10.4 2.6-4.9.1-8.6-1.1-10.4-2.5zm9.9 207.5c-19.6 0-32.8-2.4-34.9-4.1V298c0-7.9 6.6-24.6 22.1-30.8v2.8c0 4.6 11.9 4.7 13.2 4.7 1.4 0 13.2-.1 13.2-4.7v-2.5c15.7 6.9 21.1 24.6 21.1 30.4v21.3c-4 5.2-6.4 11.3-6.4 17.8v100.6c0 1.6.9 3.1 2.4 4.4-4.5 16.2 7.1 19.8-30.7 19.8zm107.1-24h0c0 2.8-13.2 8.3-37.3 8.3s-37.3-5.5-37.3-8.3V337.1c0-9.6 5.9-18.2 15-23.6 4.1 8 13.5 11.5 19.6 13.7 1.4.5 2.7 1 3.7 1.4 2.6 1.2 5.5 3.4 5.2 7.2-.1.9-.4 2-.9 3-2-.8-4.1-1.3-6.2-1.3h-.3c-13.5 0-24.8 16-25.2 35.9-.2 12 3.6 23.3 10.2 30.2 4 4.2 8.8 6.4 13.9 6.5h.3c13.5 0 24.8-16 25.2-35.9.2-12-3.6-23.3-10.2-30.2-1.9-2-4.1-3.6-6.3-4.6.5-1.2.9-2.4 1-3.5.3-3.6-1.8-6.7-6-8.6-1-.5-2.3-.9-3.8-1.5-6.2-2.3-15.1-5.6-18.8-13.1 2.4-1.3 5.1-2.4 7.9-3.3 2.5 2 8 2.9 13.2 2.9 5.2 0 10.7-.9 13.2-3 14.1 4.2 24.1 15 24.1 27.6l-.2 100.9h0zM175 347.6c.1.1.3.2.5.2s.4-.1.5-.2c.8-.8 1.4-1.5 2-2.3.2.4.4.7.4 1.2 0 .6-.3 1.1-.7 1.5-.9.8-2.3.8-3.2-.1-.4-.4-.6-1-.6-1.6 0-.6.3-1.1.7-1.5.4-.4 1-.6 1.6-.6.3 0 .5.1.7.1-.6.7-1.2 1.5-2 2.2-.2.4-.2.8.1 1.1zm2.7-4.1c-1.2-.6-2.8-.5-3.8.5-.6.6-1 1.5-1 2.3 0 .9.3 1.7.9 2.4.7.7 1.5 1 2.4 1 .8 0 1.7-.3 2.3-.9.6-.6 1-1.5 1-2.3 0-.8-.3-1.4-.7-2 .8-1 1.5-2 2-2.9 2 1 3.9 2.4 5.7 4.2 6.2 6.4 9.8 17.1 9.6 28.5-.3 18.6-10.6 33.6-22.9 33.6h-.2c-4.4-.1-8.7-2.1-12.3-5.8-6.2-6.4-9.8-17.1-9.6-28.5.3-18.6 10.6-33.6 22.9-33.6h.2c1.8 0 3.5.5 5.2 1.1-.4.7-1 1.5-1.7 2.4z" clip-path="url(#SVGID_2_)" stroke="#000" stroke-width="2" stroke-miterlimit="10"/><path d="M382.9 343c-1.6 0-2.9 1.3-2.9 2.9v41c0 1.6 1.3 2.9 2.9 2.9h17.6c1.6 0 2.9-1.3 2.9-2.9v-41c0-1.6-1.3-2.9-2.9-2.9h-17.6zm14.6 41h-11.7v-35.2h11.7V384z"/><defs><path id="SVGID_3_" d="M383.5 412.4c1.8.1 3.6.2 5 1.3 1.2.9 1.8 2.3 2.4 3.7 5.8 14.3 6.5 30.1 8.3 45.5s5 31.3 14.7 43.3c3 1.9 7.1-.8 8.2-4.2 1.1-3.4.2-7-.3-10.5-3.1-22.2 1.4-24.4-4.7-45.7-.3-.9-.9-5.2 0-5.4l-1.1-1.9 1.1-2.8c-3.8 2.2-1-4.4-3.1-9.2-.3-.7 1.9-3.9 1.8-4.6l-8.6-41.7c-1.3-13.9 3.3-7.8 8.9-11.5 4.1-2.8 10.7-5 12.8-9.5.8-1.6.7-3.5.6-5.2-1-22.5-3-45.1-5.9-67.4-.7-5.7-1.7-11.8-5.7-16-6.3-6.7-16.9-5.6-26-6.2-5.4-.3-11.1-1.4-16.3.2-7.5 2.3-12.5 9.8-14.3 17.4-1.8 7.7-.9 15.7-.5 23.5.8 15.1.2 30.2-1.9 45.2-1.4 9.7-3.3 19.5-2.1 29.2.5 3.8 1.5 7.6 2.4 11.3 1.4 2.9 1.8 7 2.6 10.1.6 2.3 1 8 2.8 9.7 3.1 2.8 14.8 1.2 18.9 1.4z"/></defs><clipPath id="SVGID_4_"><use xlink:href="#SVGID_3_" overflow="visible"/></clipPath><path d="M412.2 296.1c1.4 0 2.6-1 2.9-2.4l2.9-14.6c.3-1.6-.7-3.1-2.3-3.4-1.6-.3-3.1.7-3.4 2.3l-2.5 12.3h-6.6l3.1-17.1c.3-1.6-.8-3.1-2.4-3.4-1.6-.3-3.1.8-3.4 2.4l-5.4 29.8h-3.9l-5.4-29.8c-.3-1.6-1.8-2.6-3.4-2.4-1.6.3-2.6 1.8-2.4 3.4l5.2 28.8H377c-1.6 0-2.9 1.3-2.9 2.9v5.9c0 3.7 2.4 7 5.9 8.3v6.7c-6.8 1.4-13.7 7.4-13.7 14.4v162.4c0 1.6 1.3 2.9 2.9 2.9h45c1.6 0 2.9-1.3 2.9-2.9V340.1c0-7-6.9-13-13.7-14.4V319c3.5-1.2 5.9-4.6 5.9-8.3v-5.9c0-1.6-1.3-2.9-2.9-2.9H401l1.1-5.9h10.1zm-26.4 29.3v-5.9h11.7v5.9h-11.7zm25.5 14.7v162.4l-39.2-2.9V340.1c0-4.9 5.9-8.8 10.8-8.8h17.6c4.8 0 10.7 3.9 10.8 8.8zm-7.9-29.3c0 1.6-1.3 2.9-2.9 2.9h-17.6c-1.6 0-2.9-1.3-2.9-2.9v-2.9h23.4v2.9z" clip-path="url(#SVGID_4_)"/><path d="M447.6 183.5c1.9-.7-17.7-42.3-19.6-45.6-7.7-14.1-17.7-27.3-29.4-38.9-3.1-3.1-8.4-3.3-11.8-.5-3.4 2.8-3.6 7.5-.5 10.6 13.6 13.4 24.5 29.1 32 45.9 0 0 7.6 16.2 12 28.5h17.3zm-385 0C81.8 84.6 180.1 23.1 262.5 28.8c94.3 0 174.9 58.4 196.5 139l3.7 15.7h16.5c-14.9-97-107.3-169.7-216.8-169.7S60.7 86.4 45.7 183.5h16.9zm28.6 18.2c.2-.4.4-.8.6-1.3 7.1-18.7 10.9-38.4 20.4-56.2 5.1-9.5 11-18.7 18.1-26.9 9-10.5 19.9-19.2 31.3-27 29.3-20 64.2-30.5 101-30.5 34.7 0 68 9.5 96.3 27.4 3.8 2.4 9 1.6 11.6-1.8 2.6-3.4 1.7-8.1-2-10.5-31.1-19.7-67.8-30.2-105.9-30.2-40.4 0-78.8 11.6-111 33.6-29.6 20.2-52.1 48.4-63.8 79.8-1.9 4.7-3.7 9.6-5.4 14.4-1.6 4.7-3.1 9.4-4.4 14.2-1.2 4.3-3.9 9.6-2.3 14 2.3 7 12.3 7.3 15.5 1z"/><path d="M463 185.2c7.9 51.1 12.5 102.3 13.1 154 .4 38.1-1 76.2-1.1 114.4-.1 17.7-.2 35.5-.2 53.2 0 10.6 16.4 10.6 16.5 0 0-31.5-.2-63.1.7-94.7 1.3-47.7 1.6-95.7-2.2-143.4-2.4-29.5-6.3-58.8-10.8-88-.7-4.4-6.2-6.8-10.1-5.7-4.8 1.4-6.6 5.8-5.9 10.2zM50.1 508.6c0-17.3.1-34.6 0-51.9 0-22.9-1.4-45.8-1.5-68.7-.2-34.4-.6-68.9 1.4-103.2 1.6-26.3 4.2-52.5 7.5-78.7 1.3-10.5 3.2-19.1 6.5-29.5 5-16.2 10.8-32.1 18.1-47.4 4.6-9.4-9.5-17.7-14.1-8.2-6.9 14.3-12.6 29.3-17.6 44.4-2.6 7.8-5.4 15.8-7.1 23.9-1.6 7.6-2 15.7-3 23.5-.8 7-1.7 13.9-2.4 20.9-1.4 12.4-2.5 24.8-3.3 37.2-2.3 32.9-2.3 65.8-2.4 98.8-.1 26.3 1.4 52.6 1.5 78.9.1 20 0 40 0 60 .1 10.6 16.4 10.6 16.4 0zm376-337c11.5 28.1 13.1 59.6 14.7 89.6 1.6 29.2 3.1 58.4 3.2 87.7.1 10.6 16.5 10.6 16.5 0-.1-29.8-1.7-59.5-3.3-89.2-1.7-30.8-3.3-63.6-15.2-92.4-1.7-4.1-5.5-7-10.1-5.7-3.9 1-7.5 5.9-5.8 10z"/></svg>