<svg xmlns="http://www.w3.org/2000/svg" viewBox="0 0 60.4 72.5"><path d="M25.5 49.9l5-8.6c.1-.1 0-.2.1-.2.1-.1 0-.2.1-.2l.1-.1c0-.2 0-.2-.1-.2l-.1-.1c-.1-.1-.1-.2-.2-.3L17.9 27.3v-8.8l8.4.1c1.6 0 3.1-.6 4.2-1.7 1.2-1.2 1.7-2.6 1.8-4.2 0-1.6-.6-3.1-1.7-4.2-1.2-1.2-2.6-1.7-4.2-1.8-1.6 0-3.1.6-4.2 1.7-1.2 1.2-1.7 2.6-1.8 4.2 0 .6.5 1.1 1.1 1.1s1.1-.5 1.1-1.1c0-.9.4-1.9 1.1-2.6.8-.6 1.8-1 2.8-1 2 0 3.7 1.8 3.8 3.9 0 2-1.8 3.7-3.9 3.8l-8.4-.3V5.6c0-.6-.5-1.1-1.1-1.1-.6 0-1.1.5-1.1 1.1l-.1 10.8-8.5-.1c-2 0-3.7-1.8-3.8-3.9 0-2 1.8-3.7 3.9-3.8 2 0 3.8 1.8 3.8 3.9 0 .6.5 1.1 1.1 1.1.6 0 1.1-.5 1.1-1.1 0-1.6-.6-3.1-1.7-4.2C10.5 7.1 9 6.5 7.5 6.5s-3.1.6-4.2 1.7c-1.2 1.2-1.7 2.6-1.8 4.2 0 1.6.6 3.1 1.7 4.2 1.2 1.2 2.6 1.7 4.2 1.8l8.5.1-.1 8.5L2.9 39.6c-.1.1-.2.2-.2.3v.1c-.1.1-.1.2-.1.2l.1.1c0 .2 0 .2.1.2 0 0 .1.1 0 .2l.1.1 4.8 8.8.2.2c.2.2.5.3.8.3l15.8.2c.4.1.8 0 1-.4zm1.3-10.3h-4.4l-2.8-7.4 7.2 7.4zm-6.8-.1l-6.5-.1 3.4-8.4 3.1 8.5zm-5.8-7.8l-3 7.7-4.8-.1 7.8-7.6zm-5 16.6l-3.6-6.6 5.7.1 3.6 6.6-5.7-.1zm4.5-6.6h6L16.6 47l-2.9-5.3zm4.7 6.6l3.7-6.6 5.4.1-3.7 6.6-5.4-.1z"/><path d="M59.4 58.5c0-3.4-2.6-6.1-5.8-6.1l-8.6-.1.1-8.5L58 31.1c.1-.1.2-.2.2-.3l.1-.1c.1-.1.1-.2.1-.2l-.1-.1c0-.2 0-.2-.1-.2 0 0-.1-.1 0-.2l-.1-.1-4.8-8.8c-.2-.3-.5-.6-1-.6l-15.8-.4c-.5 0-.8.1-1 .5l-5 8.7-.1.1s-.1.1 0 .2c-.1.1 0 .2-.1.2l-.1.1c0 .2 0 .2.1.2l.1.1c.1.1.1.2.2.3L43 43.4v8.8l-8.4-.1c-1.6 0-3.1.6-4.2 1.7-1.2 1.2-1.7 2.6-1.8 4.2 0 1.6.6 3.1 1.7 4.2 1.2 1.2 2.6 1.7 4.2 1.8 3.3 0 6-2.6 6.1-5.9 0-.6-.5-1.1-1.1-1.1-.6 0-1.1.5-1.1 1.1 0 .9-.4 1.9-1.1 2.6-.7.7-1.7 1.1-2.7 1.1-2 0-3.7-1.8-3.8-3.9 0-2 1.8-3.7 3.9-3.8l8.3.3-.1 10.8c0 .3.1.5.3.8.2.2.5.3.8.3.6 0 1.1-.5 1.1-1.1L45 54.5l8.5.1c2 0 3.7 1.8 3.8 3.9 0 2-1.8 3.7-3.9 3.8-2 0-3.8-1.8-3.8-3.9 0-.6-.5-1.1-1.1-1.1-.6 0-1.1.5-1.1 1.1 0 3.3 2.6 6 5.9 6.1 1.6 0 3.1-.6 4.2-1.7 1.3-1.3 1.9-2.7 1.9-4.3zm-7.8-36l3.6 6.6-5.7-.1-3.6-6.6 5.7.1zm-4.5 6.6h-6l3.1-5.3 2.9 5.3zm-10.2-6.7l5.4.1-3.7 6.6-5.4-.1 3.7-6.6zM34 31.2l4.5.1 2.7 7.3-7.2-7.4zm6.9.1l6.5.1-3.4 8.4-3.1-8.5zm5.7 7.8l3-7.7 4.8.1-7.8 7.6z"/></svg>