<svg xmlns="http://www.w3.org/2000/svg" viewBox="0 0 480 480"><path d="M345.4 403.6c20.5-17.2 34.1-41.9 38.1-69.1 2.3-17.8.4-35.8-5.6-52.4l-10.8 4.2c5.3 14.8 7.1 30.8 5 46.6-3.6 24.2-15.7 46.1-33.9 61.4l7.2 9.3zm-38-105.9c1.7 4.6 3.5 9.2 5 13.9 1.8 5.8 2.7 11.8 3.2 17.9.6 7.4.2 14.7-1.1 22-.2 1.4.1 2.9.2 4.4.6 5.6-.6 10.9-2.8 16-3.2 7.2-8.2 13-14 18.2-7.8 7.1-17 11.8-26.9 15.1-2.1.7-4.4 1.1-6.5 1.8-.7.2-1.3.5-1.9.9-3.4 2.7-6.7 5.6-10.2 8.1-5 3.5-10.6 5-16.7 4.6-5.6-.3-10.3-2.9-14.3-6.7-2.4-2.3-4.6-4.8-7-7.1-.8-.7-1.7-1.4-2.7-1.8-8.3-2.9-16.3-6.4-23.5-11.7-8.1-5.9-14.9-13.2-19-22.5-2.8-6.3-3-12.9-.8-19.5.1-.3.2-.7.1-.9-1.7-5.8-1.7-11.7-1.4-17.6.7-13.7 4.8-26.5 11.4-38.5.1-.2.1-.3.1-.2-3.5.3-7 .9-10.5.7-9.3-.4-18-2.7-25.4-8.7-7.2-5.9-11.8-13.5-14-22.6-3.3-14.1.3-26.8 8.2-38.5 6.5-9.6 15.5-15.9 26.7-18.7 14.9-3.8 33.7 2.3 42.2 16 3 4.7 4.6 9.9 5.2 15.4 1 8.7 0 17-3.6 25-.6 1.4-1.5 2.8-2.4 4.5 11-7.1 22.9-10.2 35.6-10.6 12.6-.4 24.7 1.6 36.1 7.1-.8-2.3-1.7-4.6-2.3-6.9-2.7-10.6-1.1-20.6 4.8-29.9 5.1-8.1 12.1-13.8 21.5-16.2 8.4-2.2 16.7-1.1 24.6 2.1 18.9 7.6 30.3 21.8 34.3 41.6 2.5 12.2-.4 23.5-7.9 33.4-4.6 6-10.9 9.6-18.1 11.7-5.1 1.5-10.3 1.9-15.6 1.4-3.6-.5-7.4-1.4-10.6-3.2zm-40.5 106.7c.3 0 .5 0 .6-.1 11.1-3 21.2-8.2 29.8-15.9 7.8-7 13.8-15.1 15.6-25.8.8-4.6.4-9.1-1.9-13.3-3-5.3-7.7-8.5-13.2-10.7-4.4-1.8-8.9-2.9-14-2.9.4-.7.6-1.2.9-1.7 3.6-5.8 6.5-11.9 7.7-18.7 1.2-6.9.9-13.8-.6-20.5-2.8-12.5-9.8-21.9-21-28.2-4.4-2.5-9.2-3.6-14.2-1.7-3.8 1.4-6.8 4-9 7.4-.9 1.3-1.7 2.6-2.5 3.8-1.3-2-2.4-3.9-3.7-5.6-4.3-5.7-10-7.8-17.1-6.3-6.7 1.5-12.5 4.8-17.5 9.4-5.7 5.1-10.4 11-13.3 18.2-3.6 9.1-3.9 18.6-1.9 28.1 1.1 5.3 2.9 10.2 6.3 14.6 1.9 2.4 3.5 5 5.3 7.5-.6-.1-1.1-.4-1.5-.7-1.2-1.2-2.4-2.4-3.5-3.6-.3-.3-.5-.6-.9-.7-8-2.4-15.1-.4-21 5.2-7.8 7.4-9.7 19.5-4.7 29.5 3.7 7.3 9.1 13.4 15.5 18.5 6.9 5.5 14.7 9.2 23 12-1.6-1.5-3.1-3-4.7-4.4.1-.1.2-.3.3-.4 2.1 1.5 4.3 2.8 6.2 4.6 3.5 3.3 6.6 6.9 10.1 10.2 2.9 2.8 6.2 5.3 10.3 6.2 6.7 1.6 13.1.5 18.6-3.4 5.2-3.6 9.9-7.8 14.8-11.8 2.2-1.8 4.3-3.5 7.3-3.9-2 1.6-4 3.3-6.1 5.1z"/><path d="M294.7 354.8c-2.8-.5-5.3-.9-7.9-1.4 2.5-.7 5.1-.6 7.7.2 4.3 1.3 6.2 4.4 5.5 9.3-.6-2.9-1.5-5.2-3.5-6.4-1.7 1.6-3.4 3.2-5.2 4.7-4.5 3.9-9.1 7.8-13.6 11.6-.5.5-1 1-1.4 1.6-3.5 6-6.8 12.1-10.5 17.9-3.6 5.7-7.9 10.8-13.6 14.7-8.1 5.5-17.3 4.8-25.2-.5-5.7-3.9-9.9-9.2-13.7-15-3.8-5.9-7.7-11.7-11.7-17.4-1.4-2-3.3-3.7-5.1-5.5-3.1-3.2-5.8-6.7-7.6-11.3-.6 1.7-1.1 3-1.5 4.3-.4 1.3-.6 2.7-1 4.4-.7-2.3-.4-4.3 0-6.3.8-3.5 2.4-6.5 6-7.9 1.8-.7 3.6-.7 5.4.3-2.5-.7-4.5.1-6.2 1.7-1.7 1.6-1.9 1.9-.8 4 2.2 4.1 4.7 7.8 8.2 10.9 8.5 7.5 18.3 12.2 29.4 13.8 16.4 2.4 31.8-.7 45.9-9.6 7.5-4.7 13.8-10.7 19.7-17.2.3-.1.4-.3.7-.9zm-51.2 42.7c-5.5-4.1-14.2-2.1-19.8 4.2 1.2 1 2.3 2 3.6 2.9 4.1 3 8.6 5 13.8 4.6 8.8-.7 14.5-6.2 19.8-12.7-3.7-1.2-7.2-1.6-10.8-.6-3.5 1-6.4 3.1-9.4 5.2.9-1.1 1.9-2.4 2.8-3.6z"/><path d="M241.3 367.2c-6.8-.2-12.3-1.1-17.3-3.9-2.9-1.6-5-3.9-5.5-7.2-.9-5.5 1.2-9.9 5.4-13.3 3.1-2.5 6.7-3.6 10.6-4.3 6.4-1.2 12.7-1 19 1 3.4 1.1 6.4 3 8.5 6 3.1 4.6 2.4 10-1.6 14.4-3.4 3.7-7.8 5.6-12.6 6.5-2.6.4-5.1.6-6.5.8z"/><path d="M237.2 331.8h8.8c0-2.6.1-5.2 0-7.7-.3-8.2.7-16.3 3.2-24.1 1.1-3.4 2.6-6.7 4.2-9.9.9-1.8 2.4-3.2 4.5-3.5 2.4-.3 4 1.1 5.4 2.8 2.3 2.8 3.2 6.2 3.6 9.6.9 9.4-.4 18.6-3.8 27.5-1.1 2.8-2.7 5.4-4.2 8.2 2.4 1.1 4.8 2.5 6.5 5-1.2-.6-2.4-1.3-3.6-1.9-6.4-3.3-13.3-4.7-20.5-4.4-7.8.4-15.3 2.4-22.2 6.2-1.2.7-2.5 1.3-3.8 1.8 2.5-3.2 6-4.9 9.7-6.4-2.6-4.9-4.4-9.9-5-15.3-.3-3-.5-6-.4-9 .2-6.4 1.4-12.7 4.3-18.6 1-2 2.2-3.9 4.2-5.2 2.3-1.6 4.6-1.2 6.3 1.1 2.1 3 2.8 6.5 3.4 10 1.6 8.7 1.8 17.5.8 26.2-.5 2.6-1 5.1-1.4 7.6zm10.6-7c.2-1.1.3-2.2.6-3.2.7-2.9 1.5-5.7 4-7.6 2.6-2 5.8-1.2 7 1.9.6 1.6 1.1 3.4 1 5-.2 3.3-.8 6.6-1.2 9.6-.1.1.1 0 .2-.3 5.3-10.5 7.1-21.6 5.4-33.2-.4-3-1.7-5.7-4.1-7.7-1.6-1.3-3.3-1.3-4.6.2-1.1 1.3-2 2.7-2.8 4.2-4.7 9.8-5.8 20.3-5.5 31.1zm-11.4.7h.2c.2-2.7.6-5.4.6-8.1.2-6.7 0-13.4-1.5-20-.6-2.7-1.6-5.5-2.8-8-1.2-2.5-3-2.6-5-.6-1 1-1.8 2.1-2.5 3.3-2.5 4.5-3.6 9.4-4.3 14.4-1 7.9-.1 15.7 2.8 23.1.6 1.6 1.4 3.2 2.1 4.7-.5-2.5-1.3-4.8-1.8-7.2-.7-3.2-1.1-6.4-.4-9.6.5-2.1 1.4-4.1 3.8-4.6 2.5-.5 4.2.8 5.5 2.7.9 1.3 1.5 2.8 1.9 4.3.8 1.9 1 3.8 1.4 5.6z"/><path d="M337.6 149.3c-9.9-9.6-20.2-18.7-31-27.4l5.9-8.4-8.1-9.6c4.7-.3 8.3-1.5 11-3.9 4.6-4 4.7-9.5 4.7-11.8V54.4c0-5.9-6-17.4-19.9-17.4-11.9 0-35.9 12.9-45.6 18.9H248V0h-16v56h-6.6c-9.8-6-33.8-18.9-45.7-18.9-13.9 0-19.9 11.5-19.9 17.4v33.8c0 2.2.1 7.8 4.7 11.8 2.7 2.3 6.3 3.6 11 3.9l-8.1 9.6 5.9 8.4c-10.7 8.6-21.1 17.8-31 27.3C91.1 199.2 64 252.7 64 304c0 97.2 78.8 176 176 176s176-78.8 176-176c0-51.3-27.1-104.8-78.4-154.7zm-26.8-61.2c0 2.1-.2 3.7-1.5 4.8-1.1.9-4.1 2.4-11.8 1.2-7.5-1.1-16.4-2.9-24.3-4.5 12.6-2.7 26.4-5.3 30.5-6 2.4-.4 4.2.7 5.1 1.4 1.3 1 1.9 2.2 2 2.6v.5zM300.7 114l-1.4 2-7.3 10.4-10.8 15.3-20.7-45.4c8.1 1.8 20.1 4.4 30.7 6.2l9.5 11.5zm-42.4-43.2l.5-6.3c4.4-2.8 11.7-6.9 19.1-10.4 10.1-4.8 18.2-7.6 22.4-7.6 3.5 0 6.2 1.2 8.2 3.4 1.7 1.9 2.3 4 2.3 4.6v21c-2.7-1.1-5.7-1.5-8.6-1.1-5.9.9-30.7 5.8-44.8 9.1l.9-12.7zm-9.1-4.3L247.8 85h-15.7l-1.3-18.5h18.4zm-80-12c0-.6.6-2.7 2.3-4.6 2-2.3 4.8-3.4 8.2-3.4 4.1 0 12.3 2.8 22.4 7.6 7.4 3.5 14.7 7.6 19.1 10.4l1 13.6.4 5.4c-14.1-3.4-38.9-8.2-44.8-9.1-2.9-.5-5.9-.1-8.6 1.1v-21zm1.5 38.4c-1.2-1-1.5-2.7-1.5-4.8v-.5c.1-.4.7-1.6 2-2.6.9-.7 2.7-1.8 5.1-1.4 4.1.6 17.9 3.3 30.5 6-7.9 1.7-16.8 3.4-24.3 4.5-7.7 1.2-10.7-.2-11.8-1.2zm48.9 3.5l-20.7 45.4-14.9-21.1-3.3-4.6-1.4-2.1 9.6-11.4c10.6-1.7 22.6-4.3 30.7-6.2zM240 464c-88.3-.1-159.9-71.7-160-160 0-72.4 59.2-133.6 102.7-168.9l18 25.5 30.2-66.3h18.4l30.2 66.3 18-25.5C340.9 170.3 400 231.5 400 304c-.1 88.3-71.7 159.9-160 160z"/><path d="M317.9 407.4l4.5 11c4.5-2.1 8.8-4.5 12.9-7.2l-5.9-10.2c-3.7 2.4-7.6 4.5-11.5 6.4z" stroke="#fff" stroke-width="5.123" stroke-linecap="round" stroke-miterlimit="10"/><path d="M122.7 338.8c-1-3.1-4.4-4.8-7.5-3.8l-2.1.7v-2.3c0-3.3-2.6-5.9-5.9-5.9s-5.9 2.6-5.9 5.9v2.3l-2.1-.7c-3.1-1-6.4.7-7.5 3.8-1 3.1.7 6.4 3.8 7.4l2.2.7-1.4 1.9c-1.9 2.6-1.3 6.3 1.3 8.2 1 .8 2.2 1.1 3.4 1.1 1.8 0 3.6-.9 4.8-2.5l1.3-1.8 1.3 1.8c1.2 1.6 3 2.5 4.8 2.5 1.2 0 2.4-.4 3.4-1.1 2.6-1.9 3.2-5.6 1.3-8.2l-1.4-1.9 2.2-.7c3.3-1 5-4.3 4-7.4zm274.2-102.1c-.8-2.5-3.5-3.8-6-3l-1.7.6v-1.8c0-2.6-2.1-4.7-4.7-4.7s-4.7 2.1-4.7 4.7v1.8l-1.7-.6c-2.5-.8-5.2.5-6 3-.8 2.5.5 5.2 3 6l1.7.6-1.1 1.5c-1.5 2.1-1 5.1 1.1 6.6.8.6 1.8.9 2.8.9 1.5 0 2.9-.7 3.9-2l1-1.4 1 1.4c.9 1.3 2.4 2 3.9 2 1 0 1.9-.3 2.8-.9 2.1-1.5 2.6-4.5 1.1-6.6l-1.1-1.5 1.7-.6c2.4-.8 3.8-3.5 3-6zm-97 216c-1-3.1-4.4-4.8-7.5-3.8l-2.1.7v-2.3c0-3.3-2.6-5.9-5.9-5.9-3.3 0-5.9 2.6-5.9 5.9v2.3l-2.1-.7c-3.1-1-6.4.7-7.5 3.8-1 3.1.7 6.4 3.8 7.4l2.2.7-1.4 1.9c-1.9 2.6-1.3 6.3 1.3 8.2 1 .8 2.2 1.1 3.4 1.1 1.8 0 3.6-.9 4.8-2.5l1.3-1.8 1.3 1.8c1.2 1.6 3 2.5 4.8 2.5 1.2 0 2.4-.4 3.4-1.1 2.6-1.9 3.2-5.6 1.3-8.2l-1.4-1.9 2.2-.7c3.3-.9 5-4.3 4-7.4z"/><circle cx="326.6" cy="196.1" r="5.9"/><circle cx="168.8" cy="441.5" r="5.9"/><circle cx="238.6" cy="216.9" r="5.9"/><circle cx="273.2" cy="173.5" r="5.9"/><circle cx="157.8" cy="184.3" r="5.9"/><circle cx="97.4" cy="257.8" r="5.9"/><circle cx="151.9" cy="402.3" r="5.9"/><circle cx="220.8" cy="152.3" r="5.9"/><circle cx="319.1" cy="435.5" r="5.9"/><circle cx="232.6" cy="447.4" r="5.9"/><path d="M264.7 113.7c-.9-2.7-3.7-4.1-6.4-3.2l-1.8.6v-2c0-2.8-2.3-5.1-5.1-5.1s-5.1 2.3-5.1 5.1v2l-1.8-.6c-2.7-.9-5.5.6-6.4 3.2-.9 2.7.6 5.5 3.2 6.4l1.9.6-1.2 1.6c-1.6 2.3-1.1 5.4 1.1 7.1.9.6 1.9 1 2.9 1 1.6 0 3.1-.7 4.1-2.1l1.1-1.5 1.1 1.5c1 1.4 2.5 2.1 4.1 2.1 1 0 2.1-.3 2.9-1 2.3-1.6 2.8-4.8 1.1-7.1l-1.2-1.6 1.9-.6c3-.9 4.4-3.8 3.6-6.4z"/></svg>