<svg version="1.1" id="Layer_1" xmlns="http://www.w3.org/2000/svg" x="0" y="0" viewBox="0 0 60.4 72.5" xml:space="preserve"><style>.st0{fill:#fff}</style><path d="M61.1 62.1c-11.6.7-18.1-.5-21.6-1.7-3.8-1.3-4.8-2.7-4.8-2.7-.1-.1-.2-.2-.3-.2-.1 0-.3.1-.4.2-3 3.5-10.1 2.3-11.5 2.1-5.4-1.1-8.4-3-10.1-5l4.2-.3c.2 0 .4-.2.4-.5 0-.2-.2-.4-.5-.4l-4.8.4c-.4-.7-.7-1.4-.9-2 0-.2-.1-.3-.1-.5h11.6c.2 0 .4-.2.4-.4s-.2-.4-.4-.4H10.6c-.2-1.3 0-2.6.3-3.8.6.2 2.4 1 5 1.5 1.7.4 3.8.7 6.1.7 1.7 0 3.4-.2 5.2-.6 1.7-.4 2.8-1.2 3.4-2.4.6-1.3.3-2.6 0-3.3.6 0 1.1 0 1.7-.1.6 0 1.1-.1 1.7-.1v4.2c0 .2.2.4.4.4s.4-.2.4-.4v-4.3c1-.1 2-.2 3-.4.2 0 .1 0 .4-.1.3 0 .3-.1.4-.1 11-1.8 22.1-6.3 22.2-6.3.2-.1.3-.4.2-.6s-.4-.3-.6-.2c-.2.1-15.8 6.4-28.4 7-5.7.3-9.5-.3-12.3-.7-3.4-.5-5.5-.8-7.4 1.1-2.1 2.1-3.8 6.1-2.6 10 .9 2.9 3.8 6.8 12.3 8.5 2 .4 8.6 1.4 12-2 1.2 1.2 6 4.6 20.3 4.6 2 0 4.2-.1 6.5-.2.2 0 .4-.2.4-.5.4-.4.2-.5-.1-.5zM13.3 42.7c1.6-1.6 3.3-1.4 6.6-.9 2.4.3 5.5.8 9.8.8.2.5.6 1.8.1 3-.4.9-1.3 1.5-2.8 1.9-7.2 1.8-14.8-1.1-15.8-1.6.6-1.3 1.3-2.4 2.1-3.2z"/><path d="M61.2 37.9c-.1-.2-.4-.3-.6-.2-.1 0-7.1 2.9-15.4 4.9-.2.1-.4.3-.3.5.1.2.2.3.4.3h.1c8.4-2.1 15.4-4.9 15.5-4.9.3-.1.4-.4.3-.6zM51.8 58c-.2 0-.5.2-.5.4s.2.5.4.5c1.1 0 2.2.1 3.4.1 1.9 0 3.9-.1 6-.2.2 0 .4-.2.4-.5 0-.2-.2-.4-.5-.4-3.3.2-6.4.2-9.2.1zm-13-6.7c.7 2.8.2 6.1-1.2 8.6-.5 1 1.7.8 2 .1 1.5-2.8 2-6.3 1.3-9.3-.1-.9-2.3-.3-2.1.6z"/><path d="M38.8 48.3c-1.4.3-1.9 2.5-.8 3.4 1.1 1 3.1.3 3.5-1 .4-1.1-.4-2.7-1.6-2.6-2.3.2-2.4 1.3-1.5 2.1m-2.9-.4c-.5-2.4-.7-5.1.3-7.4.5-1-1.7-.9-2-.1-1.1 2.5-1.1 5.4-.5 8.1.2.8 2.4.3 2.2-.6z"/><path d="M35.3 52.2c1.4-.4 1.7-2.6.5-3.5-1.2-.9-3.1-.1-3.4 1.3-.3 1.2.7 2.4 1.8 2.5 1.6.1 2.9-1.9 1.9-2.6"/><circle class="st0" cx="34.4" cy="50.5" r="1.3"/><circle class="st0" cx="39.6" cy="50.1" r="1.3"/></svg>