<svg xmlns="http://www.w3.org/2000/svg" viewBox="0 0 321 512"><path d="M254.3 187.2C231.5 177 215 169.5 215 140.3V89.4h2.5c5.5 0 10-4.5 10-10V32.7c0-18-14.6-32.7-32.7-32.7h-73.6c-18 0-32.7 14.7-32.7 32.7v46.7c0 5.5 4.5 10 10 10h2.5v50.9c0 29.2-16.5 36.6-39.3 46.9-31.2 14-70 31.5-58 113.6L30.3 483c2.5 17.1 15 29 30.3 29h194.7c15.4 0 27.9-11.9 30.3-29l26.6-182.1c12.1-82.2-26.7-99.7-57.9-113.7zM108.5 32.7c0-7 5.7-12.7 12.7-12.7h73.6c7 0 12.7 5.7 12.7 12.7v36.7h-99V32.7zm184 265.2l-26.6 182.2c-.9 5.9-4.5 11.9-10.6 11.9H60.6c-6.1 0-9.7-6-10.6-11.9L23.5 297.9c-9.8-67.2 16.2-78.9 46.4-92.5 23.9-10.8 51.1-23 51.1-65.1V89.4h74v50.9c0 42.2 27.1 54.4 51.1 65.1 30.2 13.6 56.2 25.4 46.4 92.5z"/><path d="M219.7 401.3H96.3c-13.9 0-25.1 11.3-25.1 25.1v16.4c0 13.8 11.3 25.1 25.1 25.1h123.4c13.9 0 25.1-11.3 25.1-25.1v-16.4c0-13.8-11.2-25.1-25.1-25.1zm5.1 41.5c0 2.8-2.3 5.1-5.1 5.1H96.3c-2.8 0-5.1-2.3-5.1-5.1v-16.4c0-2.8 2.3-5.1 5.1-5.1h123.4c2.8 0 5.1 2.3 5.1 5.1v16.4zm9.5-216.3c-51.3-26.1-101.2-26.1-152.5 0-16.6 8.5-27.1 14.2-32.7 24.7-5.4 10.2-4.9 22.1-1.8 43.3l5.4 36.8c.7 4.9 4.9 8.6 9.9 8.6h50.6c5.5 0 10-4.5 10-10s-4.5-10-10-10h-42l-4.1-28.2c-2.4-16.1-3.1-25.8-.3-31 2.7-5.1 10.9-9.6 24.1-16.3 45.2-23 89.1-23 134.3 0 13.2 6.7 21.4 11.2 24.1 16.3 2.8 5.2 2 14.9-.3 31l-4.1 28.2h-42c-5.5 0-10 4.5-10 10s4.5 10 10 10h50.6c5 0 9.2-3.6 9.9-8.6l5.4-36.8c3.1-21.2 3.6-33.1-1.8-43.3-5.6-10.5-16.1-16.2-32.7-24.7z"/><path d="M158.1 339.8c5.5 0 10-4.5 10-10s-4.5-10-10-10-10 4.5-10 10 4.4 10 10 10z"/></svg>