<svg xmlns="http://www.w3.org/2000/svg" viewBox="0 0 228 629"><path d="M145.7 18.6v-.5c0-5.5-4.5-10-10-10L92.3 8c-5.5 0-10 4.5-10 10v.5C71.9 20.8 64 30.2 64 41.4v35.4c0 7.5 3.5 14.3 9.2 18.6-3.2 92.1-22.3 132.8-39.3 168.8-.9 2-1.8 3.9-2.8 5.9-2.3 5-.2 11 4.8 13.3 5 2.3 11 .2 13.3-4.8.9-1.9 1.8-3.9 2.7-5.8 2-4.3 4-8.6 6.1-13.1l48.4 48.4c3.9 3.9 10.2 3.9 14.1 0l49-49c2.1 4.7 4.3 9.2 6.4 13.7 13.5 28.6 25.1 53.3 25.1 97.8V385h-42.5c-1.2-2.9-2.4-5.8-3.8-8.5-10.3-20.7-24.8-32.1-40.8-32.1-16 0-30.5 11.4-40.8 32.1-1.3 2.7-2.6 5.5-3.8 8.5H26.8v-14.5c0-3.2.1-6.3.2-9.4.2-5.5-4.1-10.2-9.6-10.4-5.5-.2-10.2 4.1-10.4 9.6-.1 3.4-.2 6.8-.2 10.2V583c0 21 17.1 38 38 38H183c10.5 0 20-4.3 26.9-11.1 6.9-6.9 11.1-16.4 11.1-26.9V370.5c0-49-13.1-76.9-27-106.3-16.9-36-36.1-76.7-39.3-168.9 5.7-4.3 9.2-11.1 9.2-18.6V41.4c.1-11.2-7.8-20.6-18.2-22.8zM201.1 405v80h-36.4c2.8-12.4 4.4-26 4.4-40s-1.5-27.6-4.4-40h36.4zm-110-19.5c3-6.1 6.4-11 9.9-14.5 4.2-4.2 8.7-6.5 13-6.5 7.9 0 16.3 7.6 22.9 21 7.8 15.7 12.1 36.9 12.1 59.6 0 22.7-4.3 43.8-12.1 59.6-6.6 13.3-15 21-22.9 21s-16.3-7.6-22.9-21C83.3 488.9 79 467.7 79 445c0-22.6 4.3-43.8 12.1-59.5zM63.3 405c-2.8 12.4-4.4 26-4.4 40s1.5 27.6 4.4 40H26.9v-80h36.4zm137.8 178c0 9.9-8.1 18-18 18H45c-9.9 0-18-8.1-18-18v-78h42.5c1.2 2.9 2.4 5.8 3.8 8.5 10.3 20.7 24.8 32.1 40.8 32.1 9.8 0 19-4.3 27.1-12.3 5.1-5.1 9.7-11.7 13.7-19.8 1.3-2.7 2.6-5.5 3.8-8.5h42.5l-.1 78zM93 99.4h41.9c1.5 39.5 5.9 69.8 11.8 94.4l-32.9 32.9L81.1 194c6-24.5 10.4-54.9 11.9-94.6zm20.6 187.4l-46.9-46.9c2.9-7.3 5.7-15.1 8.4-23.6l31.7 31.7c3.9 3.9 10.2 3.9 14.1 0l32-32c2.6 8.4 5.4 16 8.3 23.2l-47.6 47.6zM144 41.4v35.4c0 1.2-.7 2.2-1.5 2.7H85.4c-.8-.6-1.5-1.5-1.5-2.7V41.4c0-1.8 1.5-3.3 3.3-3.3h53.4c1.9-.1 3.4 1.4 3.4 3.3z"/><path d="M30.9 323.3c3.9-3.9 3.9-10.2 0-14.1-3.9-3.9-10.2-3.9-14.1 0-3.9 3.9-3.9 10.2 0 14.1 3.9 3.9 10.2 3.9 14.1 0z"/></svg>